<svg xmlns="http://www.w3.org/2000/svg" xmlns:xlink="http://www.w3.org/1999/xlink" width="113.842" height="101.604" viewBox="0 0 113.842 101.604">
  <defs>
    <clipPath id="clip-path">
      <rect id="Rectangle_410899" data-name="Rectangle 410899" width="85" height="84" transform="translate(757.468 2387.133)" fill="#fff" stroke="#707070" stroke-width="1"/>
    </clipPath>
  </defs>
  <g id="Group_1203830" data-name="Group 1203830" transform="translate(-747.198 -2376.405)">
    <g id="Group_1203703" data-name="Group 1203703" transform="translate(747.198 2376.405)">
      <ellipse id="Ellipse_12452" data-name="Ellipse 12452" cx="28.658" cy="28.658" rx="28.658" ry="28.658" transform="translate(56.527 44.289)" fill="#c0d85c"/>
      <ellipse id="Ellipse_12453" data-name="Ellipse 12453" cx="20.842" cy="20.842" rx="20.842" ry="20.842" fill="#c0d85c"/>
    </g>
    <g id="Mask_Group_1099401" data-name="Mask Group 1099401" clip-path="url(#clip-path)">
      <g id="Layer_x0020_1" transform="translate(757.368 2386.552)">
        <path id="Path_1262630" data-name="Path 1262630" d="M6.089,21.662C5.84,18.817,4.442,17.07,1.8,16.521a1.509,1.509,0,0,1,.649-2.945A7.863,7.863,0,0,1,7.587,16.92c1.647-2.446,6.339-4.841,6.938-2.2a1.52,1.52,0,0,1-1.148,1.8,4.977,4.977,0,0,0-4.143,4.193,10.207,10.207,0,0,1,5.84.9,10.542,10.542,0,0,1,6.888-4.143,5.061,5.061,0,0,0-4.193-4.742,1.478,1.478,0,0,1,.6-2.895,7.863,7.863,0,0,1,5.141,3.344c1.647-2.446,6.389-4.841,6.938-2.2A1.447,1.447,0,0,1,29.3,12.728a5.061,5.061,0,0,0-4.193,4.742,10.555,10.555,0,0,1,6.588,3.743,10.86,10.86,0,0,1,3.594-.6A5.087,5.087,0,0,0,31.1,16.122a1.484,1.484,0,0,1,.649-2.895,7.863,7.863,0,0,1,5.141,3.344c1.647-2.446,6.339-4.841,6.938-2.2a1.483,1.483,0,0,1-1.148,1.747,5.144,5.144,0,0,0-4.243,4.991,10.377,10.377,0,0,1,4.143,2.5,10.642,10.642,0,0,1,10.931-2.4c.05-.05.05-.1.1-.15-.05-3.693-1.4-8.186-7.087-9.433a1.483,1.483,0,1,1,.649-2.895,11.131,11.131,0,0,1,7.936,5.89,11.131,11.131,0,0,1,7.936-5.89,1.483,1.483,0,1,1,.649,2.895A8.309,8.309,0,0,0,56.9,18.517a10.477,10.477,0,0,1,13.177,3.095,10.236,10.236,0,0,1,2.895-.9c-.25-2.5-1.447-5.191-5.091-5.989a1.478,1.478,0,0,1,.6-2.895,8.966,8.966,0,0,1,6.039,4.143,9.2,9.2,0,0,1,6.039-4.143,1.483,1.483,0,1,1,.649,2.895c-3.644.8-4.841,3.494-5.091,5.989A10.579,10.579,0,0,1,85.1,31.145l-.05,43.823a1.471,1.471,0,0,1-1.5,1.5H1.6a1.471,1.471,0,0,1-1.5-1.5V31.145A10.5,10.5,0,0,1,6.089,21.662ZM82.055,32.642H3.095V73.52H82.055ZM10.282,44.821a1.493,1.493,0,0,1-1.048-2.546l5.59-5.64c1.4-1.348,3.544.749,2.146,2.146l-5.64,5.59A1.359,1.359,0,0,1,10.282,44.821ZM47.965,68.379c-18.018,0-32.093-7.337-32.093-16.671S29.947,35.038,47.965,35.038c17.968,0,32.093,7.337,32.093,16.671S65.934,68.379,47.965,68.379Zm0-30.346c-15.772,0-29.1,6.239-29.1,13.676,0,7.387,13.326,13.676,29.1,13.676s29.1-6.289,29.1-13.676C77.064,44.272,63.738,38.033,47.965,38.033Zm0,24.756C33.441,62.789,22.51,58,22.51,51.709c0-6.339,10.931-11.08,25.455-11.08S73.42,45.37,73.42,51.709a1.5,1.5,0,0,1-2.995,0c0-3.843-9.234-8.086-22.46-8.086S25.5,47.866,25.5,51.709s9.234,8.086,22.46,8.086A1.5,1.5,0,0,1,47.965,62.789ZM15.323,70.426c-7.637,0-10.681-4.442-9.982-12.129A1.41,1.41,0,0,1,6.688,56.95c8.485-.749,12.578,3.045,12.079,11.33.749.7,2.246,1.9,1,3.095-1.248,1.248-2.446-.349-3.095-1A12.163,12.163,0,0,1,15.323,70.426ZM8.235,59.844c-.15,4.442,1.248,6.988,5.39,7.487l-2.645-2.645a1.482,1.482,0,0,1,2.1-2.1l2.645,2.645C15.223,61.142,12.777,59.695,8.235,59.844ZM6.788,39.93A1.493,1.493,0,0,1,5.74,37.384l2.895-2.895a1.5,1.5,0,0,1,2.146,2.1L7.836,39.53A1.611,1.611,0,0,1,6.788,39.93Zm68.529,30.3a1.483,1.483,0,0,1-1.048-2.546l2.895-2.945c1.4-1.4,3.494.749,2.146,2.146l-2.945,2.895A1.437,1.437,0,0,1,75.317,70.226ZM3.244,29.648H81.955a7.584,7.584,0,0,0-11.53-4.841,1.493,1.493,0,0,1-2.146-.5A7.528,7.528,0,0,0,56.251,22.66c-.8.849-1.5,2.446-2.895,1.747a7.486,7.486,0,0,0-9.533,2.346,1.493,1.493,0,0,1-2.446,0,7.514,7.514,0,0,0-9.533-2.346,1.5,1.5,0,0,1-1.947-.549,7.518,7.518,0,0,0-12.977.449,1.511,1.511,0,0,1-2.146.5A7.566,7.566,0,0,0,3.244,29.648Z" fill-rule="evenodd"/>
        <path id="Path_1262631" data-name="Path 1262631" d="M56.251,22.66c-.8.849-1.5,2.446-2.895,1.747a7.486,7.486,0,0,0-9.533,2.346,1.493,1.493,0,0,1-2.446,0,7.514,7.514,0,0,0-9.533-2.346,1.5,1.5,0,0,1-1.947-.549,7.518,7.518,0,0,0-12.977.449,1.511,1.511,0,0,1-2.146.5,7.566,7.566,0,0,0-11.53,4.841H81.955a7.584,7.584,0,0,0-11.53-4.841,1.493,1.493,0,0,1-2.146-.5A7.528,7.528,0,0,0,56.251,22.66Z" fill="#378b4e" fill-rule="evenodd"/>
        <path id="Path_1262632" data-name="Path 1262632" d="M82.055,32.642H3.095V73.52H82.055Zm-34.09,2.4c17.968,0,32.093,7.337,32.093,16.671S65.934,68.379,47.965,68.379c-18.018,0-32.093-7.337-32.093-16.671S29.947,35.038,47.965,35.038Zm-31,3.743-5.64,5.59a1.359,1.359,0,0,1-1.048.449,1.493,1.493,0,0,1-1.048-2.546l5.59-5.64C16.221,35.288,18.368,37.384,16.97,38.782ZM6.688,56.95c8.485-.749,12.578,3.045,12.079,11.33.749.7,2.246,1.9,1,3.095-1.248,1.248-2.446-.349-3.095-1a12.163,12.163,0,0,1-1.348.05c-7.637,0-10.681-4.442-9.982-12.129A1.41,1.41,0,0,1,6.688,56.95Zm4.093-20.364L7.836,39.53a1.611,1.611,0,0,1-1.048.4A1.493,1.493,0,0,1,5.74,37.384l2.895-2.895A1.5,1.5,0,0,1,10.781,36.585Zm63.488,31.1,2.895-2.945c1.4-1.4,3.494.749,2.146,2.146l-2.945,2.895a1.437,1.437,0,0,1-1.048.449A1.483,1.483,0,0,1,74.269,67.681Z" fill="#7ed63f" fill-rule="evenodd"/>
        <path id="Path_1262633" data-name="Path 1262633" d="M47.965,43.623c-13.227,0-22.46,4.243-22.46,8.086s9.234,8.086,22.46,8.086a1.5,1.5,0,0,1,0,2.995C33.441,62.789,22.51,58,22.51,51.709c0-6.339,10.931-11.08,25.455-11.08S73.42,45.37,73.42,51.709a1.5,1.5,0,0,1-2.995,0C70.426,47.866,61.192,43.623,47.965,43.623Zm0-5.59c-15.772,0-29.1,6.239-29.1,13.676,0,7.387,13.326,13.676,29.1,13.676s29.1-6.289,29.1-13.676C77.064,44.272,63.738,38.033,47.965,38.033Z" fill="#1d81ce" fill-rule="evenodd"/>
        <path id="Path_1262634" data-name="Path 1262634" d="M15.722,65.235c-.5-4.093-2.945-5.54-7.487-5.39-.15,4.442,1.248,6.988,5.39,7.487l-2.645-2.645a1.482,1.482,0,0,1,2.1-2.1Z" fill="#378b4e" fill-rule="evenodd"/>
      </g>
    </g>
  </g>
</svg>
