<svg xmlns="http://www.w3.org/2000/svg" xmlns:xlink="http://www.w3.org/1999/xlink" width="113.842" height="101.604" viewBox="0 0 113.842 101.604">
  <defs>
    <clipPath id="clip-path">
      <rect id="Rectangle_410897" data-name="Rectangle 410897" width="85" height="84" transform="translate(384.667 2387.133)" fill="#fff" stroke="#707070" stroke-width="1"/>
    </clipPath>
  </defs>
  <g id="Group_1203857" data-name="Group 1203857" transform="translate(-374.397 -2376.405)">
    <g id="Group_1203702" data-name="Group 1203702" transform="translate(374.397 2376.405)">
      <ellipse id="Ellipse_12452" data-name="Ellipse 12452" cx="28.658" cy="28.658" rx="28.658" ry="28.658" transform="translate(56.527 44.289)" fill="#c0d85c"/>
      <ellipse id="Ellipse_12453" data-name="Ellipse 12453" cx="20.842" cy="20.842" rx="20.842" ry="20.842" fill="#c0d85c"/>
    </g>
    <g id="Mask_Group_1099407" data-name="Mask Group 1099407" clip-path="url(#clip-path)">
      <g id="Filled_outline" data-name="Filled outline" transform="translate(382.367 2384.333)">
        <rect id="Rectangle_411004" data-name="Rectangle 411004" width="81.2" height="58.8" transform="translate(4.2 4.2)" fill="#c9864b"/>
        <rect id="Rectangle_411005" data-name="Rectangle 411005" width="70" height="47.6" transform="translate(9.8 9.8)" fill="#d3edf4"/>
        <rect id="Rectangle_411006" data-name="Rectangle 411006" width="14" height="22.4" transform="translate(37.8 63)" fill="#66342e"/>
        <path id="Path_1262687" data-name="Path 1262687" d="M72.8,26.6c-7.925,0-18.43,3.5-22.4,8.4l7,5.6H49.19c1.669,6.3,14.242,11.2,23.61,11.2a16,16,0,0,0,7-1.35V27.95a16,16,0,0,0-7-1.35Z" fill="#69b1c6"/>
        <rect id="Rectangle_411007" data-name="Rectangle 411007" width="2.8" height="2.8" transform="translate(61.6 33.6)" fill="#394d5c"/>
        <circle id="Ellipse_12520" data-name="Ellipse 12520" cx="2.8" cy="2.8" r="2.8" transform="translate(32.2 22.4)" fill="#f9bb4b"/>
        <path id="Path_1262688" data-name="Path 1262688" d="M85.4,2.8H4.2A1.4,1.4,0,0,0,2.8,4.2V63a1.4,1.4,0,0,0,1.4,1.4H36.4v21a1.4,1.4,0,0,0,1.4,1.4h14a1.4,1.4,0,0,0,1.4-1.4v-21H85.4A1.4,1.4,0,0,0,86.8,63V4.2A1.4,1.4,0,0,0,85.4,2.8ZM50.4,84H39.2V64.4H50.4ZM84,61.6H5.6V5.6H84Z"/>
        <rect id="Rectangle_411008" data-name="Rectangle 411008" width="2.8" height="2.8" transform="translate(61.6 33.6)"/>
        <path id="Path_1262689" data-name="Path 1262689" d="M9.8,58.8h70a1.4,1.4,0,0,0,1.4-1.4V9.8a1.4,1.4,0,0,0-1.4-1.4H9.8A1.4,1.4,0,0,0,8.4,9.8V57.4A1.4,1.4,0,0,0,9.8,58.8ZM58.275,39.507l-5.82-4.647C56.532,31.045,65.372,28,72.8,28a16.024,16.024,0,0,1,5.6.872V49.528a16.024,16.024,0,0,1-5.6.872c-7.84,0-18.225-3.72-21.42-8.4H57.4a1.4,1.4,0,0,0,.875-2.493ZM35,26.6a1.4,1.4,0,1,1,1.4-1.4A1.4,1.4,0,0,1,35,26.6ZM11.2,11.2H33.6V21.258a4.175,4.175,0,0,0,0,7.885V43.4a5.6,5.6,0,1,0,11.2,0V37.8a1.4,1.4,0,0,0-2.39-.99l-4.2,4.2,1.98,1.98L42,41.18V43.4a2.8,2.8,0,1,1-5.6,0V29.142a4.175,4.175,0,0,0,0-7.885V11.2h42V25.939a19.537,19.537,0,0,0-5.6-.739c-7.818,0-19.02,3.41-23.488,8.918a1.4,1.4,0,0,0,.213,1.975L53.409,39.2H49.19a1.4,1.4,0,0,0-1.354,1.758C49.84,48.544,63.729,53.2,72.8,53.2a19.537,19.537,0,0,0,5.6-.739V56H11.2Z"/>
        <path id="Path_1262690" data-name="Path 1262690" d="M25.2,40.6a4.18,4.18,0,0,1-2.191-.539,6.933,6.933,0,0,0-3.409-.819,6.937,6.937,0,0,0-3.412.819A4.18,4.18,0,0,1,14,40.6v2.8a6.937,6.937,0,0,0,3.412-.819,4.18,4.18,0,0,1,2.188-.539,4.18,4.18,0,0,1,2.191.539A6.937,6.937,0,0,0,25.2,43.4a6.919,6.919,0,0,0,3.408-.819,4.168,4.168,0,0,1,2.192-.539v-2.8a6.93,6.93,0,0,0-3.409.819A4.162,4.162,0,0,1,25.2,40.6Z"/>
        <path id="Path_1262691" data-name="Path 1262691" d="M25.2,32.2a4.046,4.046,0,0,1-2.174-.553A6.824,6.824,0,0,0,19.6,30.8a6.822,6.822,0,0,0-3.427.847A4.049,4.049,0,0,1,14,32.2V35a6.822,6.822,0,0,0,3.427-.847A4.049,4.049,0,0,1,19.6,33.6a4.06,4.06,0,0,1,2.177.553A6.811,6.811,0,0,0,25.2,35a6.814,6.814,0,0,0,3.43-.84,4.031,4.031,0,0,1,2.17-.56V30.8a6.814,6.814,0,0,0-3.424.847A4.031,4.031,0,0,1,25.2,32.2Z"/>
        <path id="Path_1262692" data-name="Path 1262692" d="M19.6,25.242a4.18,4.18,0,0,1,2.191.539A6.937,6.937,0,0,0,25.2,26.6a6.912,6.912,0,0,0,3.406-.819l-1.224-2.52A4.162,4.162,0,0,1,25.2,23.8a4.18,4.18,0,0,1-2.191-.539,6.933,6.933,0,0,0-3.409-.819,6.937,6.937,0,0,0-3.412.819A4.18,4.18,0,0,1,14,23.8v2.8a6.937,6.937,0,0,0,3.412-.819A4.18,4.18,0,0,1,19.6,25.242Z"/>
        <path id="Path_1262693" data-name="Path 1262693" d="M19.6,16.8a4.06,4.06,0,0,1,2.177.553A6.811,6.811,0,0,0,25.2,18.2a6.814,6.814,0,0,0,3.43-.84,4.031,4.031,0,0,1,2.17-.56V14a6.814,6.814,0,0,0-3.424.847A4.031,4.031,0,0,1,25.2,15.4a4.046,4.046,0,0,1-2.174-.553A6.824,6.824,0,0,0,19.6,14a6.822,6.822,0,0,0-3.427.847A4.049,4.049,0,0,1,14,15.4v2.8a6.822,6.822,0,0,0,3.427-.847A4.049,4.049,0,0,1,19.6,16.8Z"/>
        <path id="Path_1262694" data-name="Path 1262694" d="M25.2,49a4.046,4.046,0,0,1-2.174-.56A6.824,6.824,0,0,0,19.6,47.6a6.822,6.822,0,0,0-3.427.84A4.049,4.049,0,0,1,14,49v2.8a6.822,6.822,0,0,0,3.427-.84A4.049,4.049,0,0,1,19.6,50.4a4.06,4.06,0,0,1,2.177.56,6.811,6.811,0,0,0,3.423.84,6.814,6.814,0,0,0,3.424-.84A4.031,4.031,0,0,1,30.8,50.4V47.6a6.814,6.814,0,0,0-3.424.84A4.031,4.031,0,0,1,25.2,49Z"/>
        <path id="Path_1262695" data-name="Path 1262695" d="M46.48,18.2a10.1,10.1,0,0,0,4.14-.792,8.4,8.4,0,0,1,6.271,0,11.232,11.232,0,0,0,8.288,0,8.418,8.418,0,0,1,6.28,0A10.114,10.114,0,0,0,75.6,18.2V15.4a7.4,7.4,0,0,1-3.14-.608,11.236,11.236,0,0,0-8.289,0,8.411,8.411,0,0,1-6.278,0,11.214,11.214,0,0,0-8.281,0,8.4,8.4,0,0,1-6.271,0A10.1,10.1,0,0,0,39.2,14v2.8a7.379,7.379,0,0,1,3.136.608A10.109,10.109,0,0,0,46.48,18.2Z"/>
        <path id="Path_1262696" data-name="Path 1262696" d="M53.417,25.808a8.392,8.392,0,0,1,6.28,0l1-2.619a11.214,11.214,0,0,0-8.281,0,8.4,8.4,0,0,1-6.271,0A10.1,10.1,0,0,0,42,22.4v2.8a7.379,7.379,0,0,1,3.136.608,11.214,11.214,0,0,0,8.281,0Z"/>
        <path id="Path_1262697" data-name="Path 1262697" d="M47.6,71.4H44.8v7H42v2.8h5.6Z"/>
      </g>
    </g>
  </g>
</svg>
