<svg xmlns="http://www.w3.org/2000/svg" xmlns:xlink="http://www.w3.org/1999/xlink" width="105.479" height="87.991" viewBox="0 0 105.479 87.991">
  <defs>
    <clipPath id="clip-path">
      <rect id="Rectangle_410838" data-name="Rectangle 410838" width="75.895" height="72.761" transform="translate(1014.271 6734.464)" fill="#fff" stroke="#707070" stroke-width="1"/>
    </clipPath>
  </defs>
  <g id="Group_1204566" data-name="Group 1204566" transform="translate(-1000 -6726.736)">
    <g id="Group_1203663" data-name="Group 1203663" transform="translate(759.164 16)">
      <g id="Group_1203659" data-name="Group 1203659" transform="translate(240.836 6710.736)">
        <ellipse id="Ellipse_12452" data-name="Ellipse 12452" cx="28.658" cy="28.658" rx="28.658" ry="28.658" transform="translate(48.164 30.676)" fill="#c0d85c"/>
        <ellipse id="Ellipse_12453" data-name="Ellipse 12453" cx="20.842" cy="20.842" rx="20.842" ry="20.842" fill="#c0d85c"/>
      </g>
    </g>
    <g id="Mask_Group_1099415" data-name="Mask Group 1099415" clip-path="url(#clip-path)">
      <g id="level_5776184" transform="translate(1014.965 6733.594)">
        <g id="Layer_3">
          <path id="Path_1263510" data-name="Path 1263510" d="M54.651,19A17.4,17.4,0,1,0,35.239,36.276L37.252,40.6l2.013-4.322A17.4,17.4,0,0,0,54.651,19Z" fill="#f0c020"/>
          <path id="Path_1263511" data-name="Path 1263511" d="M54.651,19A17.4,17.4,0,1,0,35.239,36.276L37.252,40.6l2.013-4.322A17.4,17.4,0,0,0,54.651,19Z" fill="#efefef"/>
          <g id="Group_1204556" data-name="Group 1204556">
            <g id="Group_1204555" data-name="Group 1204555">
              <path id="Path_1263512" data-name="Path 1263512" d="M70.285,43.925H4.22a2.911,2.911,0,0,0-2.91,2.91V70a2.911,2.911,0,0,0,2.91,2.91H70.285A2.911,2.911,0,0,0,73.195,70V46.835A2.911,2.911,0,0,0,70.285,43.925Zm-48.59,14.56a6.909,6.909,0,0,1-13.048,0,6.91,6.91,0,0,1,0-4.551,6.909,6.909,0,0,1,13.048,4.551ZM64.221,61.1a6.909,6.909,0,1,1-1.88-11.109,6.951,6.951,0,0,1,3.218,3.218A6.913,6.913,0,0,1,64.221,61.1Z" fill="#f0c020"/>
              <path id="Path_1263513" data-name="Path 1263513" d="M22.079,56.21a6.849,6.849,0,0,1-.386,2.275H8.645a6.905,6.905,0,0,1,0-4.551H21.693A6.85,6.85,0,0,1,22.079,56.21Z" fill="#13bf6d"/>
              <path id="Path_1263514" data-name="Path 1263514" d="M10.567,54.609a4.861,4.861,0,0,0,0,3.207,4.9,4.9,0,0,0,.291.669H8.647a6.884,6.884,0,0,1,0-4.552h2.215A4.829,4.829,0,0,0,10.567,54.609Z" fill="#139c6e"/>
              <path id="Path_1263515" data-name="Path 1263515" d="M22.078,56.21a6.855,6.855,0,0,1-.384,2.276H19.476a4.856,4.856,0,0,0,0-4.552h2.218a6.868,6.868,0,0,1,.384,2.276Z" fill="#139c6e"/>
              <path id="Path_1263516" data-name="Path 1263516" d="M64.222,51.325a6.847,6.847,0,0,1,1.336,1.882l-1.566,1.566L57.9,60.863l-1.569,1.569a6.9,6.9,0,0,1-3.218-3.218l1.565-1.566,6.092-6.091,1.569-1.569A6.833,6.833,0,0,1,64.222,51.325Z" fill="#13bf6d"/>
              <path id="Path_1263517" data-name="Path 1263517" d="M57.9,60.863l-1.569,1.569A6.829,6.829,0,0,1,54.449,61.1a6.909,6.909,0,0,1-1.336-1.883l1.567-1.565A4.861,4.861,0,0,0,57.9,60.863Z" fill="#139c6e"/>
              <path id="Path_1263518" data-name="Path 1263518" d="M65.558,53.206l-1.566,1.566a4.873,4.873,0,0,0-3.222-3.216l1.569-1.569a6.909,6.909,0,0,1,1.883,1.336A6.829,6.829,0,0,1,65.558,53.206Z" fill="#139c6e"/>
              <g id="Group_1204554" data-name="Group 1204554">
                <path id="Path_1263519" data-name="Path 1263519" d="M44.334,49.953H30.17A1.455,1.455,0,0,1,28.715,48.5V43.926H45.789V48.5a1.455,1.455,0,0,1-1.455,1.455Z" fill="#13bf6d"/>
              </g>
            </g>
          </g>
          <circle id="Ellipse_12768" data-name="Ellipse 12768" cx="12.529" cy="12.529" r="12.529" transform="translate(24.723 6.25)" fill="#13bf6d"/>
          <g id="Group_1204557" data-name="Group 1204557">
            <path id="Path_1263520" data-name="Path 1263520" d="M15.035,18.043c-1.085-.357-1.933-.588-2.5-3.033a.775.775,0,0,0-1.508,0c-.555,2.39-1.329,2.646-2.5,3.033a.775.775,0,0,0,0,1.47c1.946.643,2.166,1.594,2.5,3.033a.774.774,0,0,0,1.508,0c.554-2.39,1.37-2.66,2.5-3.033A.775.775,0,0,0,15.035,18.043Z"/>
            <path id="Path_1263521" data-name="Path 1263521" d="M12.943,18.785A3.785,3.785,0,0,0,11.8,20.077,4,4,0,0,0,10.586,18.8a3.875,3.875,0,0,0,1.2-1.35A3.926,3.926,0,0,0,12.943,18.785Z" fill="#f0c020"/>
          </g>
          <g id="Group_1204558" data-name="Group 1204558">
            <path id="Path_1263522" data-name="Path 1263522" d="M65.978,18.043c-1.085-.357-1.933-.588-2.5-3.033a.775.775,0,0,0-1.508,0c-.555,2.39-1.329,2.646-2.5,3.033a.775.775,0,0,0,0,1.47c1.946.643,2.166,1.594,2.5,3.033a.774.774,0,0,0,1.508,0c.554-2.39,1.37-2.66,2.5-3.033A.775.775,0,0,0,65.978,18.043Z"/>
            <path id="Path_1263523" data-name="Path 1263523" d="M63.885,18.785a3.785,3.785,0,0,0-1.147,1.292A4,4,0,0,0,61.528,18.8a3.875,3.875,0,0,0,1.2-1.35,3.926,3.926,0,0,0,1.158,1.339Z" fill="#f0c020"/>
          </g>
        </g>
        <g id="Layer_4">
          <g id="Group_1204559" data-name="Group 1204559">
            <path id="Path_1263524" data-name="Path 1263524" d="M70.285,70.723a.727.727,0,0,1-.728-.728V50.619a.728.728,0,1,1,1.455,0V69.995A.727.727,0,0,1,70.285,70.723Zm0-22.286a.727.727,0,0,1-.728-.728v-.873a.728.728,0,1,1,1.455,0v.873A.727.727,0,0,1,70.285,48.436Z" fill="#f8e5b0"/>
          </g>
          <g id="Group_1204560" data-name="Group 1204560">
            <path id="Path_1263525" data-name="Path 1263525" d="M15.169,57.052a.727.727,0,0,1-.728-.728V56.1a.728.728,0,0,1,1.455,0v.228A.727.727,0,0,1,15.169,57.052Z" fill="#76ffbb"/>
          </g>
          <g id="Group_1204561" data-name="Group 1204561">
            <path id="Path_1263526" data-name="Path 1263526" d="M59.417,57.018a.726.726,0,0,1-.515-.213l-.161-.161a.727.727,0,0,1,1.029-1.029l.161.161a.727.727,0,0,1-.514,1.242Z" fill="#76ffbb"/>
          </g>
          <g id="Group_1204562" data-name="Group 1204562">
            <path id="Path_1263527" data-name="Path 1263527" d="M37.252,47.818a.727.727,0,0,1-.728-.728v-.3a.728.728,0,1,1,1.455,0v.3A.727.727,0,0,1,37.252,47.818Z" fill="#76ffbb"/>
          </g>
          <g id="Group_1204563" data-name="Group 1204563">
            <path id="Path_1263528" data-name="Path 1263528" d="M37.252,29.087a10.085,10.085,0,0,1-3.757-.721.728.728,0,0,1,.54-1.352A8.641,8.641,0,0,0,43.748,13.3a.727.727,0,1,1,1.093-.96,10.09,10.09,0,0,1-7.589,16.746Zm-5.978-2.151a.725.725,0,0,1-.465-.168c-.24-.2-.473-.412-.695-.633a.728.728,0,0,1,1.029-1.029c.189.19.39.373.6.543a.727.727,0,0,1-.465,1.287Z" fill="#76ffbb"/>
          </g>
        </g>
        <g id="Layer_2">
          <path id="Path_1263529" data-name="Path 1263529" d="M4.22,73.631H70.285a3.643,3.643,0,0,0,3.638-3.638V46.836A3.643,3.643,0,0,0,70.285,43.2H4.22A3.643,3.643,0,0,0,.582,46.836v9.4a.728.728,0,0,0,1.455,0v-9.4A2.191,2.191,0,0,1,4.22,44.653H27.988V48.5a2.185,2.185,0,0,0,2.183,2.183H44.334A2.185,2.185,0,0,0,46.517,48.5V44.653H70.285a2.193,2.193,0,0,1,2.183,2.183V69.994a2.189,2.189,0,0,1-2.183,2.183H66.792V69.717a.728.728,0,1,0-1.455,0v2.459H59.694V67.965a.728.728,0,1,0-1.455,0v4.211H52.6V69.714a.728.728,0,0,0-1.455,0v2.462H45.494V67.965a.728.728,0,1,0-1.455,0v4.211H38.4V69.717a.728.728,0,1,0-1.455,0v2.459H31.3V67.965a.728.728,0,1,0-1.455,0v4.211H24.2V69.714a.728.728,0,0,0-1.455,0v2.462H17.1V67.965a.728.728,0,1,0-1.455,0v4.211H10V69.717a.728.728,0,1,0-1.455,0v2.459H4.22a2.189,2.189,0,0,1-2.183-2.183V62.054a.728.728,0,0,0-1.455,0v7.939A3.643,3.643,0,0,0,4.22,73.631ZM40.369,44.653v4.572H34.124V44.653ZM29.443,48.5V44.653h3.226v4.572h-2.5A.728.728,0,0,1,29.443,48.5Zm15.619,0a.728.728,0,0,1-.728.728h-2.51V44.653h3.237Z"/>
          <circle id="Ellipse_12769" data-name="Ellipse 12769" cx="0.728" cy="0.728" r="0.728" transform="translate(0.582 58.416)"/>
          <path id="Path_1263530" data-name="Path 1263530" d="M15.169,63.847A7.637,7.637,0,1,0,7.532,56.21,7.641,7.641,0,0,0,15.169,63.847Zm0-1.455a6.184,6.184,0,0,1-5.4-3.179h10.8A6.184,6.184,0,0,1,15.169,62.392Zm-5.985-7.73H11.5v3.1H9.184a6.293,6.293,0,0,1,0-3.1Zm8.2,0v3.1h-4.43v-3.1Zm3.774,0,0,.006,0,.014a6.266,6.266,0,0,1,0,3.076H18.833v-3.1Zm-5.985-4.634a6.184,6.184,0,0,1,5.4,3.179H9.769A6.185,6.185,0,0,1,15.169,50.028Z"/>
          <path id="Path_1263531" data-name="Path 1263531" d="M61.539,61.987a.728.728,0,1,0,.937.422A.741.741,0,0,0,61.539,61.987Z"/>
          <path id="Path_1263532" data-name="Path 1263532" d="M63.707,60.581a.723.723,0,0,0,0,1.03l.012.012a.746.746,0,0,0,1.016-.012,7.638,7.638,0,0,0,0-10.8h0A7.637,7.637,0,1,0,58.9,63.836h.044a.728.728,0,0,0,.04-1.455,6.06,6.06,0,0,1-1.341-.229l7.637-7.637A6.164,6.164,0,0,1,63.707,60.581Zm-.685-5.868-2.189-2.189,1.641-1.641a6.309,6.309,0,0,1,2.189,2.189Zm-4.16,4.16-2.189-2.189L59.8,53.553l2.189,2.189Zm-2.667,2.661-.013-.008a6.208,6.208,0,0,1-2.172-2.18l1.633-1.633,2.188,2.19L56.2,61.537Zm-1.23-9.7a6.173,6.173,0,0,1,6.069-1.572l-7.64,7.64A6.161,6.161,0,0,1,54.964,51.839Z"/>
          <path id="Path_1263533" data-name="Path 1263533" d="M44.767,60.619a.728.728,0,0,0,0-1.455h-15.5a.728.728,0,1,0,0,1.455Z"/>
          <path id="Path_1263534" data-name="Path 1263534" d="M37.252,32.035A13.257,13.257,0,1,0,24,18.779,13.272,13.272,0,0,0,37.252,32.035ZM25.475,19.506h4.742a7.086,7.086,0,0,0,6.308,6.308v4.742A11.816,11.816,0,0,1,25.475,19.506Zm7.211-1.455h-1a5.622,5.622,0,0,1,4.838-4.837v1a.728.728,0,1,0,1.455,0v-1a5.622,5.622,0,0,1,4.838,4.837h-1a.728.728,0,0,0,0,1.455h1a5.622,5.622,0,0,1-4.838,4.837v-1a.728.728,0,1,0-1.455,0v1a5.622,5.622,0,0,1-4.838-4.837h1a.728.728,0,1,0,0-1.455Zm5.294,12.5V25.814a7.086,7.086,0,0,0,6.308-6.308H49.03A11.817,11.817,0,0,1,37.98,30.556Zm11.049-12.5H44.288a7.086,7.086,0,0,0-6.308-6.308V7A11.816,11.816,0,0,1,49.029,18.051ZM36.525,7v4.742a7.086,7.086,0,0,0-6.308,6.308H25.475A11.816,11.816,0,0,1,36.525,7Z"/>
          <path id="Path_1263535" data-name="Path 1263535" d="M23.658,8.111a.748.748,0,0,0-1.016.157A18.124,18.124,0,0,0,34.749,36.947L36.592,40.9a.731.731,0,0,0,1.321,0l1.842-3.958A18.125,18.125,0,1,0,26.973,4.066a.729.729,0,0,0-.186,1.013.748.748,0,0,0,1.013.186A16.67,16.67,0,1,1,39.182,35.553a.732.732,0,0,0-.576.416l-1.353,2.9-1.353-2.9a.741.741,0,0,0-.576-.416A16.669,16.669,0,0,1,23.816,9.13a.733.733,0,0,0-.157-1.019Z"/>
          <path id="Path_1263536" data-name="Path 1263536" d="M25.646,7.031A.73.73,0,0,0,25.66,6a.743.743,0,0,0-1.027-.015.728.728,0,1,0,1.013,1.045Z"/>
          <path id="Path_1263537" data-name="Path 1263537" d="M36.217,20.36a.727.727,0,0,0,1.029,0l2.133-2.134A.728.728,0,0,0,38.35,17.2l-1.619,1.619-.577-.577a.727.727,0,0,0-1.029,1.029Z"/>
        </g>
      </g>
    </g>
  </g>
</svg>
