<svg xmlns="http://www.w3.org/2000/svg" xmlns:xlink="http://www.w3.org/1999/xlink" width="113.842" height="101.604" viewBox="0 0 113.842 101.604">
  <defs>
    <clipPath id="clip-path">
      <rect id="Rectangle_410858" data-name="Rectangle 410858" width="85" height="84" transform="translate(-1818.788 -8485.676)" fill="#fff" stroke="#707070" stroke-width="1"/>
    </clipPath>
  </defs>
  <g id="Group_1203825" data-name="Group 1203825" transform="translate(1829.058 8496.403)">
    <g id="Group_1203677" data-name="Group 1203677" transform="translate(-1829.058 -8496.403)">
      <ellipse id="Ellipse_12452" data-name="Ellipse 12452" cx="28.658" cy="28.658" rx="28.658" ry="28.658" transform="translate(56.527 44.289)" fill="#ffc94a"/>
      <ellipse id="Ellipse_12453" data-name="Ellipse 12453" cx="20.842" cy="20.842" rx="20.842" ry="20.842" fill="#ffc94a"/>
    </g>
    <g id="Mask_Group_1099399" data-name="Mask Group 1099399" clip-path="url(#clip-path)">
      <g id="cone_2597385" transform="translate(-1827.094 -8494.482)">
        <circle id="Ellipse_12499" data-name="Ellipse 12499" cx="29.129" cy="29.129" r="29.129" transform="translate(30.484 15.581)" fill="#e5efef"/>
        <path id="Path_1262591" data-name="Path 1262591" d="M21,34.548a1.355,1.355,0,0,1-1.355-1.355v-2.71a1.355,1.355,0,1,1,2.71,0v2.71A1.355,1.355,0,0,1,21,34.548Z" fill="#4c241d"/>
        <path id="Path_1262592" data-name="Path 1262592" d="M21,42.677a1.355,1.355,0,0,1-1.355-1.355v-2.71a1.355,1.355,0,1,1,2.71,0v2.71A1.355,1.355,0,0,1,21,42.677Z" fill="#4c241d"/>
        <path id="Path_1262593" data-name="Path 1262593" d="M18.29,37.258h-2.71a1.355,1.355,0,1,1,0-2.71h2.71a1.355,1.355,0,1,1,0,2.71Z" fill="#4c241d"/>
        <path id="Path_1262594" data-name="Path 1262594" d="M26.419,37.258H23.71a1.355,1.355,0,1,1,0-2.71h2.71a1.355,1.355,0,1,1,0,2.71Z" fill="#4c241d"/>
        <circle id="Ellipse_12500" data-name="Ellipse 12500" cx="1.448" cy="1.448" r="1.448" transform="translate(29.576 49.344)" fill="#4c241d"/>
        <g id="Group_1203801" data-name="Group 1203801">
          <path id="Path_1262595" data-name="Path 1262595" d="M49.452,69.774v4.065H63V87.387h4.065V69.774Z" fill="#fc8c29"/>
          <path id="Path_1262596" data-name="Path 1262596" d="M67.065,88.742H63a1.355,1.355,0,0,1-1.355-1.355V75.194H49.452A1.355,1.355,0,0,1,48.1,73.839V69.774a1.355,1.355,0,0,1,1.355-1.355H67.065a1.355,1.355,0,0,1,1.355,1.355V87.387A1.355,1.355,0,0,1,67.065,88.742Zm-2.71-2.71H65.71v-14.9h-14.9v1.355H63a1.355,1.355,0,0,1,1.355,1.355Z" fill="#4c241d"/>
        </g>
        <g id="Group_1203802" data-name="Group 1203802">
          <path id="Path_1262597" data-name="Path 1262597" d="M48.041,81.155,33.194,12.871H65.71L50.863,81.155A1.458,1.458,0,0,1,48.041,81.155Z" fill="#9dc1e4"/>
          <path id="Path_1262598" data-name="Path 1262598" d="M49.452,83.6a2.735,2.735,0,0,1-2.732-2.145.075.075,0,0,1,0-.012L31.87,13.159a1.355,1.355,0,0,1,1.324-1.643H65.71a1.354,1.354,0,0,1,1.324,1.642L52.186,81.443A2.738,2.738,0,0,1,49.452,83.6Zm-.089-2.742a.142.142,0,0,0,.007.021.222.222,0,0,0,.173-.009L64.029,14.226H34.875Z" fill="#4c241d"/>
        </g>
        <g id="Group_1203803" data-name="Group 1203803">
          <ellipse id="Ellipse_12501" data-name="Ellipse 12501" cx="16.258" cy="2.71" rx="16.258" ry="2.71" transform="translate(33.194 10.161)" fill="#9dc1e4"/>
          <path id="Path_1262599" data-name="Path 1262599" d="M49.452,16.935c-6.578,0-17.613-.528-17.613-4.065S42.874,8.806,49.452,8.806s17.613.528,17.613,4.065S56.029,16.935,49.452,16.935ZM35.535,12.871c2.088.63,6.779,1.355,13.917,1.355s11.829-.725,13.917-1.355c-2.088-.63-6.779-1.355-13.917-1.355S37.623,12.241,35.535,12.871Zm29,.511h.013Z" fill="#4c241d"/>
        </g>
        <g id="Group_1203804" data-name="Group 1203804">
          <path id="Path_1262600" data-name="Path 1262600" d="M49.452,71.806a2.032,2.032,0,0,1-2.032,2.032H35.9V87.387H31.839V69.774H47.419A2.032,2.032,0,0,1,49.452,71.806Z" fill="#fc8c29"/>
          <path id="Path_1262601" data-name="Path 1262601" d="M35.9,88.742H31.839a1.355,1.355,0,0,1-1.355-1.355V69.774a1.355,1.355,0,0,1,1.355-1.355H47.419a3.387,3.387,0,1,1,0,6.774H37.258V87.387A1.355,1.355,0,0,1,35.9,88.742Zm-2.71-2.71h1.355V73.839A1.355,1.355,0,0,1,35.9,72.484H47.419a.677.677,0,1,0,0-1.355H33.194Z" fill="#4c241d"/>
        </g>
        <g id="Group_1203805" data-name="Group 1203805">
          <path id="Path_1262602" data-name="Path 1262602" d="M84.677,91.452H14.226a4.065,4.065,0,0,1,4.065-4.065H80.613A4.065,4.065,0,0,1,84.677,91.452Z" fill="#6b4f5b"/>
          <path id="Path_1262603" data-name="Path 1262603" d="M84.677,92.806H14.226a1.355,1.355,0,0,1-1.355-1.355,5.426,5.426,0,0,1,5.419-5.419H80.613a5.426,5.426,0,0,1,5.419,5.419A1.355,1.355,0,0,1,84.677,92.806ZM15.944,90.1H82.959a2.711,2.711,0,0,0-2.346-1.355H18.29A2.711,2.711,0,0,0,15.944,90.1Z" fill="#4c241d"/>
        </g>
        <g id="Group_1203806" data-name="Group 1203806">
          <path id="Path_1262604" data-name="Path 1262604" d="M63,25.065H54.871a1.355,1.355,0,1,1,0-2.71H63a1.355,1.355,0,1,1,0,2.71Z" fill="#4c241d"/>
          <path id="Path_1262605" data-name="Path 1262605" d="M61.645,30.484H57.581a1.355,1.355,0,1,1,0-2.71h4.065a1.355,1.355,0,1,1,0,2.71Z" fill="#4c241d"/>
          <path id="Path_1262606" data-name="Path 1262606" d="M60.6,35.9H52.47a1.355,1.355,0,0,1,0-2.71H60.6a1.355,1.355,0,1,1,0,2.71Z" fill="#4c241d"/>
          <path id="Path_1262607" data-name="Path 1262607" d="M59.244,41.323H55.179a1.355,1.355,0,0,1,0-2.71h4.065a1.355,1.355,0,0,1,0,2.71Z" fill="#4c241d"/>
          <path id="Path_1262608" data-name="Path 1262608" d="M58.162,46.742H50.033a1.355,1.355,0,1,1,0-2.71h8.129a1.355,1.355,0,0,1,0,2.71Z" fill="#4c241d"/>
          <path id="Path_1262609" data-name="Path 1262609" d="M56.807,52.161H52.742a1.355,1.355,0,1,1,0-2.71h4.065a1.355,1.355,0,1,1,0,2.71Z" fill="#4c241d"/>
        </g>
        <path id="Path_1262610" data-name="Path 1262610" d="M41.321,33.194A1.355,1.355,0,0,1,40,32.132l-2.71-12.194a1.355,1.355,0,0,1,2.645-.587l2.71,12.194a1.356,1.356,0,0,1-1.324,1.648Z" fill="#fff"/>
      </g>
    </g>
  </g>
</svg>
