<svg xmlns="http://www.w3.org/2000/svg" xmlns:xlink="http://www.w3.org/1999/xlink" width="76.345" height="76.345" viewBox="0 0 76.345 76.345">
  <defs>
    <clipPath id="clip-path">
      <path id="path7563" d="M0-682.665H53.653v53.653H0Z" transform="translate(0 682.665)"/>
    </clipPath>
  </defs>
  <g id="Group_1200587" data-name="Group 1200587" transform="translate(-1016.006 -3113.379)">
    <g id="Group_1200255" data-name="Group 1200255" transform="translate(-5.961 20.724)">
      <g id="Group_1187152" data-name="Group 1187152">
        <g id="Group_1185946" data-name="Group 1185946" transform="translate(-3.07)">
          <g id="Group_1184280" data-name="Group 1184280">
            <g id="Group_1182168" data-name="Group 1182168">
              <g id="Group_1178877" data-name="Group 1178877">
                <g id="Group_1111311" data-name="Group 1111311">
                  <g id="Group_1098742" data-name="Group 1098742" transform="translate(1025.482 3093.101)">
                    <g id="Rectangle_400898" data-name="Rectangle 400898" transform="translate(-0.445 -0.445)" fill="#5cbddb" stroke="#2d5d6d" stroke-width="1" opacity="0.859">
                      <rect width="76.345" height="76.345" rx="38.172" stroke="none"/>
                      <rect x="0.5" y="0.5" width="75.345" height="75.345" rx="37.672" fill="none"/>
                    </g>
                    <g id="Rectangle_400907" data-name="Rectangle 400907" transform="translate(-0.446 -0.445)" fill="none" stroke="#2d5d6d" stroke-width="1">
                      <rect width="76.345" height="76.345" rx="38.172" stroke="none"/>
                      <rect x="0.5" y="0.5" width="75.345" height="75.345" rx="37.672" fill="none"/>
                    </g>
                  </g>
                </g>
              </g>
            </g>
          </g>
        </g>
      </g>
    </g>
    <g id="g7557" transform="translate(1030.137 3810.176)">
      <g id="g7559" transform="translate(-2.786 -685.451)">
        <g id="g7561" clip-path="url(#clip-path)">
          <g id="g7567" transform="translate(10.973 4.378)">
            <path id="path7569" d="M-400.071-159.9c0,5.96-7.937,7.942-17.254,7.942s-16.871-4.831-16.871-10.791,7.553-10.791,16.871-10.791,17.254,7.68,17.254,13.639" transform="translate(434.196 173.54)" fill="#e2e2e2"/>
          </g>
          <g id="g7571" transform="translate(10.973 4.378)">
            <path id="path7573" d="M-242.614-5.017a17.494,17.494,0,0,0-3.824-.428c-9.318,0-16.871,4.831-16.871,10.791,0,3.418,2.485,6.464,6.362,8.441,1.087-9.433,6.886-16.972,14.333-18.8" transform="translate(263.309 5.445)" fill="#cecece"/>
          </g>
          <g id="g7575" transform="translate(10.973 27.693)">
            <path id="path7577" d="M-400.071-93.115c0-5.96-7.937-7.942-17.254-7.942S-434.2-96.226-434.2-90.266s7.553,10.791,16.871,10.791,17.254-7.68,17.254-13.639" transform="translate(434.196 101.057)" fill="#e2e2e2"/>
          </g>
          <g id="g7579" transform="translate(10.973 30.043)">
            <path id="path7581" d="M-74.581,0c-3.877,1.977-6.362,5.023-6.362,8.441,0,5.96,7.553,10.791,16.871,10.791a17.487,17.487,0,0,0,3.824-.428C-67.7,16.972-73.493,9.433-74.581,0" transform="translate(80.942)" fill="#cecece"/>
          </g>
          <g id="g7583" transform="translate(0.786 18.377)">
            <path id="path7585" d="M0-36.7V-26.46A3.124,3.124,0,0,0,5.276-24.2l7.771-7.384L5.276-38.963A3.124,3.124,0,0,0,0-36.7" transform="translate(0 39.828)" fill="#f4f4f4"/>
          </g>
          <g id="g7587" transform="translate(2.921 20.186)">
            <path id="path7589" d="M-48.28-151.178l6.793-6.455-6.777-6.44a17.515,17.515,0,0,0-3.331,3.732,5.013,5.013,0,0,0,0,5.444,17.5,17.5,0,0,0,3.315,3.719" transform="translate(52.399 164.073)" fill="#e2e2e2"/>
          </g>
          <g id="g7591" transform="translate(6.053 12.148)">
            <path id="path7593" d="M-423.4-305.983l.006-23.241a29.532,29.532,0,0,0-12.714-2.859c-10.219,0-18.969,5.226-22.6,11.458a6.078,6.078,0,0,0,0,6.039c3.635,6.232,12.385,11.458,22.6,11.458a29.532,29.532,0,0,0,12.708-2.856" transform="translate(459.511 332.083)" fill="#c6c6c6"/>
          </g>
          <g id="g7595" transform="translate(22.199 24.446)">
            <path id="path7597" d="M-89.586-9.253a3.059,3.059,0,0,0-2.924-.662,6.609,6.609,0,0,0-4.718,6.332A6.609,6.609,0,0,0-92.51,2.75a3.059,3.059,0,0,0,2.924-.662l4.108-3.713a2.639,2.639,0,0,0,0-3.916Z" transform="translate(97.228 10.042)" fill="#f4f4f4"/>
          </g>
          <g id="g7599" transform="translate(38.629 15.007)">
            <path id="path7601" d="M-41.563,0a19.771,19.771,0,0,0-3.545,11.625,19.775,19.775,0,0,0,3.539,11.616,22.736,22.736,0,0,0,9.9-8.6,6.078,6.078,0,0,0,0-6.039A22.734,22.734,0,0,0-41.563,0" transform="translate(45.108)" fill="#f4f4f4"/>
          </g>
          <g id="g7603" transform="translate(22.199 24.447)">
            <path id="path7605" d="M-49.072-75.727a6.6,6.6,0,0,1,3.359-5.753,3.058,3.058,0,0,0-2.827-.58,6.609,6.609,0,0,0-4.718,6.332,6.609,6.609,0,0,0,4.718,6.332,3.058,3.058,0,0,0,2.827-.58,6.6,6.6,0,0,1-3.359-5.753" transform="translate(53.257 82.186)" fill="#e2e2e2"/>
          </g>
          <g id="g7607" transform="translate(6.053 13.467)">
            <path id="path7609" d="M-130.084-156.623a26.147,26.147,0,0,1,3.541-13.36c-6.274,1.936-11.3,5.792-13.834,10.139a6.078,6.078,0,0,0,0,6.039c2.5,4.281,7.408,8.087,13.55,10.051a26.274,26.274,0,0,1-3.258-12.87" transform="translate(141.18 169.982)" fill="#a8a8a8"/>
          </g>
          <g id="g7611" transform="translate(18.804 4.378)">
            <path id="path7613" d="M0-19.671a24.164,24.164,0,0,1,9.039-1.678c8.444,0,15.754,6.307,17.05,11.925" transform="translate(0 21.349)" fill="none" stroke="#000" stroke-linecap="round" stroke-linejoin="round" stroke-miterlimit="10" stroke-width="1"/>
          </g>
          <g id="g7615" transform="translate(10.973 7.484)">
            <path id="path7617" d="M-7.306-124.281a7.229,7.229,0,0,1-.623-2.916c0-3.008,1.924-5.728,5.027-7.685" transform="translate(7.929 134.882)" fill="none" stroke="#000" stroke-linecap="round" stroke-linejoin="round" stroke-miterlimit="10" stroke-width="1"/>
          </g>
          <g id="g7619" transform="translate(10.973 35.256)">
            <path id="path7621" d="M-9,0a7.3,7.3,0,0,0-.768,3.228c0,5.96,7.553,10.791,16.871,10.791,8.614,0,16.047-6.563,17.121-12.263" transform="translate(9.767)" fill="none" stroke="#000" stroke-linecap="round" stroke-linejoin="round" stroke-miterlimit="10" stroke-width="1"/>
          </g>
          <g id="g7623" transform="translate(0.786 18.377)">
            <path id="path7625" d="M-87.666-34.675l-2.2-2.092A3.124,3.124,0,0,0-95.144-34.5v10.238A3.124,3.124,0,0,0-89.868-22l2.326-2.21" transform="translate(95.144 37.633)" fill="none" stroke="#000" stroke-linecap="round" stroke-linejoin="round" stroke-miterlimit="10" stroke-width="1"/>
          </g>
          <g id="g7627" transform="translate(6.053 12.148)">
            <path id="path7629" d="M-339.706-333.326c7.751-1.472,14.081-5.871,17.035-10.935a6.078,6.078,0,0,0,0-6.039c-3.635-6.232-12.385-11.458-22.6-11.458s-18.969,5.226-22.6,11.458a6.078,6.078,0,0,0,0,6.039c3.635,6.232,12.385,11.458,22.6,11.458q1.276,0,2.52-.106" transform="translate(368.682 361.758)" fill="none" stroke="#000" stroke-linecap="round" stroke-linejoin="round" stroke-miterlimit="10" stroke-width="1"/>
          </g>
          <g id="g7631" transform="translate(22.199 24.446)">
            <path id="path7633" d="M-89.586-9.253a3.059,3.059,0,0,0-2.924-.662,6.609,6.609,0,0,0-4.718,6.332A6.609,6.609,0,0,0-92.51,2.75a3.059,3.059,0,0,0,2.924-.662l4.108-3.713a2.639,2.639,0,0,0,0-3.916Z" transform="translate(97.228 10.042)" fill="none" stroke="#000" stroke-linecap="round" stroke-linejoin="round" stroke-miterlimit="10" stroke-width="1"/>
          </g>
          <g id="g7635" transform="translate(38.629 15.007)">
            <path id="path7637" d="M-41.563,0a19.771,19.771,0,0,0-3.545,11.625,19.775,19.775,0,0,0,3.539,11.616" transform="translate(45.108)" fill="none" stroke="#000" stroke-linecap="round" stroke-linejoin="round" stroke-miterlimit="10" stroke-width="1"/>
          </g>
          <g id="g7647" transform="translate(28.8 32.479)">
            <path id="path7649" d="M0-4.769l1.518-.407" transform="translate(0 5.176)" fill="none" stroke="#000" stroke-linecap="round" stroke-linejoin="round" stroke-miterlimit="10" stroke-width="1"/>
          </g>
          <g id="g7651" transform="translate(28.795 28.927)">
            <path id="path7653" d="M0,0,1.524.408" fill="none" stroke="#000" stroke-linecap="round" stroke-linejoin="round" stroke-miterlimit="10" stroke-width="1"/>
          </g>
        </g>
      </g>
    </g>
  </g>
</svg>
