<svg xmlns="http://www.w3.org/2000/svg" xmlns:xlink="http://www.w3.org/1999/xlink" width="113.842" height="101.604" viewBox="0 0 113.842 101.604">
  <defs>
    <clipPath id="clip-path">
      <rect id="Rectangle_410907" data-name="Rectangle 410907" width="85" height="84" transform="translate(1607.968 -9221.631)" fill="#fff" stroke="#707070" stroke-width="1"/>
    </clipPath>
  </defs>
  <g id="Group_1203856" data-name="Group 1203856" transform="translate(-1597.698 9232.358)">
    <g id="Group_1203708" data-name="Group 1203708" transform="translate(1597.698 -9232.358)">
      <ellipse id="Ellipse_12452" data-name="Ellipse 12452" cx="28.658" cy="28.658" rx="28.658" ry="28.658" transform="translate(56.527 44.289)" fill="#c0d85c"/>
      <ellipse id="Ellipse_12453" data-name="Ellipse 12453" cx="20.842" cy="20.842" rx="20.842" ry="20.842" fill="#c0d85c"/>
    </g>
    <g id="Mask_Group_1099405" data-name="Mask Group 1099405" clip-path="url(#clip-path)">
      <g id="inspection_17972853" transform="translate(1607.464 -9221.818)">
        <g id="Group_1203836" data-name="Group 1203836">
          <path id="Path_1262657" data-name="Path 1262657" d="M65.785,38.358l.634,2.419,2.9.777,1.761-1.78a.681.681,0,0,1,.834-.112l3.479,2.012a.681.681,0,0,1,.319.778l-.66,2.412,2.122,2.122,2.412-.66a.681.681,0,0,1,.778.319l2.012,3.479a.681.681,0,0,1-.112.834l-1.78,1.761.777,2.9,2.419.634a.681.681,0,0,1,.514.666v4.019a.681.681,0,0,1-.514.666l-2.419.634-.777,2.9,1.78,1.761a.681.681,0,0,1,.112.834l-2.012,3.479a.681.681,0,0,1-.778.319l-2.412-.66L75.05,72.988l.66,2.412a.681.681,0,0,1-.319.778L71.913,78.19a.681.681,0,0,1-.834-.112L69.318,76.3l-2.9.777-.634,2.419a.681.681,0,0,1-.666.514H61.1a.681.681,0,0,1-.666-.514L59.8,77.075,56.9,76.3l-1.761,1.78a.681.681,0,0,1-.834.112l-3.479-2.012a.681.681,0,0,1-.319-.778l.66-2.412-2.122-2.122-2.412.66a.681.681,0,0,1-.778-.319l-2.012-3.479a.681.681,0,0,1,.112-.834l1.78-1.761-.777-2.9L42.542,61.6a.681.681,0,0,1-.514-.666V56.916a.681.681,0,0,1,.514-.666l2.419-.634.777-2.9-1.78-1.761a.681.681,0,0,1-.112-.834l2.012-3.479a.681.681,0,0,1,.778-.319l2.412.66,2.122-2.122-.66-2.412a.681.681,0,0,1,.319-.778l3.479-2.012a.681.681,0,0,1,.834.112l1.761,1.78,2.9-.777.634-2.419a.681.681,0,0,1,.666-.514h4.019a.681.681,0,0,1,.666.514Z" fill="#75e075" fill-rule="evenodd"/>
          <path id="Path_1262658" data-name="Path 1262658" d="M70.98,39.872l3.355,1.94a.681.681,0,0,1,.319.778l-.682,2.492,2.182,2.182,2.772-.759a.33.33,0,0,1,.139.139l2.012,3.479a.681.681,0,0,1-.112.834l-1.78,1.761.777,2.9,2.419.634a.681.681,0,0,1,.514.666v4.02a.681.681,0,0,1-.514.666l-2.419.634-.777,2.9,1.78,1.761a.681.681,0,0,1,.112.834l-2.012,3.479a.331.331,0,0,1-.139.139l-2.772-.759L73.972,72.77l.682,2.492a.681.681,0,0,1-.319.778L70.98,77.98l-2.169-2.193-3.319.889-.739,2.817a.681.681,0,0,1-.663.514H61.1a.681.681,0,0,1-.666-.514L59.8,77.075,56.165,76.1l-1.991,2.013-3.346-1.935a.681.681,0,0,1-.319-.778l.661-2.412-2.122-2.122-2.412.66a.681.681,0,0,1-.778-.319L43.845,67.73a.681.681,0,0,1,.112-.834l1.78-1.761-.777-2.9L42.542,61.6a.681.681,0,0,1-.514-.666v-4.02a.681.681,0,0,1,.514-.666l2.419-.634.777-2.9-1.78-1.761a.681.681,0,0,1-.112-.834l2.012-3.479a.681.681,0,0,1,.778-.319l2.412.66,2.122-2.122-.661-2.412a.681.681,0,0,1,.319-.778l3.346-1.935,1.991,2.013,3.635-.974.634-2.419a.681.681,0,0,1,.666-.514h2.988a.681.681,0,0,1,.666.514l.739,2.817,3.319.889,2.169-2.193Z" fill="#adffad" fill-rule="evenodd"/>
          <path id="Path_1262659" data-name="Path 1262659" d="M75,9.83l1.625-1.09a.655.655,0,0,1,.835.081l2.515,2.515a.655.655,0,0,1,.081.835L78.971,13.8l1.382,3.336,1.919.378a.655.655,0,0,1,.533.648v3.557a.656.656,0,0,1-.533.648l-1.919.378L78.971,26.08,80.06,27.7a.655.655,0,0,1-.081.835l-2.515,2.515a.656.656,0,0,1-.835.082L75,30.047l-3.336,1.382-.378,1.92a.655.655,0,0,1-.648.533H67.084a.656.656,0,0,1-.648-.533l-.378-1.92-3.336-1.382L61.1,31.137a.655.655,0,0,1-.835-.082L57.746,28.54a.655.655,0,0,1-.081-.835l1.09-1.625-1.382-3.336-1.919-.378a.655.655,0,0,1-.533-.648V18.16a.655.655,0,0,1,.533-.648l1.919-.378L58.754,13.8l-1.09-1.625a.655.655,0,0,1,.081-.835l2.515-2.515a.655.655,0,0,1,.835-.081l1.625,1.09,3.336-1.382.378-1.919A.655.655,0,0,1,67.084,6h3.557a.656.656,0,0,1,.648.533l.378,1.919L75,9.831Z" fill="#fdc72e" fill-rule="evenodd"/>
          <path id="Path_1262660" data-name="Path 1262660" d="M75,9.83l1.179-.791,2.682,2.681L77.473,13.8l1.382,3.336,2.452.483V22.26l-2.452.483L77.473,26.08l1.392,2.076-2.682,2.681-2.393-1.6-3.471,1.438-.633,3.21h-2.6a.656.656,0,0,1-.648-.533l-.378-1.92-4.578-1.9-1.641,1.1L57.746,28.54a.655.655,0,0,1-.081-.835l1.09-1.625-1.382-3.336-1.919-.378a.655.655,0,0,1-.533-.648V18.16a.656.656,0,0,1,.533-.648l1.919-.378L58.754,13.8l-1.09-1.625a.655.655,0,0,1,.081-.835l2.093-2.093,1.641,1.1,1.242-.515,3.336-1.382.378-1.919A.656.656,0,0,1,67.084,6h2.6l.633,3.21,3.471,1.438L75,9.83Z" fill="#ffeb87" fill-rule="evenodd"/>
        </g>
        <circle id="Ellipse_12515" data-name="Ellipse 12515" cx="7.456" cy="7.456" r="7.456" transform="matrix(0.161, -0.987, 0.987, 0.161, 59.517, 26.084)" fill="#fdc72e"/>
        <circle id="Ellipse_12516" data-name="Ellipse 12516" cx="7.262" cy="7.262" r="7.262" transform="translate(61.601 12.677)" fill="#fff"/>
        <path id="Path_1262661" data-name="Path 1262661" d="M14.657,40.509h8.705v4.4H14.657Z" transform="translate(-24.636 25.955) rotate(-45)" fill="#d1d1d6"/>
        <circle id="Ellipse_12517" data-name="Ellipse 12517" cx="17.982" cy="17.982" r="17.982" transform="translate(7.807 28.485) rotate(-45)" fill="#6cbfff"/>
        <path id="Path_1262662" data-name="Path 1262662" d="M17.42,37.039A17.987,17.987,0,0,1,48.59,19.1a17.987,17.987,0,0,1-31.17,17.936Z" fill="#85caff" fill-rule="evenodd"/>
        <path id="Path_1262663" data-name="Path 1262663" d="M17.557,44.171a3.679,3.679,0,0,1,0,5.188L8.1,58.816a3.668,3.668,0,0,1-5.188-5.188l9.457-9.457a3.679,3.679,0,0,1,5.188,0Z" fill="#fdc0b1" fill-rule="evenodd"/>
        <path id="Path_1262664" data-name="Path 1262664" d="M2.43,58.221a3.682,3.682,0,0,1,.482-4.592l9.457-9.457a3.682,3.682,0,0,1,4.813-.327,3.869,3.869,0,0,1,.337.589A3.889,3.889,0,0,1,16.381,47.2L6.326,57.251a3.91,3.91,0,0,1-3.9.97Z" fill="#ffcec0" fill-rule="evenodd"/>
        <circle id="Ellipse_12518" data-name="Ellipse 12518" cx="14.162" cy="14.162" r="14.162" transform="translate(12.834 27.835) rotate(-45)" fill="#6cbfff"/>
        <circle id="Ellipse_12519" data-name="Ellipse 12519" cx="14.162" cy="14.162" r="14.162" transform="translate(13.209 28.485) rotate(-45)" fill="#fff"/>
        <path id="Path_1262665" data-name="Path 1262665" d="M63.1,72.449c1.1-.672,2.222-1.324,3.325-2,3.436-2.1,7.691-4.795,7.691-9.329V50.176L63.1,45.4l-10.99,4.774V61.121a6.8,6.8,0,0,0,.971,3.581c1.821,3.067,6.476,5.627,10.019,7.747Z" fill="#6cbfff" fill-rule="evenodd"/>
        <path id="Path_1262666" data-name="Path 1262666" d="M61.767,45.98l-9.661,4.2V61.121a6.8,6.8,0,0,0,.971,3.581c1.622,2.73,5.489,5.059,8.818,7.033,1.038-.628,2.085-1.241,3.12-1.875,3.436-2.1,7.691-4.795,7.691-9.329V50.72L61.767,45.98Z" fill="#85caff" fill-rule="evenodd"/>
        <path id="Path_1262667" data-name="Path 1262667" d="M26.233,27.892a1.344,1.344,0,1,1,2.328-1.344l2.311,4,7.268-7.269a1.344,1.344,0,0,1,1.9,1.9l-8.506,8.5a1.345,1.345,0,0,1-.951.394,1.636,1.636,0,0,1-.175-.011,1.351,1.351,0,0,1-.989-.66l-3.187-5.52ZM33.244,15.67A12.817,12.817,0,1,0,46.062,28.487,12.831,12.831,0,0,0,33.244,15.67Zm0,28.322a15.5,15.5,0,1,0-15.5-15.5A15.524,15.524,0,0,0,33.244,43.992Zm-14.181-.113a4.769,4.769,0,0,0-.553-.658,5.026,5.026,0,0,0-.658-.555l1.142-1.14q.58.629,1.211,1.211l-1.142,1.142Zm-2.452,4.527L7.155,57.862A2.324,2.324,0,0,1,3.87,54.574l9.454-9.454a2.324,2.324,0,0,1,3.287,3.286ZM33.244,11.85A16.637,16.637,0,1,0,49.881,28.487,16.656,16.656,0,0,0,33.244,11.85Zm0,35.961a19.347,19.347,0,1,0-15.932-8.4l-2.349,2.347a5,5,0,0,0-3.539,1.464L1.97,52.674a5.011,5.011,0,0,0,7.085,7.087l9.456-9.456a4.971,4.971,0,0,0,1.463-3.538l2.349-2.349a19.22,19.22,0,0,0,10.922,3.392Zm27.5,13.18,7.267-7.268a1.344,1.344,0,0,1,1.9,1.9L61.4,64.13a1.345,1.345,0,0,1-.951.394,1.256,1.256,0,0,1-.175-.011,1.352,1.352,0,0,1-.989-.661L56.1,58.332a1.344,1.344,0,1,1,2.328-1.344l2.311,4Zm12.061.136V51.035l-9.7-4.2-9.678,4.2V61.127a5.453,5.453,0,0,0,.786,2.9c1.484,2.5,5.419,4.833,8.58,6.706l.306.183q.428-.258.857-.513c.586-.349,1.192-.712,1.78-1.072,3.869-2.37,7.071-4.623,7.071-8.209ZM74.679,48.92a1.344,1.344,0,0,1,.81,1.233V61.127c0,5.384-5.028,8.464-8.354,10.5-.6.369-1.214.735-1.807,1.089q-.767.457-1.531.919a1.354,1.354,0,0,1-1.39,0l-.99-.59c-3.6-2.137-7.685-4.556-9.521-7.646a8.164,8.164,0,0,1-1.162-4.277V50.153a1.342,1.342,0,0,1,.81-1.233l11.019-4.787a1.345,1.345,0,0,1,1.071,0L74.679,48.92Zm8.137,11.506-1.925.5a1.345,1.345,0,0,0-.956.953l-.776,2.894a1.349,1.349,0,0,0,.353,1.3l1.418,1.4-1.5,2.6-1.92-.526A1.343,1.343,0,0,0,76.2,69.9l-2.118,2.118a1.342,1.342,0,0,0-.347,1.306l.526,1.92-2.6,1.5-1.4-1.418a1.343,1.343,0,0,0-1.3-.352l-2.895.776a1.341,1.341,0,0,0-.952.957l-.5,1.925h-3l-.5-1.925a1.341,1.341,0,0,0-.952-.957l-2.892-.776a1.346,1.346,0,0,0-1.3.352l-1.4,1.418-2.595-1.5.526-1.92a1.351,1.351,0,0,0-.346-1.306L50.019,69.9a1.34,1.34,0,0,0-1.3-.346l-1.92.526-1.5-2.6,1.417-1.4a1.346,1.346,0,0,0,.353-1.3l-.774-2.894a1.351,1.351,0,0,0-.958-.953l-1.924-.5v-3l1.924-.505a1.348,1.348,0,0,0,.958-.952l.774-2.893a1.344,1.344,0,0,0-.353-1.3l-1.417-1.4,1.5-2.6,1.92.526a1.34,1.34,0,0,0,1.3-.346l2.12-2.118a1.35,1.35,0,0,0,.346-1.306l-.526-1.92,2.595-1.5,1.4,1.416a1.338,1.338,0,0,0,1.3.352l2.892-.774a1.345,1.345,0,0,0,.952-.957l.5-1.925h3l.5,1.925a1.345,1.345,0,0,0,.952.957l2.895.774a1.336,1.336,0,0,0,1.3-.352l1.4-1.416,2.6,1.5-.526,1.92a1.34,1.34,0,0,0,.347,1.306L76.2,47.954a1.344,1.344,0,0,0,1.306.346l1.92-.526,1.5,2.6-1.418,1.4a1.347,1.347,0,0,0-.353,1.3l.776,2.893a1.343,1.343,0,0,0,.956.952l1.925.505v3Zm1.173-5.473A2.034,2.034,0,0,1,85.5,56.92v4.013A2.031,2.031,0,0,1,83.989,62.9l-1.66.435-.371,1.387,1.223,1.209a2.035,2.035,0,0,1,.329,2.461L81.5,71.863a2.036,2.036,0,0,1-2.3.942l-1.655-.454-1.013,1.015.452,1.655a2.033,2.033,0,0,1-.941,2.294l-3.474,2.009a2.032,2.032,0,0,1-2.46-.33L68.9,77.773l-1.386.371-.435,1.66a2.034,2.034,0,0,1-1.966,1.517H61.1A2.035,2.035,0,0,1,59.139,79.8l-.436-1.66-1.386-.371L56.11,79a2.035,2.035,0,0,1-2.461.33l-3.474-2.009a2.033,2.033,0,0,1-.942-2.294l.453-1.655-1.014-1.015-1.656.454a2.033,2.033,0,0,1-2.294-.942l-2.009-3.475a2.031,2.031,0,0,1,.331-2.461l1.222-1.209-.373-1.387L42.234,62.9a2.032,2.032,0,0,1-1.515-1.965V56.92a2.034,2.034,0,0,1,1.515-1.966l1.659-.435.373-1.384-1.222-1.21a2.031,2.031,0,0,1-.331-2.46l2.009-3.475a2.034,2.034,0,0,1,2.3-.942l1.655.454,1.014-1.015-.453-1.655a2.032,2.032,0,0,1,.942-2.294l3.472-2.009a2.032,2.032,0,0,1,2.463.329l1.208,1.223L58.7,39.71l.436-1.659A2.032,2.032,0,0,1,61.1,36.534h4.013a2.031,2.031,0,0,1,1.966,1.516l.435,1.659,1.386.372,1.21-1.223a2.032,2.032,0,0,1,2.46-.331l3.472,2.011a2.031,2.031,0,0,1,.943,2.294l-.452,1.655L77.55,45.5l1.655-.454a2.034,2.034,0,0,1,2.3.942l2.009,3.475a2.033,2.033,0,0,1-.33,2.46l-1.221,1.21.371,1.384,1.66.435ZM68.865,14.329a5.61,5.61,0,1,1-5.611,5.611A5.616,5.616,0,0,1,68.865,14.329Zm0,13.907a8.3,8.3,0,1,0-8.3-8.3A8.306,8.306,0,0,0,68.865,28.236ZM56.3,18.727v2.424l1.362.269a1.34,1.34,0,0,1,.981.8l1.379,3.33a1.338,1.338,0,0,1-.125,1.263l-.773,1.153,1.713,1.713,1.153-.773a1.347,1.347,0,0,1,1.263-.125l3.33,1.378a1.342,1.342,0,0,1,.8.982l.269,1.362h2.424l.268-1.362a1.342,1.342,0,0,1,.8-.982l3.33-1.378a1.348,1.348,0,0,1,1.263.125l1.153.773,1.713-1.711-.773-1.154a1.341,1.341,0,0,1-.126-1.263l1.379-3.33a1.341,1.341,0,0,1,.982-.8l1.362-.269V18.727l-1.362-.269a1.342,1.342,0,0,1-.982-.8l-1.379-3.33a1.341,1.341,0,0,1,.126-1.263l.773-1.152L76.893,10.2l-1.153.773a1.345,1.345,0,0,1-1.263.126l-3.33-1.379a1.342,1.342,0,0,1-.8-.981l-.268-1.363H67.652l-.269,1.363a1.342,1.342,0,0,1-.8.981L63.251,11.1a1.345,1.345,0,0,1-1.263-.126L60.835,10.2l-1.713,1.714.773,1.152a1.338,1.338,0,0,1,.125,1.263l-1.379,3.33a1.34,1.34,0,0,1-.981.8Zm-1.072,4.952,1.208.237.828,2-.685,1.023a2.008,2.008,0,0,0,.246,2.534l2.508,2.507a2.008,2.008,0,0,0,2.533.248l1.023-.686,2,.828.237,1.208a2.008,2.008,0,0,0,1.967,1.616h3.546A2.006,2.006,0,0,0,72.6,33.577l.237-1.208,2-.828,1.023.688a2.01,2.01,0,0,0,2.533-.249L80.9,29.471a2.007,2.007,0,0,0,.247-2.534l-.685-1.023.828-2,1.208-.237a2.007,2.007,0,0,0,1.616-1.967V18.166A2.01,2.01,0,0,0,82.5,16.2l-1.208-.237-.828-2,.685-1.023a2.007,2.007,0,0,0-.247-2.533L78.4,7.9a2.008,2.008,0,0,0-2.533-.246l-1.023.685-2-.828L72.6,6.3a2.007,2.007,0,0,0-1.967-1.616H67.091A2.009,2.009,0,0,0,65.124,6.3L64.887,7.51l-2,.828-1.023-.685a2.007,2.007,0,0,0-2.533.246l-2.508,2.508a2.007,2.007,0,0,0-.246,2.533l.685,1.023-.828,2-1.208.237a2.01,2.01,0,0,0-1.616,1.967v3.547A2.007,2.007,0,0,0,55.227,23.679Z" fill-rule="evenodd"/>
      </g>
    </g>
  </g>
</svg>
