<svg xmlns="http://www.w3.org/2000/svg" xmlns:xlink="http://www.w3.org/1999/xlink" width="113.842" height="101.604" viewBox="0 0 113.842 101.604">
  <defs>
    <clipPath id="clip-path">
      <rect id="Rectangle_410903" data-name="Rectangle 410903" width="85" height="84" transform="translate(957.866 -9220.867)" fill="#fff" stroke="#707070" stroke-width="1"/>
    </clipPath>
  </defs>
  <g id="Group_1203835" data-name="Group 1203835" transform="translate(-947.597 9231.595)">
    <g id="Group_1203706" data-name="Group 1203706" transform="translate(947.597 -9231.595)">
      <ellipse id="Ellipse_12452" data-name="Ellipse 12452" cx="28.658" cy="28.658" rx="28.658" ry="28.658" transform="translate(56.527 44.289)" fill="#c0d85c"/>
      <ellipse id="Ellipse_12453" data-name="Ellipse 12453" cx="20.842" cy="20.842" rx="20.842" ry="20.842" fill="#c0d85c"/>
    </g>
    <g id="Mask_Group_1099403" data-name="Mask Group 1099403" clip-path="url(#clip-path)">
      <g id="Layer_x0020_1" transform="translate(958.173 -9221.06)">
        <path id="Path_1262635" data-name="Path 1262635" d="M71.973,18.891H34.293a1.977,1.977,0,0,1-1.978-1.978V9.072a1.977,1.977,0,0,1,1.978-1.978h37.68a1.977,1.977,0,0,1,1.978,1.978v7.842a1.978,1.978,0,0,1-1.978,1.977Zm5.9,62.595H28.4a6.523,6.523,0,0,1-6.516-6.515v-.276q-.163.009-.327.009a5.879,5.879,0,0,1-2.451-.529l-6.044,7.574a6.558,6.558,0,0,1-4.842,2.434c-.138.008-.275.011-.414.011a7.909,7.909,0,0,1-5.522-2.28c-2.886-2.886-3.059-7.6-.376-10.291a1.978,1.978,0,1,1,2.8,2.792c-1.131,1.135-.954,3.376.372,4.7A3.935,3.935,0,0,0,8,80.232a2.646,2.646,0,0,0,1.972-.952l6.091-7.632-1.976-1.976-1.536-1.535L11.092,69.3a1.978,1.978,0,1,1-2.467-3.091l1.4-1.114a5.883,5.883,0,0,1,8.767-7.235l2.3-2.139a18.7,18.7,0,0,1,.791-19.262V6.708A6.523,6.523,0,0,1,28.4.193H77.87a6.523,6.523,0,0,1,6.516,6.516V8.623a1.978,1.978,0,1,1-3.955,0V6.708a2.563,2.563,0,0,0-2.561-2.56H28.4a2.563,2.563,0,0,0-2.561,2.56V32.141a18.66,18.66,0,0,1,24.808,1.409l.041.043q.14.141.277.284l.046.049q.144.152.284.306l.038.042a18.657,18.657,0,0,1,0,24.941l-.034.037q-.135.149-.273.295l-.072.076q-.128.134-.259.266l-.043.044A18.682,18.682,0,0,1,28.474,63.1l-2.138,2.3q.066.093.129.187h0l.061.095h0l.03.048h0q.045.072.087.145h0l.055.1h0l.027.049h0l.026.049h0l.026.05h0l.026.05h0l.025.05h0l.024.05h0l.024.051h0l.023.051h0l.023.051h0l.022.051h0l.022.051h0l.021.052h0l.021.052h0l.02.052h0l.02.052h0l.019.052h0l.019.053h0l.018.053h0l.018.053h0l.017.053.017.054h0l.016.054h0l.016.054h0l.015.054h0l.015.054h0l.014.055h0l.014.055h0l.013.055h0l.013.055h0l.012.055h0l.011.055h0l.011.055h0l.011.056h0l.01.056h0l.01.056h0l.009.056h0l.008.056h0l.008.056h0l.007.057h0l.007.057h0l.006.057h0l.006.057h0l.005.057h0l0,.057h0l0,.057h0l0,.058h0l0,.058,0,.058,0,.058h0v.058h0v.264l0,.065v.008l0,.062v.011l0,.059V69.2l0,.056v.017l0,.053,0,.02,0,.05,0,.022,0,.047,0,.025-.005.044,0,.028-.005.041,0,.03v0l-.02.137v.006l-.011.064v0l-.005.03-.007.041-.005.027-.009.044,0,.025-.01.046-.029.129,0,.011,0,.016-.013.054,0,.013-.014.056,0,.011-.016.059,0,.008-.017.061,0,.005-.019.063v0l-.02.066-.021.066v0l-.021.063,0,.005-.021.06,0,.008-.021.057,0,.01-.02.054,0,.013-.02.051-.006.015-.02.048-.007.018-.019.046-.009.02-.019.043-.01.023-.018.04-.011.025-.017.038-.013.027-.017.035-.014.03-.016.032-.016.032-.015.03-.006.012-.058.11-.021.039-.012.022-.023.041-.011.019-.025.043-.01.017-.027.045-.009.014-.005.008q-.067.112-.14.22l0,0a5.892,5.892,0,0,1-.608.762V74.97a2.563,2.563,0,0,0,2.561,2.56H77.869a2.563,2.563,0,0,0,2.561-2.56v-59.8a1.978,1.978,0,0,1,3.956,0v59.8a6.524,6.524,0,0,1-6.516,6.515Zm-54.7-13.7a1.915,1.915,0,0,0-.252-.311l-.454-.453-.047-.048-.153-.153-.018-.017-4.85-4.85-.022-.022-.648-.648A1.923,1.923,0,0,0,14,64l6.191,6.192a1.983,1.983,0,0,0,2.72,0,1.909,1.909,0,0,0,.559-1.36,1.941,1.941,0,0,0-.119-.674l-.007-.02v0l-.008-.02v0l-.008-.02v0l-.008-.02v0l-.008-.02v0l-.009-.02v0l-.009-.019v0l-.009-.02v0l-.01-.019v0l-.01-.019v0l-.01-.019v0l-.01-.019v0l-.011-.019v0l-.011-.019v0l-.011-.019v0l-.011-.018v0l-.012-.018v0l-.012-.018Zm6.118-8.816A14.6,14.6,0,0,0,36.359,61.4h.021q.148.011.3.018h.011a14.726,14.726,0,0,0,10.169-3.379l.045-.037c.059-.049.116-.1.174-.149l.106-.092h0l.136-.122q.271-.246.531-.506a14.717,14.717,0,0,0,0-20.789L47.8,36.3c-.073-.072-.146-.144-.22-.215l-.027-.025a14.716,14.716,0,0,0-20.5.282,14.9,14.9,0,0,0-1.589,1.878c-.021.03-.043.059-.065.087a14.724,14.724,0,0,0-.2,16.563c.02.027.04.055.059.083a14.816,14.816,0,0,0,3.973,3.972l.045.032,0,0,0,0ZM67.2,47.3H62.6a1.978,1.978,0,1,1,0-3.955h2.63V25.176H62.6a1.978,1.978,0,1,1,0-3.955H67.2A1.977,1.977,0,0,1,69.183,23.2V45.322A1.977,1.977,0,0,1,67.2,47.3Zm0,28.553H62.6a1.978,1.978,0,1,1,0-3.956h2.63V53.729H62.6a1.978,1.978,0,1,1,0-3.955H67.2a1.977,1.977,0,0,1,1.978,1.978V73.875A1.977,1.977,0,0,1,67.2,75.853Zm9.31-4.227a1.969,1.969,0,0,1-1.4-.58l-.311-.311-.311.311a1.977,1.977,0,0,1-2.8-2.8l.311-.311-.311-.311a1.977,1.977,0,0,1,2.8-2.8l.311.311.311-.311a1.977,1.977,0,0,1,2.8,2.8l-.311.311.311.311a1.978,1.978,0,0,1-1.4,3.376Zm0-18.681a1.969,1.969,0,0,1-1.4-.58l-.311-.311-.311.311a1.977,1.977,0,0,1-2.8-2.8l.311-.311-.311-.311a1.977,1.977,0,0,1,2.8-2.8l.311.311.311-.311a1.977,1.977,0,1,1,2.8,2.8l-.311.311.311.311a1.978,1.978,0,0,1-1.4,3.376Zm0-20.124a1.968,1.968,0,0,1-1.4-.58l-.31-.31-.311.311a1.978,1.978,0,1,1-2.8-2.8l.311-.311-.311-.311a1.978,1.978,0,0,1,2.8-2.8l.311.311.31-.31a1.978,1.978,0,1,1,2.8,2.8l-.31.31.31.31a1.978,1.978,0,0,1-1.4,3.376ZM23.591,62.55,25.2,60.812l-.015-.013-.015-.013-.015-.013-.015-.013-.015-.013-.015-.013,0,0-.011-.01-.015-.013q-.422-.375-.822-.773-.454-.454-.879-.942L21.644,60.6l1.947,1.947Zm13.3-11.81a1.979,1.979,0,0,1-1.446-.628l-2.61-2.8a1.978,1.978,0,0,1,2.893-2.7l1.112,1.192,4.514-5.2A1.978,1.978,0,0,1,44.336,43.2l-5.955,6.86a1.977,1.977,0,0,1-1.459.681h-.036ZM61.053,32.72H59.162a1.978,1.978,0,1,1,0-3.955h1.891a1.978,1.978,0,1,1,0,3.955Zm0,7.038H59.162a1.978,1.978,0,0,1,0-3.956h1.891a1.978,1.978,0,0,1,0,3.956Zm0,21.516H59.162a1.978,1.978,0,1,1,0-3.956h1.891a1.978,1.978,0,0,1,0,3.956Zm0,7.037H59.162a1.978,1.978,0,1,1,0-3.955h1.891a1.978,1.978,0,1,1,0,3.955ZM36.271,14.936H70V11.049H36.271Z" fill-rule="evenodd"/>
        <path id="Path_1262636" data-name="Path 1262636" d="M36.271,14.936H70V11.049H36.271Z" fill="#a79ba7" fill-rule="evenodd"/>
        <path id="Path_1262637" data-name="Path 1262637" d="M71.973,18.891H34.293a1.977,1.977,0,0,1-1.978-1.978V9.072a1.977,1.977,0,0,1,1.978-1.978h37.68a1.977,1.977,0,0,1,1.978,1.978v7.842a1.978,1.978,0,0,1-1.978,1.977ZM37.454,28.085a18.533,18.533,0,0,1,13.191,5.464l.041.043.277.284.046.049.284.306.038.042a18.657,18.657,0,0,1,0,24.941l-.034.037-.273.295-.072.076-.259.266-.043.044A18.682,18.682,0,0,1,28.475,63.1l-2.138,2.3.129.188.062.1.03.048.088.146.056.1.027.05.027.05.026.05.026.051.025.051.025.051.024.051.024.051.023.052.023.052.022.052.022.052.021.053.021.053.02.053.02.053.019.053.019.054.018.054.017.053.017.055.017.054.016.054.016.055.015.055.015.055.014.055.013.055.013.055.012.056.012.056.011.056.011.056.01.056.01.056.009.057.009.057.008.057.007.057.007.057.006.057.006.057.005.057,0,.058,0,.058,0,.058,0,.058,0,.058,0,.058v.322l0,.065v.008l0,.062v.011l0,.059V69.2l0,.056v.017l0,.053,0,.02,0,.05,0,.022,0,.047,0,.025-.005.044,0,.028-.005.041,0,.03v0l-.02.137v.006l-.011.064v0l-.005.03-.007.041-.005.027-.009.044,0,.025-.01.046-.029.129,0,.011,0,.016-.013.054,0,.013-.014.056,0,.011-.016.059,0,.008-.017.061,0,.005-.019.063v0l-.02.066-.021.066v0l-.021.063,0,.005-.021.06,0,.008-.021.057,0,.01-.02.054,0,.013-.02.051-.006.015-.02.048-.007.018-.019.046-.009.02-.019.043-.01.023-.018.04-.011.025-.017.038-.013.027-.017.035-.014.03-.016.032-.016.032-.015.03-.006.012-.058.11-.021.039-.012.022-.023.041-.011.019-.025.043-.01.017-.027.045-.009.014-.005.008-.14.22,0,0a5.892,5.892,0,0,1-.608.762V74.97a2.563,2.563,0,0,0,2.561,2.56H77.87a2.563,2.563,0,0,0,2.561-2.56v-59.8A1.977,1.977,0,0,1,82.408,13.2V10.6A1.977,1.977,0,0,1,80.43,8.623V6.708a2.563,2.563,0,0,0-2.561-2.56H28.4a2.563,2.563,0,0,0-2.561,2.56V32.141a18.514,18.514,0,0,1,11.617-4.055Zm19.73,9.694A1.977,1.977,0,0,1,59.162,35.8h1.891a1.978,1.978,0,0,1,0,3.956H59.162a1.977,1.977,0,0,1-1.978-1.978Zm3.436,7.542A1.977,1.977,0,0,1,62.6,43.344h2.63V25.176H62.6a1.978,1.978,0,1,1,0-3.955H67.2A1.977,1.977,0,0,1,69.182,23.2V45.322A1.977,1.977,0,0,1,67.2,47.3H62.6a1.977,1.977,0,0,1-1.978-1.978ZM57.184,59.3a1.977,1.977,0,0,1,1.978-1.978h1.891a1.978,1.978,0,1,1,0,3.956H59.162A1.977,1.977,0,0,1,57.184,59.3Zm1.978,5.06h1.891a1.978,1.978,0,1,1,0,3.955H59.162a1.978,1.978,0,1,1,0-3.955ZM62.6,71.9h2.63V53.729H62.6a1.978,1.978,0,1,1,0-3.955H67.2a1.977,1.977,0,0,1,1.978,1.978V73.875A1.977,1.977,0,0,1,67.2,75.852H62.6a1.978,1.978,0,1,1,0-3.956Zm9.1-7.065a1.976,1.976,0,0,1,2.8,0l.311.311.311-.311a1.977,1.977,0,0,1,2.8,2.8l-.311.311.311.311a1.977,1.977,0,1,1-2.8,2.8l-.311-.311-.311.311a1.977,1.977,0,0,1-2.8-2.8l.311-.311-.311-.311A1.977,1.977,0,0,1,71.7,64.832Zm0-15.884a1.977,1.977,0,0,1,2.8-2.8l.311.311.311-.311a1.977,1.977,0,1,1,2.8,2.8l-.311.311.311.311a1.977,1.977,0,1,1-2.8,2.8l-.311-.311-.311.311a1.977,1.977,0,0,1-2.8-2.8l.311-.311Zm0-16.705a1.977,1.977,0,0,1,0-2.8l.311-.311-.311-.311a1.978,1.978,0,1,1,2.8-2.8l.311.311.31-.31a1.978,1.978,0,0,1,2.8,2.8l-.31.31.31.31a1.978,1.978,0,1,1-2.8,2.8l-.31-.31-.311.311a1.978,1.978,0,0,1-2.8,0Zm-14.514-1.5a1.977,1.977,0,0,1,1.978-1.978h1.891a1.978,1.978,0,1,1,0,3.955H59.162a1.977,1.977,0,0,1-1.978-1.978Z" fill="#eceff1" fill-rule="evenodd"/>
        <path id="Path_1262638" data-name="Path 1262638" d="M47.558,36.065a14.716,14.716,0,0,0-20.5.282,14.9,14.9,0,0,0-1.589,1.878l-.065.087a14.724,14.724,0,0,0-.2,16.563l.059.083a14.816,14.816,0,0,0,3.973,3.972l.045.032,0,0,0,0A14.6,14.6,0,0,0,36.358,61.4h.021l.3.018h.011a14.726,14.726,0,0,0,10.169-3.379l.045-.037.174-.149.106-.092.136-.122q.271-.246.531-.506a14.717,14.717,0,0,0,0-20.789l-.043-.042-.22-.215-.027-.025ZM36.834,45.807l4.514-5.2A1.978,1.978,0,1,1,44.336,43.2L38.38,50.06a1.977,1.977,0,0,1-1.459.681h-.036a1.979,1.979,0,0,1-1.446-.628l-2.61-2.8a1.978,1.978,0,0,1,2.893-2.7l1.112,1.192Z" fill="#8ac9fe" fill-rule="evenodd"/>
        <path id="Path_1262639" data-name="Path 1262639" d="M22.244,66.8l-4.85-4.85-.022-.022-.648-.648A1.923,1.923,0,0,0,14,64l6.191,6.192a1.983,1.983,0,0,0,2.72,0,1.909,1.909,0,0,0,.559-1.36,1.941,1.941,0,0,0-.119-.674l-.008-.022-.009-.022-.009-.022-.009-.022-.009-.021-.01-.021L23.292,68l-.01-.021-.01-.021-.011-.021-.011-.021-.011-.021-.011-.02-.011-.02-.012-.02-.012-.02-.012-.02-.012-.018a1.915,1.915,0,0,0-.252-.311l-.454-.453-.047-.048-.153-.153-.018-.017Z" fill="#e3a76f" fill-rule="evenodd"/>
        <g id="Group_1203832" data-name="Group 1203832">
          <path id="Path_1262640" data-name="Path 1262640" d="M14.082,69.671l-1.536-1.535L11.091,69.3a1.979,1.979,0,0,1-2.779-.312L4.848,71.778a1.978,1.978,0,0,1-.141,2.635c-1.131,1.135-.954,3.376.372,4.7A3.935,3.935,0,0,0,8,80.232a2.646,2.646,0,0,0,1.972-.952l6.091-7.632-1.976-1.976Z" fill="#f1ba84" fill-rule="evenodd"/>
          <path id="Path_1262641" data-name="Path 1262641" d="M21.644,60.6,23.59,62.55,25.2,60.812l-.015-.013-.015-.013-.015-.013-.015-.013-.015-.013-.015-.013,0,0-.011-.01-.015-.013q-.422-.375-.822-.773-.454-.454-.879-.942L21.644,60.6Z" fill="#f1ba84" fill-rule="evenodd"/>
        </g>
      </g>
    </g>
  </g>
</svg>
