<svg xmlns="http://www.w3.org/2000/svg" xmlns:xlink="http://www.w3.org/1999/xlink" width="113.842" height="101.604" viewBox="0 0 113.842 101.604">
  <defs>
    <clipPath id="clip-path">
      <rect id="Rectangle_410852" data-name="Rectangle 410852" width="85" height="84" transform="translate(809.296 3099.744)" fill="#fff" stroke="#707070" stroke-width="1"/>
    </clipPath>
    <clipPath id="clip-path-2">
      <path id="path2238" d="M0-84H84V0H0Z"/>
    </clipPath>
  </defs>
  <g id="Group_1203828" data-name="Group 1203828" transform="translate(-799.026 -3089.017)">
    <g id="Group_1203673" data-name="Group 1203673" transform="translate(799.026 3089.017)">
      <ellipse id="Ellipse_12452" data-name="Ellipse 12452" cx="28.658" cy="28.658" rx="28.658" ry="28.658" transform="translate(56.527 44.289)" fill="#ffc94a"/>
      <ellipse id="Ellipse_12453" data-name="Ellipse 12453" cx="20.842" cy="20.842" rx="20.842" ry="20.842" fill="#ffc94a"/>
    </g>
    <g id="Mask_Group_1099396" data-name="Mask Group 1099396" clip-path="url(#clip-path)">
      <g id="g2232" transform="translate(809.796 3183.744)">
        <g id="g2234">
          <g id="g2236" clip-path="url(#clip-path-2)">
            <g id="g2242" transform="translate(39.713 -64.736)">
              <path id="path2244" d="M0,0A18.033,18.033,0,0,0-18.29-18.031,18.09,18.09,0,0,0-36.064-.257a18.033,18.033,0,0,0,18.031,18.29q.618,0,1.227-.041a1.4,1.4,0,0,1,1.071.4l5.39,5.3a.973.973,0,0,0,1.652-.6l.721-7.525a1.4,1.4,0,0,1,.567-1A18.007,18.007,0,0,0,0,0" fill="#bed9fd"/>
            </g>
            <g id="g2246" transform="translate(56.663 -78.417)">
              <path id="path2248" d="M0,0-2.732,7.507l6.072,2.21L6.072,2.21a.855.855,0,0,0-.511-1.1L1.1-.511A.855.855,0,0,0,0,0" fill="#ddebfd"/>
            </g>
            <g id="g2250" transform="translate(62.223 -77.304)">
              <path id="path2252" d="M0,0-3.537-1.287A.789.789,0,0,1-3.172-.244L-5.9,7.263-2.221,8.6.511,1.1A.855.855,0,0,0,0,0" fill="#bed9fd"/>
            </g>
            <g id="g2254" transform="translate(40.314 -46.143)">
              <path id="path2256" d="M0,0,9.259-25.439a.859.859,0,0,1,1.1-.514l12.584,4.58a.86.86,0,0,1,.514,1.1L14.2,5.168a.86.86,0,0,1-1.1.514L.514,1.1A.86.86,0,0,1,0,0" fill="#6cbff8"/>
            </g>
            <g id="g2258" transform="translate(63.258 -67.515)">
              <path id="path2260" d="M0,0-3.04-1.106a.808.808,0,0,1,.4,1.062l-9.259,25.439a.808.808,0,0,1-.992.554l3.04,1.106a.859.859,0,0,0,1.1-.514L.514,1.1A.86.86,0,0,0,0,0" fill="#5fa7ee"/>
            </g>
            <g id="g2262" transform="translate(42.265 -44.517)">
              <path id="path2264" d="M0,0-1.5,4.115a.935.935,0,0,0,.559,1.2L7.012,8.207a.935.935,0,0,0,1.2-.559l1.5-4.115Z" fill="#ddebfd"/>
            </g>
            <g id="g2266" transform="translate(47.958 -42.445)">
              <path id="path2268" d="M0,0-1.5,4.115a.862.862,0,0,1-1.038.617l3.855,1.4a.935.935,0,0,0,1.2-.559l1.5-4.115Z" fill="#bed9fd"/>
            </g>
            <g id="g2270" transform="translate(36.922 -20.548)">
              <path id="path2272" d="M0,0V12.419H32.952A10.476,10.476,0,0,0,43.265.1L37.207-33.82a4.33,4.33,0,0,0-4.263-3.569H20.1v5.924h8.666a2.187,2.187,0,0,1,2.187,2.187V-4.4a4.4,4.4,0,0,1-4.4,4.4Z" fill="#ddebfd"/>
            </g>
            <g id="g2274" transform="translate(80.187 -20.448)">
              <path id="path2276" d="M0,0-6.058-33.92a4.33,4.33,0,0,0-4.263-3.569H-14.7a4.33,4.33,0,0,1,4.263,3.569L-4.375,0A10.476,10.476,0,0,1-14.688,12.318h4.375A10.476,10.476,0,0,0,0,0" fill="#bed9fd"/>
            </g>
            <g id="g2278" transform="translate(23.85 -7.309)">
              <path id="path2280" d="M0,0V5.259a.82.82,0,0,0,.82.82H43.173a.82.82,0,0,0,.82-.82V-.82H.82A.82.82,0,0,0,0,0" fill="#407194"/>
            </g>
            <g id="g2282" transform="translate(63.668 -8.13)">
              <path id="path2284" d="M0,0V6.079a.82.82,0,0,1-.82.82H3.355a.82.82,0,0,0,.82-.82V0Z" fill="#365f7e"/>
            </g>
            <g id="g2286" transform="translate(31.738 -26.159)">
              <path id="path2288" d="M0,0V4.79a.82.82,0,0,0,.82.82H27.4a.82.82,0,0,0,.82-.82V0a.82.82,0,0,0-.82-.82H.82A.82.82,0,0,0,0,0" fill="#407194"/>
            </g>
            <g id="g2290" transform="translate(59.136 -26.979)">
              <path id="path2292" d="M0,0H-4.175a.82.82,0,0,1,.82.82v4.79a.82.82,0,0,1-.82.82H0a.82.82,0,0,0,.82-.82V.82A.82.82,0,0,0,0,0" fill="#365f7e"/>
            </g>
            <g id="g2294" transform="translate(58.478 -62.296)">
              <path id="path2296" d="M0,0A7.488,7.488,0,0,0-7.488,7.488,7.488,7.488,0,0,0,0,14.977,7.488,7.488,0,1,0,0,0" fill="#df646e"/>
            </g>
            <g id="g2298" transform="translate(58.478 -57.304)">
              <path id="path2300" d="M0,0A2.5,2.5,0,0,0-2.5,2.5,2.5,2.5,0,0,0,0,4.992,2.5,2.5,0,0,0,2.5,2.5,2.5,2.5,0,0,0,0,0" fill="#ddebfd"/>
            </g>
            <g id="g2302" transform="translate(29.329 -72.386)">
              <path id="path2304" d="M0,0A2.612,2.612,0,0,0-2.612,2.612,2.612,2.612,0,0,0,0,5.224,2.612,2.612,0,0,0,2.612,2.612,2.612,2.612,0,0,0,0,0" fill="#5392f9"/>
            </g>
            <g id="g2306" transform="translate(12.864 -67.521)">
              <path id="path2308" d="M0,0A2.612,2.612,0,0,0-2.612,2.612,2.612,2.612,0,0,0,0,5.224,2.612,2.612,0,0,0,2.612,2.612,2.612,2.612,0,0,0,0,0" fill="#ecb880"/>
            </g>
            <g id="g2310" transform="translate(39.713 -64.736)">
              <path id="path2312" d="M0,0A18.033,18.033,0,0,0-18.29-18.031,18.09,18.09,0,0,0-36.064-.257a18.033,18.033,0,0,0,18.031,18.29q.618,0,1.227-.041a1.4,1.4,0,0,1,1.071.4l5.39,5.3a.973.973,0,0,0,1.652-.6l.721-7.525a1.4,1.4,0,0,1,.567-1A18.007,18.007,0,0,0,0,0Z" fill="none" stroke="#000" stroke-linecap="round" stroke-linejoin="round" stroke-miterlimit="10" stroke-width="2.461"/>
            </g>
            <g id="g2314" transform="translate(60.002 -68.7)">
              <path id="path2316" d="M0,0,2.732-7.507a.855.855,0,0,0-.511-1.1l-4.464-1.625a.855.855,0,0,0-1.1.511L-6.072-2.21" fill="none" stroke="#000" stroke-linecap="round" stroke-linejoin="round" stroke-miterlimit="10" stroke-width="2.461"/>
            </g>
            <g id="g2318" transform="translate(61.961 -61.438)">
              <path id="path2320" d="M0,0,1.811-4.974a.861.861,0,0,0-.515-1.1l-12.584-4.581a.86.86,0,0,0-1.1.514l-9.26,25.44a.86.86,0,0,0,.514,1.1l12.585,4.579a.859.859,0,0,0,1.1-.514l2.373-6.515" fill="none" stroke="#000" stroke-linecap="round" stroke-linejoin="round" stroke-miterlimit="10" stroke-width="2.461"/>
            </g>
            <g id="g2322" transform="translate(42.265 -44.517)">
              <path id="path2324" d="M0,0-1.5,4.115a.935.935,0,0,0,.559,1.2L7.012,8.207a.935.935,0,0,0,1.2-.559l1.5-4.115" fill="none" stroke="#000" stroke-linecap="round" stroke-linejoin="round" stroke-miterlimit="10" stroke-width="2.461"/>
            </g>
            <g id="g2326" transform="translate(65.426 -52.013)">
              <path id="path2328" d="M0,0H.259A2.186,2.186,0,0,1,2.446,2.187v9.471" fill="none" stroke="#000" stroke-linecap="round" stroke-linejoin="round" stroke-miterlimit="10" stroke-width="2.461"/>
            </g>
            <g id="g2330" transform="translate(65.284 -57.937)">
              <path id="path2332" d="M0,0H4.582A4.33,4.33,0,0,1,8.845,3.568L14.9,37.49A10.477,10.477,0,0,1,4.59,49.808H-28.361V37.388H-1.816a4.4,4.4,0,0,0,4.405-4.405V23.325" fill="none" stroke="#000" stroke-linecap="round" stroke-linejoin="round" stroke-miterlimit="10" stroke-width="2.461"/>
            </g>
            <g id="g2334" transform="translate(39.793 -1.23)">
              <path id="path2336" d="M0,0H27.23a.821.821,0,0,0,.82-.82V-6.9H-15.123a.82.82,0,0,0-.82.82V-.82a.82.82,0,0,0,.82.82h9.38" fill="none" stroke="#000" stroke-linecap="round" stroke-linejoin="round" stroke-miterlimit="10" stroke-width="2.461"/>
            </g>
            <g id="g2338" transform="translate(31.738 -26.159)">
              <path id="path2340" d="M0,0V4.79a.82.82,0,0,0,.82.82H27.4a.82.82,0,0,0,.82-.82V0a.82.82,0,0,0-.82-.82H.82A.82.82,0,0,0,0,0Z" fill="none" stroke="#000" stroke-linecap="round" stroke-linejoin="round" stroke-miterlimit="10" stroke-width="2.461"/>
            </g>
            <g id="g2342" transform="translate(58.478 -62.296)">
              <path id="path2344" d="M0,0A7.488,7.488,0,0,0-7.488,7.488,7.488,7.488,0,0,0,0,14.977,7.488,7.488,0,1,0,0,0Z" fill="none" stroke="#000" stroke-linecap="round" stroke-linejoin="round" stroke-miterlimit="10" stroke-width="2.461"/>
            </g>
            <g id="g2346" transform="translate(58.478 -57.304)">
              <path id="path2348" d="M0,0A2.5,2.5,0,0,0-2.5,2.5,2.5,2.5,0,0,0,0,4.992,2.5,2.5,0,0,0,2.5,2.5,2.5,2.5,0,0,0,0,0Z" fill="none" stroke="#000" stroke-linecap="round" stroke-linejoin="round" stroke-miterlimit="10" stroke-width="2.461"/>
            </g>
            <g id="g2350" transform="translate(29.329 -72.386)">
              <path id="path2352" d="M0,0A2.612,2.612,0,0,0-2.612,2.612,2.612,2.612,0,0,0,0,5.224,2.612,2.612,0,0,0,2.612,2.612,2.612,2.612,0,0,0,0,0Z" fill="none" stroke="#000" stroke-linecap="round" stroke-linejoin="round" stroke-miterlimit="10" stroke-width="2.461"/>
            </g>
            <g id="g2354" transform="translate(12.864 -67.521)">
              <path id="path2356" d="M0,0A2.612,2.612,0,0,0-2.612,2.612,2.612,2.612,0,0,0,0,5.224,2.612,2.612,0,0,0,2.612,2.612,2.612,2.612,0,0,0,0,0Z" fill="none" stroke="#000" stroke-linecap="round" stroke-linejoin="round" stroke-miterlimit="10" stroke-width="2.461"/>
            </g>
            <g id="g2358" transform="translate(32.675 -59.811)">
              <path id="path2360" d="M0,0-1.874,1.874" fill="none" stroke="#000" stroke-linecap="round" stroke-linejoin="round" stroke-miterlimit="10" stroke-width="2.461"/>
            </g>
            <g id="g2362" transform="translate(18.722 -74.777)">
              <path id="path2364" d="M0,0-1.874,1.874" fill="none" stroke="#000" stroke-linecap="round" stroke-linejoin="round" stroke-miterlimit="10" stroke-width="2.461"/>
            </g>
            <g id="g2366" transform="translate(20.743 -66.388)">
              <path id="path2368" d="M0,0,1.874,1.874" fill="none" stroke="#000" stroke-linecap="round" stroke-linejoin="round" stroke-miterlimit="10" stroke-width="2.461"/>
            </g>
            <g id="g2370" transform="translate(20.937 -56.574)">
              <path id="path2372" d="M0,0-1.874,1.874" fill="none" stroke="#000" stroke-linecap="round" stroke-linejoin="round" stroke-miterlimit="10" stroke-width="2.461"/>
            </g>
          </g>
        </g>
      </g>
    </g>
  </g>
</svg>
