<svg xmlns="http://www.w3.org/2000/svg" xmlns:xlink="http://www.w3.org/1999/xlink" width="113.842" height="101.604" viewBox="0 0 113.842 101.604">
  <defs>
    <clipPath id="clip-path">
      <rect id="Rectangle_410853" data-name="Rectangle 410853" width="85" height="84" transform="translate(1122.131 3099.744)" fill="#fff" stroke="#707070" stroke-width="1"/>
    </clipPath>
  </defs>
  <g id="Group_1203827" data-name="Group 1203827" transform="translate(-1111.861 -3089.017)">
    <g id="Group_1203675" data-name="Group 1203675" transform="translate(1111.861 3089.017)">
      <ellipse id="Ellipse_12452" data-name="Ellipse 12452" cx="28.658" cy="28.658" rx="28.658" ry="28.658" transform="translate(56.527 44.289)" fill="#ffc94a"/>
      <ellipse id="Ellipse_12453" data-name="Ellipse 12453" cx="20.842" cy="20.842" rx="20.842" ry="20.842" fill="#ffc94a"/>
    </g>
    <g id="Mask_Group_1099397" data-name="Mask Group 1099397" clip-path="url(#clip-path)">
      <g id="microscope_6638696" transform="translate(1122.677 3099.744)">
        <g id="Color">
          <path id="Path_1262545" data-name="Path 1262545" d="M79.8,78.4a4.2,4.2,0,0,1-4.2,4.2h-56a4.2,4.2,0,1,1,0-8.4H40.334a8.385,8.385,0,0,0,14.532,0H75.6a4.2,4.2,0,0,1,4.2,4.2Z" fill="#607d8b"/>
          <path id="Path_1262546" data-name="Path 1262546" d="M75.6,74.2H71.4a4.2,4.2,0,0,1,0,8.4h4.2a4.2,4.2,0,0,0,0-8.4Z" fill="#37474f"/>
          <path id="Path_1262547" data-name="Path 1262547" d="M67.2,33.862V54.6A19.62,19.62,0,0,1,55.636,72.478,8.487,8.487,0,0,0,56,70a8.359,8.359,0,0,0-2.45-5.922A11.2,11.2,0,0,0,58.8,54.6V33.862a8.345,8.345,0,0,0,8.4,0Z" fill="#9e9e9e"/>
          <path id="Path_1262548" data-name="Path 1262548" d="M63,35V54.6a19.547,19.547,0,0,1-7.02,15.014c.007.129.02.256.02.386a8.487,8.487,0,0,1-.364,2.478A19.62,19.62,0,0,0,67.2,54.6V33.862A8.2,8.2,0,0,1,63,35Z" fill="#707070"/>
          <path id="Path_1262549" data-name="Path 1262549" d="M39.2,70a8.487,8.487,0,0,0,.364,2.478A19.62,19.62,0,0,1,28,54.6V53.2h8.4v1.4a11.2,11.2,0,0,0,5.25,9.478A8.336,8.336,0,0,0,39.2,70Z" fill="#9e9e9e"/>
          <path id="Path_1262550" data-name="Path 1262550" d="M46.2,50.4a2.821,2.821,0,0,1-2.8,2.8H21a2.8,2.8,0,1,1,0-5.6H43.4A2.808,2.808,0,0,1,46.2,50.4Z" fill="#607d8b"/>
          <path id="Path_1262551" data-name="Path 1262551" d="M43.4,47.6H39.2a2.8,2.8,0,1,1,0,5.6h4.2a2.8,2.8,0,1,0,0-5.6Z" fill="#37474f"/>
          <path id="Path_1262552" data-name="Path 1262552" d="M71.4,26.6a8.407,8.407,0,0,1-16.632,1.722A8.76,8.76,0,0,1,54.6,26.6a8.4,8.4,0,0,1,16.8,0Z" fill="#02a9f4"/>
          <path id="Path_1262553" data-name="Path 1262553" d="M68.74,20.478a8.3,8.3,0,0,0-7.84-2.006A8.387,8.387,0,0,1,63,33.862a8.092,8.092,0,0,1-2.1.862A8.358,8.358,0,0,0,63,35a8.2,8.2,0,0,0,4.2-1.134,8.376,8.376,0,0,0,1.54-13.384Z" fill="#0377bc"/>
          <path id="Path_1262554" data-name="Path 1262554" d="M56,70a8.487,8.487,0,0,1-.364,2.478h-.014a7.571,7.571,0,0,1-.756,1.722,8.385,8.385,0,0,1-14.532,0,7.571,7.571,0,0,1-.756-1.722h-.014A8.487,8.487,0,0,1,39.2,70,8.4,8.4,0,1,1,56,70Z" fill="#02a9f4"/>
          <path id="Path_1262555" data-name="Path 1262555" d="M56,70a8.487,8.487,0,0,1-.364,2.478h-.014a7.571,7.571,0,0,1-.756,1.722A8.379,8.379,0,0,1,47.6,78.4a8,8,0,0,1-2.1-.28,8.4,8.4,0,0,0,5.924-5.642h.014A8.4,8.4,0,0,0,45.5,61.88a8,8,0,0,1,2.1-.28A8.413,8.413,0,0,1,56,70Z" fill="#0377bc"/>
          <circle id="Ellipse_12491" data-name="Ellipse 12491" cx="2.8" cy="2.8" r="2.8" transform="translate(44.804 67.196)" fill="#f5f5f5"/>
          <circle id="Ellipse_12492" data-name="Ellipse 12492" cx="2.8" cy="2.8" r="2.8" transform="translate(60.204 23.796)" fill="#f5f5f5"/>
          <path id="Path_1262556" data-name="Path 1262556" d="M72.776,18.224l-4.032,2.254A8.389,8.389,0,0,0,54.6,26.6a8.76,8.76,0,0,0,.168,1.722l-7.644,4.284a2.8,2.8,0,0,1-3.808-1.064l-4.788-8.554a2.8,2.8,0,0,1,1.064-3.808L65.24,4.8a2.786,2.786,0,0,1,3.808,1.064l4.788,8.554a2.786,2.786,0,0,1-1.06,3.808Z" fill="#607d8b"/>
          <path id="Path_1262557" data-name="Path 1262557" d="M73.84,14.42,69.052,5.866A2.786,2.786,0,0,0,65.244,4.8l-.844.472a2.709,2.709,0,0,1,.456.588l4.788,8.554a2.786,2.786,0,0,1-1.064,3.808l-1.68.935a8.4,8.4,0,0,1,1.842,1.319l4.032-2.254a2.786,2.786,0,0,0,1.065-3.8Z" fill="#37474f"/>
          <path id="Path_1262558" data-name="Path 1262558" d="M81.176,10.3,73.84,14.416,69.052,5.862l7.322-4.1A2.811,2.811,0,0,1,80.2,2.824L82.24,6.492A2.8,2.8,0,0,1,81.176,10.3Z" fill="#9e9e9e"/>
          <path id="Path_1262559" data-name="Path 1262559" d="M82.24,6.492,80.2,2.824A2.811,2.811,0,0,0,76.374,1.76l-.84.47A2.694,2.694,0,0,1,76,2.824l2.044,3.668A2.8,2.8,0,0,1,76.978,10.3l-4.141,2.323,1,1.793L81.176,10.3A2.8,2.8,0,0,0,82.24,6.492Z" fill="#707070"/>
          <path id="Path_1262560" data-name="Path 1262560" d="M43.32,31.538l-3.668,2.044a2.8,2.8,0,0,1-3.808-1.064L33.786,28.85a2.8,2.8,0,0,1,1.078-3.808l3.668-2.058Z" fill="#9e9e9e"/>
          <path id="Path_1262561" data-name="Path 1262561" d="M42,44.8v2.8H22.4V44.8A2.808,2.808,0,0,1,25.2,42h14A2.808,2.808,0,0,1,42,44.8Z" fill="#02a9f4"/>
          <path id="Path_1262562" data-name="Path 1262562" d="M39.2,42H35a2.808,2.808,0,0,1,2.8,2.8v2.8H42V44.8A2.808,2.808,0,0,0,39.2,42Z" fill="#0377bc"/>
          <circle id="Ellipse_12493" data-name="Ellipse 12493" cx="16.8" cy="16.8" r="16.8" transform="translate(1.4 29.4)" fill="#a4c400"/>
          <path id="Path_1262563" data-name="Path 1262563" d="M18.2,29.4a16.755,16.755,0,0,0-2.1.14,16.785,16.785,0,0,1,0,33.309A16.8,16.8,0,1,0,18.2,29.4Z" fill="#90ac00"/>
          <circle id="Ellipse_12494" data-name="Ellipse 12494" cx="2.8" cy="2.8" r="2.8" transform="translate(9.8 46.2)" fill="#60a917"/>
        </g>
        <g id="Icons">
          <path id="Path_1262564" data-name="Path 1262564" d="M47.6,74.2A4.2,4.2,0,1,0,43.4,70,4.2,4.2,0,0,0,47.6,74.2Zm0-5.6A1.4,1.4,0,1,1,46.2,70,1.4,1.4,0,0,1,47.6,68.6Z"/>
          <path id="Path_1262565" data-name="Path 1262565" d="M63,30.8a4.2,4.2,0,1,0-4.2-4.2A4.2,4.2,0,0,0,63,30.8Zm0-5.6a1.4,1.4,0,1,1-1.4,1.4A1.4,1.4,0,0,1,63,25.2Z"/>
          <path id="Path_1262566" data-name="Path 1262566" d="M39.2,40.6H35.51A18.235,18.235,0,1,0,27.84,61.608,21.094,21.094,0,0,0,37.162,72.8H19.6a5.6,5.6,0,1,0,0,11.2h56a5.6,5.6,0,0,0,0-11.2H58.047A21.059,21.059,0,0,0,68.6,54.6V34.63a9.758,9.758,0,0,0,2.328-13.77l2.53-1.414a4.157,4.157,0,0,0,2.069-4.374l6.327-3.549a4.2,4.2,0,0,0,1.609-5.718l-2.055-3.66A4.2,4.2,0,0,0,75.69.538L69.363,4.087a4.126,4.126,0,0,0-4.808-.505L38.906,17.961a4.186,4.186,0,0,0-2.061,4.364l-2.67,1.5a4.2,4.2,0,0,0-1.61,5.718L34.621,33.2a4.2,4.2,0,0,0,5.718,1.609L43,33.319a4.155,4.155,0,0,0,4.809.51L53.96,30.38a9.831,9.831,0,0,0,3.44,4.25V54.6a9.741,9.741,0,0,1-3.766,7.7,9.74,9.74,0,0,0-12.068,0A9.741,9.741,0,0,1,37.8,54.6h5.6a4.2,4.2,0,1,0,0-8.4V44.8a4.2,4.2,0,0,0-4.2-4.2ZM2.8,46.2A15.4,15.4,0,1,1,18.2,61.6,15.4,15.4,0,0,1,2.8,46.2ZM78.4,78.4a2.8,2.8,0,0,1-2.8,2.8h-56a2.8,2.8,0,1,1,0-5.6H39.57a9.778,9.778,0,0,0,16.061,0H75.6A2.8,2.8,0,0,1,78.4,78.4ZM77.059,2.979a1.4,1.4,0,0,1,1.907.536l2.055,3.662a1.4,1.4,0,0,1-.536,1.907l-6.105,3.424L70.955,6.4ZM38.968,32.369a1.4,1.4,0,0,1-1.905-.536l-2.055-3.662a1.4,1.4,0,0,1,.538-1.907l2.442-1.369L40.124,28.7l1.285,2.295Zm7.47-.98a1.4,1.4,0,0,1-1.9-.524v-.01c-.078-.14-5.109-9.121-4.788-8.55a1.4,1.4,0,0,1,.528-1.9L65.94,6.02a1.383,1.383,0,0,1,1.889.532l4.794,8.568a1.387,1.387,0,0,1-.533,1.89L68.9,18.8A9.78,9.78,0,0,0,53.2,26.6c0,.326.018.65.049.969ZM56,26.6a7,7,0,1,1,7,7,7,7,0,0,1-7-7Zm4.2,28V35.98a9.7,9.7,0,0,0,5.6,0V54.6a18.26,18.26,0,0,1-8.4,15.334,9.736,9.736,0,0,0-1.82-5.6A12.527,12.527,0,0,0,60.2,54.6ZM47.6,63a7,7,0,1,1-7,7A7,7,0,0,1,47.6,63Zm-7.98,1.334A9.745,9.745,0,0,0,37.8,69.9a18.2,18.2,0,0,1-7.587-10.072A18.279,18.279,0,0,0,34.329,54.6H35a12.527,12.527,0,0,0,4.62,9.734ZM44.8,50.4a1.411,1.411,0,0,1-1.4,1.4H35.51a18.181,18.181,0,0,0,.652-2.8H43.4A1.4,1.4,0,0,1,44.8,50.4Zm-8.4-4.2a18.278,18.278,0,0,0-.238-2.8H39.2a1.4,1.4,0,0,1,1.4,1.4v1.4Z"/>
          <path id="Path_1262567" data-name="Path 1262567" d="M15.4,40.6a1.4,1.4,0,0,0,.99-.41l2.8-2.8a1.4,1.4,0,1,0-1.98-1.98l-2.8,2.8a1.4,1.4,0,0,0,.99,2.39Z"/>
          <path id="Path_1262568" data-name="Path 1262568" d="M28.99,50.81l-2.8-2.8a1.4,1.4,0,1,0-1.98,1.98l2.8,2.8a1.4,1.4,0,1,0,1.98-1.98Z"/>
          <path id="Path_1262569" data-name="Path 1262569" d="M16.8,47.6h-.258a3.844,3.844,0,0,0-.164-.4l.181-.181a1.4,1.4,0,1,0-1.98-1.98l-.18.181a3.842,3.842,0,0,0-.4-.164V44.8a1.4,1.4,0,1,0-2.8,0v.258a3.842,3.842,0,0,0-.4.164l-.181-.181a1.4,1.4,0,1,0-1.98,1.98l.181.18a3.844,3.844,0,0,0-.164.4H8.4a1.4,1.4,0,0,0,0,2.8h.258a3.845,3.845,0,0,0,.164.4l-.181.181a1.4,1.4,0,1,0,1.98,1.98l.18-.181a3.843,3.843,0,0,0,.4.164V53.2a1.4,1.4,0,1,0,2.8,0v-.258a3.847,3.847,0,0,0,.4-.164l.181.181a1.4,1.4,0,1,0,1.98-1.98l-.181-.18a3.844,3.844,0,0,0,.164-.4H16.8a1.4,1.4,0,0,0,0-2.8ZM11.2,49a1.4,1.4,0,1,1,1.4,1.4A1.4,1.4,0,0,1,11.2,49Z"/>
          <circle id="Ellipse_12495" data-name="Ellipse 12495" cx="1.4" cy="1.4" r="1.4" transform="translate(25.2 36.4)"/>
          <circle id="Ellipse_12496" data-name="Ellipse 12496" cx="1.4" cy="1.4" r="1.4" transform="translate(18.2 56)"/>
          <circle id="Ellipse_12497" data-name="Ellipse 12497" cx="1.4" cy="1.4" r="1.4" transform="translate(8.4 37.8)"/>
          <circle id="Ellipse_12498" data-name="Ellipse 12498" cx="1.4" cy="1.4" r="1.4" transform="translate(19.6 43.4)"/>
        </g>
      </g>
    </g>
  </g>
</svg>
