<svg xmlns="http://www.w3.org/2000/svg" xmlns:xlink="http://www.w3.org/1999/xlink" width="113.842" height="101.604" viewBox="0 0 113.842 101.604">
  <defs>
    <clipPath id="clip-path">
      <rect id="Rectangle_410857" data-name="Rectangle 410857" width="85" height="84" transform="translate(-2150.672 -8485.676)" fill="#fff" stroke="#707070" stroke-width="1"/>
    </clipPath>
  </defs>
  <g id="Group_1203826" data-name="Group 1203826" transform="translate(2160.941 8496.403)">
    <g id="Group_1203676" data-name="Group 1203676" transform="translate(-2160.941 -8496.403)">
      <ellipse id="Ellipse_12452" data-name="Ellipse 12452" cx="28.658" cy="28.658" rx="28.658" ry="28.658" transform="translate(56.527 44.289)" fill="#ffc94a"/>
      <ellipse id="Ellipse_12453" data-name="Ellipse 12453" cx="20.842" cy="20.842" rx="20.842" ry="20.842" fill="#ffc94a"/>
    </g>
    <g id="Mask_Group_1099398" data-name="Mask Group 1099398" clip-path="url(#clip-path)">
      <g id="training_1729009" transform="translate(-2150.172 -8485.676)">
        <path id="Path_1262570" data-name="Path 1262570" d="M44.8,58.8V78.861a2.8,2.8,0,0,0,2.38,2.772c1.61.238,4.046.532,7.42.728H71.4c3.374-.2,5.81-.49,7.42-.728a2.8,2.8,0,0,0,2.38-2.772V58.8Zm0,0" fill="#989faa"/>
        <path id="Path_1262571" data-name="Path 1262571" d="M49,1.4h2.8a2.8,2.8,0,0,1,2.8,2.8V16.8H46.2V4.2A2.8,2.8,0,0,1,49,1.4Zm0,0" fill="#abb1bb"/>
        <path id="Path_1262572" data-name="Path 1262572" d="M35,48.066V79.8a2.8,2.8,0,0,1-2.8,2.8H4.2a2.8,2.8,0,0,1-2.8-2.8V48.066a5.6,5.6,0,0,1,1.12-3.36l1.96-2.613a5.6,5.6,0,0,0,1.12-3.36V35H30.8v3.734a5.6,5.6,0,0,0,1.12,3.36l1.96,2.613A5.6,5.6,0,0,1,35,48.066Zm0,0" fill="#5ec4e8"/>
        <path id="Path_1262573" data-name="Path 1262573" d="M5.6,29.4H30.8a2.8,2.8,0,1,1,0,5.6H5.6a2.8,2.8,0,1,1,0-5.6Zm0,0" fill="#656d77"/>
        <path id="Path_1262574" data-name="Path 1262574" d="M12.6,57.4v14a5.6,5.6,0,1,0,11.2,0V35H12.6Zm0,0" fill="#4ab1d9"/>
        <path id="Path_1262575" data-name="Path 1262575" d="M23.8,29.4H12.6V7A5.6,5.6,0,0,1,23.8,7Zm0,0" fill="#a3d274"/>
        <path id="Path_1262576" data-name="Path 1262576" d="M1.4,50.4H35v7H1.4Zm0,0" fill="#e5e8eb"/>
        <path id="Path_1262577" data-name="Path 1262577" d="M82.6,18.2V60.815a2.784,2.784,0,0,1-1.4,2.422,2.917,2.917,0,0,1-.714.294l-6.972,1.736A2.789,2.789,0,0,0,71.4,67.983V82.361c-2.338.14-5.124.238-8.4.238s-6.062-.1-8.4-.238V67.983a2.789,2.789,0,0,0-2.114-2.716l-6.972-1.736a2.917,2.917,0,0,1-.714-.294,2.782,2.782,0,0,1-1.4-2.422V18.2a2.808,2.808,0,0,1,2.8-2.8H79.8a2.809,2.809,0,0,1,2.8,2.8Zm0,0" fill="#cbd1d7"/>
        <path id="Path_1262578" data-name="Path 1262578" d="M67.2,61.6A4.2,4.2,0,1,1,63,57.4,4.2,4.2,0,0,1,67.2,61.6Zm0,0" fill="#656d77"/>
        <path id="Path_1262579" data-name="Path 1262579" d="M51.8,21H74.2A2.8,2.8,0,0,1,77,23.8V49a2.8,2.8,0,0,1-2.8,2.8H51.8A2.8,2.8,0,0,1,49,49V23.8A2.8,2.8,0,0,1,51.8,21Zm0,0" fill="#5ec4e8"/>
        <path id="Path_1262580" data-name="Path 1262580" d="M71.4,39.2A8.4,8.4,0,1,1,63,30.8,8.4,8.4,0,0,1,71.4,39.2Zm0,0" fill="#fff"/>
        <g id="Group_1203800" data-name="Group 1203800">
          <path id="Path_1262581" data-name="Path 1262581" d="M4.2,84h28a4.2,4.2,0,0,0,4.2-4.2V48.066a7.033,7.033,0,0,0-1.4-4.2L33.04,41.25a4.217,4.217,0,0,1-.84-2.52V36.142A4.19,4.19,0,0,0,30.8,28H25.2V25.2h1.4a1.4,1.4,0,1,0,0-2.8H25.2V7a7,7,0,1,0-14,0V22.4H9.8a1.4,1.4,0,1,0,0,2.8h1.4V28H5.6a4.19,4.19,0,0,0-1.4,8.142v2.591a4.229,4.229,0,0,1-.84,2.521L1.4,43.866a7.039,7.039,0,0,0-1.4,4.2V65.8a1.4,1.4,0,1,0,2.8,0v-7h8.4V71.4a7,7,0,0,0,14,0V58.8h8.4v21a1.4,1.4,0,0,1-1.4,1.4H4.2a1.4,1.4,0,0,1-1.4-1.4V71.4a1.4,1.4,0,0,0-2.8,0v8.4A4.2,4.2,0,0,0,4.2,84ZM32.76,45.547a4.217,4.217,0,0,1,.84,2.52V49H25.2V36.4h4.2v2.333a7.033,7.033,0,0,0,1.4,4.2ZM14,49V36.4h8.4V49ZM14,7a4.2,4.2,0,1,1,8.4,0V22.4H14Zm0,18.2h8.4V28H14ZM5.6,30.8H30.8a1.4,1.4,0,0,1,0,2.8H5.6a1.4,1.4,0,0,1,0-2.8ZM3.641,45.545,5.6,42.933a7.043,7.043,0,0,0,1.4-4.2V36.4h4.2V49H2.8v-.934a4.229,4.229,0,0,1,.84-2.521ZM22.4,71.4a4.2,4.2,0,0,1-8.4,0V58.8h8.4ZM2.8,56V51.8H33.6V56Zm0,0" fill="#373737"/>
          <path id="Path_1262582" data-name="Path 1262582" d="M63,56a5.6,5.6,0,1,0,5.6,5.6A5.6,5.6,0,0,0,63,56Zm0,8.4a2.8,2.8,0,1,1,2.8-2.8A2.8,2.8,0,0,1,63,64.4Zm0,0" fill="#373737"/>
          <path id="Path_1262583" data-name="Path 1262583" d="M51.8,53.2H74.2A4.2,4.2,0,0,0,78.4,49V37.8a1.4,1.4,0,0,0-2.8,0V49a1.4,1.4,0,0,1-1.4,1.4H51.8A1.4,1.4,0,0,1,50.4,49V23.8a1.4,1.4,0,0,1,1.4-1.4H74.2a1.4,1.4,0,0,1,1.4,1.4v7a1.4,1.4,0,0,0,2.8,0v-7a4.2,4.2,0,0,0-4.2-4.2H51.8a4.2,4.2,0,0,0-4.2,4.2V49A4.2,4.2,0,0,0,51.8,53.2Zm0,0" fill="#373737"/>
          <path id="Path_1262584" data-name="Path 1262584" d="M63,49a9.785,9.785,0,0,0,6.537-17.08l3.028-4.542a1.4,1.4,0,1,0-2.33-1.554l-3.027,4.54A9.8,9.8,0,1,0,63,49Zm0-16.8a6.969,6.969,0,0,1,2.635.524l-3.8,5.7a1.4,1.4,0,0,0,2.33,1.553l3.8-5.7A7,7,0,1,1,63,32.2Zm0,0" fill="#373737"/>
          <path id="Path_1262585" data-name="Path 1262585" d="M46.974,83.019c2.226.33,4.76.579,7.542.74,2.675.16,5.53.241,8.484.241s5.809-.081,8.484-.241c2.781-.161,5.32-.41,7.546-.741a4.178,4.178,0,0,0,3.57-4.157V63.913a4.186,4.186,0,0,0,1.4-3.1V18.2A4.2,4.2,0,0,0,79.8,14H56V4.2A4.2,4.2,0,0,0,51.8,0H49a4.2,4.2,0,0,0-4.2,4.2V14.257A4.2,4.2,0,0,0,42,18.2V60.815a4.187,4.187,0,0,0,1.4,3.1V78.861a4.18,4.18,0,0,0,3.574,4.158ZM46.2,78.861V65.141l5.95,1.482a1.389,1.389,0,0,1,1.05,1.356V70H50.4a1.4,1.4,0,0,0,0,2.8h2.8v2.8H50.4a1.4,1.4,0,0,0,0,2.8h2.8v2.468c-2.119-.153-4.068-.36-5.808-.618A1.4,1.4,0,0,1,46.2,78.861Zm32.412,1.386c-1.744.261-3.693.468-5.813.62V78.4h2.8a1.4,1.4,0,0,0,0-2.8H72.8V72.8h2.8a1.4,1.4,0,0,0,0-2.8H72.8V67.983a1.39,1.39,0,0,1,1.051-1.357L79.8,65.144v13.72a1.391,1.391,0,0,1-1.187,1.383ZM47.6,4.2A1.4,1.4,0,0,1,49,2.8h2.8a1.4,1.4,0,0,1,1.4,1.4V14H47.6Zm-2.8,14a1.4,1.4,0,0,1,1.4-1.4H79.8a1.4,1.4,0,0,1,1.4,1.4V60.815a1.388,1.388,0,0,1-.718,1.221,1.492,1.492,0,0,1-.333.14l-6.97,1.736A4.183,4.183,0,0,0,70,67.983V81.035c-4.465.219-9.535.219-14,0V67.983a4.183,4.183,0,0,0-3.176-4.075l-6.935-1.726a1.572,1.572,0,0,1-.392-.16,1.372,1.372,0,0,1-.7-1.207Zm0,0" fill="#373737"/>
          <path id="Path_1262586" data-name="Path 1262586" d="M64.4,75.6H61.6a1.4,1.4,0,1,0,0,2.8h2.8a1.4,1.4,0,0,0,0-2.8Zm0,0" fill="#373737"/>
          <path id="Path_1262587" data-name="Path 1262587" d="M64.4,70H61.6a1.4,1.4,0,1,0,0,2.8h2.8a1.4,1.4,0,0,0,0-2.8Zm0,0" fill="#373737"/>
          <path id="Path_1262588" data-name="Path 1262588" d="M49,58.8h2.8a1.4,1.4,0,0,0,0-2.8H49a1.4,1.4,0,1,0,0,2.8Zm0,0" fill="#373737"/>
          <path id="Path_1262589" data-name="Path 1262589" d="M77,56H74.2a1.4,1.4,0,0,0,0,2.8H77A1.4,1.4,0,1,0,77,56Zm0,0" fill="#373737"/>
          <path id="Path_1262590" data-name="Path 1262590" d="M56,28a1.4,1.4,0,1,0,0-2.8H54.6a1.4,1.4,0,1,0,0,2.8Zm0,0" fill="#373737"/>
        </g>
      </g>
    </g>
  </g>
</svg>
