<svg xmlns="http://www.w3.org/2000/svg" xmlns:xlink="http://www.w3.org/1999/xlink" width="113.842" height="101.604" viewBox="0 0 113.842 101.604">
  <defs>
    <clipPath id="clip-path">
      <rect id="Rectangle_411591" data-name="Rectangle 411591" width="85" height="82" transform="translate(285.051 3803)" fill="#fff" stroke="#707070" stroke-width="1"/>
    </clipPath>
  </defs>
  <g id="Group_1204601" data-name="Group 1204601" transform="translate(-270 -3792.917)">
    <g id="Group_1204581" data-name="Group 1204581" transform="translate(270 3792.917)">
      <ellipse id="Ellipse_12770" data-name="Ellipse 12770" cx="28.658" cy="28.658" rx="28.658" ry="28.658" transform="translate(56.527 44.289)" fill="#ffc94a"/>
      <ellipse id="Ellipse_12771" data-name="Ellipse 12771" cx="20.842" cy="20.842" rx="20.842" ry="20.842" fill="#ffc94a"/>
    </g>
    <g id="Mask_Group_1099417" data-name="Mask Group 1099417" clip-path="url(#clip-path)">
      <g id="fish_1130998" transform="translate(286.551 3803)">
        <path id="Path_1263594" data-name="Path 1263594" d="M80.782,41A39.763,39.763,0,1,1,59.68,5.868,39.768,39.768,0,0,1,80.782,41Zm0,0" fill="#43b9dd"/>
        <path id="Path_1263595" data-name="Path 1263595" d="M29.666,75.8c3.358,3.172,7.221,4.978,11.334,4.978A39.782,39.782,0,1,1,41,1.218a16.326,16.326,0,0,0-10.98,4.65c-7.38,6.688-12.4,19.913-12.4,35.132,0,14.975,4.863,28.018,12.049,34.8Zm0,0" fill="#2ca3bf"/>
        <path id="Path_1263596" data-name="Path 1263596" d="M60.282,75.8a39.83,39.83,0,0,1-38.564,0q.3-.165.6-.326a39.839,39.839,0,0,1,37.36,0c.2.107.4.216.6.326Zm0,0" fill="#2ca3bf"/>
        <path id="Path_1263597" data-name="Path 1263597" d="M70.545,14.359c-4.157,2.408-10.157,1.47-14.859,3C50.863,18.92,46.343,23.71,41,23.71s-9.865-4.79-14.686-6.356c-4.7-1.526-10.7-.587-14.859-2.994h0a39.762,39.762,0,0,1,59.091,0Zm0,0" fill="#65d5ef"/>
        <path id="Path_1263598" data-name="Path 1263598" d="M59.68,5.868A39.614,39.614,0,0,1,41,10.517,39.619,39.619,0,0,1,22.32,5.868a39.839,39.839,0,0,1,37.36,0Zm0,0" fill="#eaeaea"/>
        <g id="Group_1204594" data-name="Group 1204594">
          <path id="Path_1263599" data-name="Path 1263599" d="M31.805,32.306A11.319,11.319,0,0,0,22,37.958a11.323,11.323,0,0,0,19.6,0A11.318,11.318,0,0,0,31.805,32.306Zm0,0" fill="#edd464"/>
          <path id="Path_1263600" data-name="Path 1263600" d="M22,37.958A11.333,11.333,0,0,1,8.548,43.006a11.354,11.354,0,0,0,6.145-5.049A11.366,11.366,0,0,0,8.548,32.91,11.331,11.331,0,0,1,22,37.958Zm0,0" fill="#edd464"/>
          <path id="Path_1263601" data-name="Path 1263601" d="M43.679,55.255a11.319,11.319,0,0,1,9.8,5.652,11.323,11.323,0,0,1-19.6,0A11.317,11.317,0,0,1,43.679,55.255Zm0,0" fill="#edd464"/>
          <path id="Path_1263602" data-name="Path 1263602" d="M53.48,60.907a11.332,11.332,0,0,0,13.456,5.049,11.355,11.355,0,0,1-6.144-5.049,11.37,11.37,0,0,1,6.144-5.048A11.333,11.333,0,0,0,53.48,60.907Zm0,0" fill="#edd464"/>
        </g>
        <path id="Path_1263603" data-name="Path 1263603" d="M62.976,37.2a4.493,4.493,0,1,1-4.493-4.493A4.492,4.492,0,0,1,62.976,37.2Zm0,0" fill="#65d5ef"/>
        <path id="Path_1263604" data-name="Path 1263604" d="M54.424,47.268a2.761,2.761,0,1,1-2.76-2.76A2.76,2.76,0,0,1,54.424,47.268Zm0,0" fill="#65d5ef"/>
        <path id="Path_1263605" data-name="Path 1263605" d="M22.381,25.239a2.814,2.814,0,1,1-2.815-2.815A2.814,2.814,0,0,1,22.381,25.239Zm0,0" fill="#65d5ef"/>
        <path id="Path_1263606" data-name="Path 1263606" d="M78.629,24.693a1.218,1.218,0,0,0-2.235.97,38.6,38.6,0,0,1-8.125,42.606,38.776,38.776,0,0,1-7.991,6.147A41.154,41.154,0,0,0,33.256,70.34a1.218,1.218,0,1,0,.457,2.392,38.741,38.741,0,0,1,23.925,3.079,38.753,38.753,0,0,1-33.276,0,38.3,38.3,0,0,1,5.8-2.222,1.218,1.218,0,1,0-.683-2.338,40.765,40.765,0,0,0-7.748,3.167,38.792,38.792,0,0,1-8-6.15,38.568,38.568,0,0,1-1.989-52.395,24.6,24.6,0,0,0,8.025,1.638,28.814,28.814,0,0,1,6.172,1,27.269,27.269,0,0,1,5.345,2.728C34.3,23.054,37.413,24.927,41,24.927s6.7-1.873,9.713-3.685a27.3,27.3,0,0,1,5.348-2.73,28.82,28.82,0,0,1,6.172-1,24.6,24.6,0,0,0,8.018-1.636,38.665,38.665,0,0,1,3.809,5.256,1.218,1.218,0,0,0,2.086-1.256A40.977,40.977,0,0,0,41,0,41,41,0,0,0,12.009,69.991a41.01,41.01,0,0,0,66.621-45.3ZM56.922,5.868A38.722,38.722,0,0,1,41,9.3,38.712,38.712,0,0,1,25.066,5.861a38.707,38.707,0,0,1,31.855.006Zm-34.6,1.375A41.111,41.111,0,0,0,41,11.735,41.11,41.11,0,0,0,59.669,7.248q.3.164.592.334A38.753,38.753,0,0,1,68.5,13.968a26.378,26.378,0,0,1-6.485,1.119,31.013,31.013,0,0,0-6.7,1.109,29.481,29.481,0,0,0-5.851,2.959c-2.853,1.716-5.548,3.337-8.458,3.337s-5.607-1.621-8.461-3.338A29.45,29.45,0,0,0,26.692,16.2a31.03,31.03,0,0,0-6.7-1.109,26.389,26.389,0,0,1-6.489-1.12c.078-.079.153-.158.231-.236a38.743,38.743,0,0,1,8.592-6.488Zm0,0"/>
        <path id="Path_1263607" data-name="Path 1263607" d="M8.155,41.853a1.218,1.218,0,0,0,0,2.305A12.542,12.542,0,0,0,22,40.1a12.535,12.535,0,0,0,20.655-1.535,1.22,1.22,0,0,0,0-1.222A12.535,12.535,0,0,0,22,35.812a12.542,12.542,0,0,0-13.85-4.055,1.218,1.218,0,0,0,0,2.3,10.122,10.122,0,0,1,5.1,3.9,10.106,10.106,0,0,1-5.1,3.9Zm23.65-8.329a10.149,10.149,0,0,1,8.363,4.434,10.1,10.1,0,0,1-16.725,0,10.147,10.147,0,0,1,8.363-4.434ZM15.746,38.569a1.218,1.218,0,0,0,0-1.222,12.605,12.605,0,0,0-3.426-3.822,10.151,10.151,0,0,1,8.247,4.434,10.149,10.149,0,0,1-8.245,4.434,12.6,12.6,0,0,0,3.425-3.823Zm0,0"/>
        <path id="Path_1263608" data-name="Path 1263608" d="M34.505,39.122A1.217,1.217,0,0,0,35.723,37.9V36.713a1.218,1.218,0,0,0-2.435,0V37.9A1.218,1.218,0,0,0,34.505,39.122Zm0,0"/>
        <path id="Path_1263609" data-name="Path 1263609" d="M67.329,57.011a1.218,1.218,0,0,0,0-2.305,12.545,12.545,0,0,0-13.85,4.055A12.535,12.535,0,0,0,32.825,60.3a1.22,1.22,0,0,0,0,1.222,12.536,12.536,0,0,0,20.654,1.535,12.543,12.543,0,0,0,13.85,4.054,1.218,1.218,0,0,0,0-2.305,10.1,10.1,0,0,1-5.1-3.9,10.122,10.122,0,0,1,5.1-3.9ZM43.679,65.342a10.149,10.149,0,0,1-8.363-4.434,10.1,10.1,0,0,1,16.725,0A10.148,10.148,0,0,1,43.679,65.342ZM59.738,60.3a1.22,1.22,0,0,0,0,1.222,12.587,12.587,0,0,0,3.425,3.822,10.146,10.146,0,0,1-8.245-4.434,10.152,10.152,0,0,1,8.247-4.434A12.6,12.6,0,0,0,59.738,60.3Zm0,0"/>
        <path id="Path_1263610" data-name="Path 1263610" d="M40.979,58.445a1.218,1.218,0,0,0-1.218,1.217v1.191a1.218,1.218,0,0,0,2.436,0V59.662A1.218,1.218,0,0,0,40.979,58.445Zm0,0"/>
        <path id="Path_1263611" data-name="Path 1263611" d="M64.193,37.2a5.71,5.71,0,1,0-5.711,5.711A5.717,5.717,0,0,0,64.193,37.2Zm-8.985,0a3.275,3.275,0,1,1,3.275,3.274A3.278,3.278,0,0,1,55.208,37.2Zm0,0"/>
        <path id="Path_1263612" data-name="Path 1263612" d="M47.685,47.268a3.978,3.978,0,1,0,3.978-3.978A3.983,3.983,0,0,0,47.685,47.268Zm5.52,0a1.542,1.542,0,1,1-1.542-1.543A1.544,1.544,0,0,1,53.206,47.268Zm0,0"/>
        <path id="Path_1263613" data-name="Path 1263613" d="M23.6,25.239a4.032,4.032,0,1,0-4.033,4.033A4.037,4.037,0,0,0,23.6,25.239Zm-5.629,0a1.6,1.6,0,1,1,1.6,1.6,1.6,1.6,0,0,1-1.6-1.6Zm0,0"/>
      </g>
    </g>
  </g>
</svg>
