<svg xmlns="http://www.w3.org/2000/svg" xmlns:xlink="http://www.w3.org/1999/xlink" width="105.479" height="87.991" viewBox="0 0 105.479 87.991">
  <defs>
    <clipPath id="clip-path">
      <rect id="Rectangle_410836" data-name="Rectangle 410836" width="75.895" height="72.761" transform="translate(509.271 6734.576)" fill="#fff" stroke="#707070" stroke-width="1"/>
    </clipPath>
  </defs>
  <g id="Group_1204568" data-name="Group 1204568" transform="translate(-495 -6726.85)">
    <g id="Group_1203661" data-name="Group 1203661" transform="translate(254.164 16.113)">
      <g id="Group_1203659" data-name="Group 1203659" transform="translate(240.836 6710.736)">
        <ellipse id="Ellipse_12452" data-name="Ellipse 12452" cx="28.658" cy="28.658" rx="28.658" ry="28.658" transform="translate(48.164 30.676)" fill="#c0d85c"/>
        <ellipse id="Ellipse_12453" data-name="Ellipse 12453" cx="20.842" cy="20.842" rx="20.842" ry="20.842" fill="#c0d85c"/>
      </g>
    </g>
    <g id="Mask_Group_1099413" data-name="Mask Group 1099413" clip-path="url(#clip-path)">
      <g id="hold_3102590" transform="translate(513.869 6734.576)">
        <path id="Path_1263490" data-name="Path 1263490" d="M16.22,26.528,9.1,32.227A18.158,18.158,0,0,0,2.274,46.416V70.487H27.285V66.577a3.445,3.445,0,0,0,.758-.182,8.93,8.93,0,0,0,5.851-4.729l.03-.03c.152-.333.3-.667.424-1a9.093,9.093,0,0,0,.515-3.032v-3.4Z" fill="#ffcc80"/>
        <path id="Path_1263491" data-name="Path 1263491" d="M34.865,54.571V57.6a9.093,9.093,0,0,1-.515,3.032c-.121.333-.273.667-.424,1l-.03.03a8.93,8.93,0,0,1-5.851,4.729,3.445,3.445,0,0,1-.758.182v3.911H3.032V54.571Z" fill="#ffa726"/>
        <path id="Path_1263492" data-name="Path 1263492" d="M18.19,30.366l-4.8,4.772A14.748,14.748,0,0,0,9.047,45.476H18.19Z" fill="#ffa726"/>
        <path id="Path_1263493" data-name="Path 1263493" d="M60.474,55.329H21.383a4.2,4.2,0,0,1-4.19-4.19V6.464a4.2,4.2,0,0,1,4.19-4.19H60.477a4.2,4.2,0,0,1,4.19,4.19V51.142a4.2,4.2,0,0,1-4.193,4.187Z" fill="#eceff1"/>
        <path id="Path_1263494" data-name="Path 1263494" d="M54.7,11.621H48.383a1.9,1.9,0,0,0-1.895,1.895V34.989a1.9,1.9,0,0,0,1.895,1.895H54.7a1.9,1.9,0,0,0,1.895-1.895V13.515A1.9,1.9,0,0,0,54.7,11.621Z" fill="#2196f3"/>
        <path id="Path_1263495" data-name="Path 1263495" d="M36.193,23.5H30.508A1.707,1.707,0,0,0,28.8,25.2V35.435a1.7,1.7,0,0,0,1.707,1.7h5.684a1.706,1.706,0,0,0,1.707-1.7V25.2A1.711,1.711,0,0,0,36.193,23.5Z" fill="#64b5f6"/>
        <path id="Path_1263496" data-name="Path 1263496" d="M31.894,33.349a7.088,7.088,0,0,1-2.122,5.093L24.254,43.96A10.517,10.517,0,0,1,25.345,48.6a10.252,10.252,0,0,1-2.425,6.639L18.19,60.907v9.58H3.032v-22.4L22.253,33.258l5.427-5.033a1.511,1.511,0,0,1,2.092.03,7.088,7.088,0,0,1,2.122,5.093Z" fill="#ffcc80"/>
        <path id="Path_1263497" data-name="Path 1263497" d="M55.329,39.412H47.75a2.275,2.275,0,0,1-2.274-2.274V11.369A2.275,2.275,0,0,1,47.75,9.1h7.579A2.275,2.275,0,0,1,57.6,11.369v25.77A2.275,2.275,0,0,1,55.329,39.412Zm-5.306-4.548h3.032V13.643H50.023Z"/>
        <path id="Path_1263498" data-name="Path 1263498" d="M37.139,39.412H30.8a2.274,2.274,0,1,1,0-4.548h4.063v-9.1H31.833V28.1a2.274,2.274,0,1,1-4.548,0V23.5a2.275,2.275,0,0,1,2.274-2.274h7.579A2.275,2.275,0,0,1,39.412,23.5V37.139A2.275,2.275,0,0,1,37.139,39.412Z"/>
        <path id="Path_1263499" data-name="Path 1263499" d="M58.361,39.412H30.8a2.274,2.274,0,1,1,0-4.548H58.361a2.274,2.274,0,0,1,0,4.548Z"/>
        <path id="Path_1263500" data-name="Path 1263500" d="M20.464,60.634a2.274,2.274,0,0,1-1.78-3.687l2.48-3.129a8.12,8.12,0,0,0,1.058-8.844,2.268,2.268,0,0,1,.427-2.625l5.487-5.487a4.982,4.982,0,0,0,.476-6.482l-15.7,14.489a2.274,2.274,0,1,1-3.086-3.341L26.1,26.509a3.774,3.774,0,0,1,5.248.109,9.522,9.522,0,0,1,0,13.461L26.937,44.49A12.636,12.636,0,0,1,24.69,56.684L22.244,59.77a2.254,2.254,0,0,1-1.78.864Z"/>
        <path id="Path_1263501" data-name="Path 1263501" d="M28.043,72.761H2.274A2.275,2.275,0,0,1,0,70.487V46.422A20.364,20.364,0,0,1,7.688,30.435L14.8,24.751A2.274,2.274,0,0,1,17.639,28.3l-7.112,5.684A15.844,15.844,0,0,0,4.548,46.422V68.214H25.77V64.43a2.275,2.275,0,0,1,2.274-2.274,5.311,5.311,0,0,0,5.306-5.306V55.329a2.274,2.274,0,0,1,4.548,0v1.522a9.872,9.872,0,0,1-7.579,9.589v4.047A2.275,2.275,0,0,1,28.043,72.761Z"/>
        <path id="Path_1263502" data-name="Path 1263502" d="M61.392,57.6H23.5a2.274,2.274,0,1,1,0-4.548h37.9a.766.766,0,0,0,.758-.758V5.306a.766.766,0,0,0-.758-.758H20.464a.766.766,0,0,0-.758.758V36.381a2.274,2.274,0,0,1-4.548,0V5.306A5.311,5.311,0,0,1,20.464,0H61.392A5.311,5.311,0,0,1,66.7,5.306V52.3A5.311,5.311,0,0,1,61.392,57.6Z"/>
      </g>
    </g>
  </g>
</svg>
