<svg xmlns="http://www.w3.org/2000/svg" xmlns:xlink="http://www.w3.org/1999/xlink" width="105.479" height="87.991" viewBox="0 0 105.479 87.991">
  <defs>
    <clipPath id="clip-path">
      <rect id="Rectangle_410845" data-name="Rectangle 410845" width="75.895" height="72.761" transform="translate(256.53 2125.188)" fill="#fff" stroke="#707070" stroke-width="1"/>
    </clipPath>
  </defs>
  <g id="Group_1203797" data-name="Group 1203797" transform="translate(-242.26 -2117.46)">
    <g id="Group_1203665" data-name="Group 1203665" transform="translate(1.424 -4593.276)">
      <g id="Group_1203659" data-name="Group 1203659" transform="translate(240.836 6710.736)">
        <ellipse id="Ellipse_12452" data-name="Ellipse 12452" cx="28.658" cy="28.658" rx="28.658" ry="28.658" transform="translate(48.164 30.676)" fill="#c0d85c"/>
        <ellipse id="Ellipse_12453" data-name="Ellipse 12453" cx="20.842" cy="20.842" rx="20.842" ry="20.842" fill="#c0d85c"/>
      </g>
    </g>
    <g id="Mask_Group_1099391" data-name="Mask Group 1099391" clip-path="url(#clip-path)">
      <g id="balance_545468" transform="translate(256.53 2123.621)">
        <path id="Path_1262426" data-name="Path 1262426" d="M67.049,31.733a4.267,4.267,0,0,0-4.086-2.863H12.932a4.267,4.267,0,0,0-4.086,2.863L2.761,51.542H73.133Z" fill="#585a60"/>
        <path id="Path_1262427" data-name="Path 1262427" d="M15.9,28.87H12.932a4.267,4.267,0,0,0-4.086,2.863L2.761,51.542H5.726l6.085-19.809A4.267,4.267,0,0,1,15.9,28.87Z" fill="#414356"/>
        <path id="Path_1262428" data-name="Path 1262428" d="M35.412,43.6a2.2,2.2,0,0,1-2.2,2.2H15.62a2.2,2.2,0,0,1-2.2-2.2V36.759a2.2,2.2,0,0,1,2.2-2.2H33.213a2.2,2.2,0,0,1,2.2,2.2Z" fill="#6edcf9"/>
        <path id="Path_1262429" data-name="Path 1262429" d="M16.386,43.6V36.759a2.2,2.2,0,0,1,2.2-2.2H15.62a2.2,2.2,0,0,0-2.2,2.2V43.6a2.2,2.2,0,0,0,2.2,2.2h2.965A2.2,2.2,0,0,1,16.386,43.6Z" fill="#49b5ce"/>
        <g id="Group_1203772" data-name="Group 1203772">
          <circle id="Ellipse_12468" data-name="Ellipse 12468" cx="2.291" cy="2.291" r="2.291" transform="translate(40.514 33.766)" fill="#414356"/>
          <circle id="Ellipse_12469" data-name="Ellipse 12469" cx="2.291" cy="2.291" r="2.291" transform="translate(40.514 42.186)" fill="#414356"/>
          <circle id="Ellipse_12470" data-name="Ellipse 12470" cx="2.291" cy="2.291" r="2.291" transform="translate(48.96 33.766)" fill="#414356"/>
          <circle id="Ellipse_12471" data-name="Ellipse 12471" cx="2.291" cy="2.291" r="2.291" transform="translate(48.96 42.186)" fill="#414356"/>
          <circle id="Ellipse_12472" data-name="Ellipse 12472" cx="2.291" cy="2.291" r="2.291" transform="translate(57.406 33.766)" fill="#414356"/>
          <circle id="Ellipse_12473" data-name="Ellipse 12473" cx="2.291" cy="2.291" r="2.291" transform="translate(57.406 42.186)" fill="#414356"/>
        </g>
        <path id="Path_1262430" data-name="Path 1262430" d="M66.169,22.3a2.2,2.2,0,0,1-2.2,2.2H11.924a2.2,2.2,0,0,1-2.2-2.2V21.67a2.2,2.2,0,0,1,2.2-2.2H63.97a2.2,2.2,0,0,1,2.2,2.2V22.3Z" fill="#eae9e8"/>
        <path id="Path_1262431" data-name="Path 1262431" d="M63.97,21.986H11.924a2.2,2.2,0,0,1-1.985-1.257A3.173,3.173,0,0,0,9.725,22.3a2.2,2.2,0,0,0,2.2,2.2H63.97a2.2,2.2,0,0,0,2.2-2.2,3.173,3.173,0,0,0-.214-1.573A2.2,2.2,0,0,1,63.97,21.986Z" fill="#ddd"/>
        <path id="Path_1262432" data-name="Path 1262432" d="M72.584,51.394H3.311a2.2,2.2,0,0,0-2.2,2.2v.631a2.2,2.2,0,0,0,2.2,2.2H72.584a2.2,2.2,0,0,0,2.2-2.2v-.631A2.2,2.2,0,0,0,72.584,51.394Z" fill="#eae9e8"/>
        <path id="Path_1262433" data-name="Path 1262433" d="M72.584,54.057H3.311a2.2,2.2,0,0,1-2.021-1.332,3.316,3.316,0,0,0-.178,1.5,2.2,2.2,0,0,0,2.2,2.2H72.584a2.2,2.2,0,0,0,2.2-2.2,3.32,3.32,0,0,0-.178-1.5A2.2,2.2,0,0,1,72.584,54.057Z" fill="#ddd"/>
        <g id="Group_1203773" data-name="Group 1203773">
          <path id="Path_1262434" data-name="Path 1262434" d="M42.8,36.056a2.288,2.288,0,0,1,1.145-1.982,2.291,2.291,0,1,0,0,3.963A2.288,2.288,0,0,1,42.8,36.056Z" fill="#2e3244"/>
          <path id="Path_1262435" data-name="Path 1262435" d="M43.949,42.495a2.291,2.291,0,1,0,0,3.963A2.288,2.288,0,0,1,43.949,42.495Z" fill="#2e3244"/>
          <path id="Path_1262436" data-name="Path 1262436" d="M51.25,36.056A2.288,2.288,0,0,1,52.4,34.075a2.29,2.29,0,1,0,0,3.963A2.288,2.288,0,0,1,51.25,36.056Z" fill="#2e3244"/>
          <path id="Path_1262437" data-name="Path 1262437" d="M52.4,42.495a2.29,2.29,0,1,0,0,3.963A2.288,2.288,0,0,1,52.4,42.495Z" fill="#2e3244"/>
          <path id="Path_1262438" data-name="Path 1262438" d="M60.842,34.075a2.29,2.29,0,1,0,0,3.963A2.288,2.288,0,0,1,60.842,34.075Z" fill="#2e3244"/>
          <path id="Path_1262439" data-name="Path 1262439" d="M60.842,42.495a2.29,2.29,0,1,0,0,3.963A2.288,2.288,0,0,1,60.842,42.495Z" fill="#2e3244"/>
        </g>
        <g id="Group_1203774" data-name="Group 1203774">
          <path id="Path_1262440" data-name="Path 1262440" d="M15.62,33.374a3.315,3.315,0,0,0-3.311,3.311v6.841a3.315,3.315,0,0,0,3.311,3.311H33.213a3.315,3.315,0,0,0,3.311-3.311V36.685a3.315,3.315,0,0,0-3.311-3.311H15.62ZM34.3,36.685v6.841a1.089,1.089,0,0,1-1.087,1.087H15.62a1.089,1.089,0,0,1-1.087-1.087V36.685A1.089,1.089,0,0,1,15.62,35.6H33.213A1.088,1.088,0,0,1,34.3,36.685Z" fill="#020202"/>
          <path id="Path_1262441" data-name="Path 1262441" d="M42.8,32.58a3.4,3.4,0,1,0,3.4,3.4A3.407,3.407,0,0,0,42.8,32.58Zm0,4.581a1.179,1.179,0,1,1,1.179-1.179A1.18,1.18,0,0,1,42.8,37.161Z" fill="#020202"/>
          <path id="Path_1262442" data-name="Path 1262442" d="M42.8,41a3.4,3.4,0,1,0,3.4,3.4A3.407,3.407,0,0,0,42.8,41Zm0,4.582A1.179,1.179,0,1,1,43.982,44.4,1.18,1.18,0,0,1,42.8,45.581Z" fill="#020202"/>
          <path id="Path_1262443" data-name="Path 1262443" d="M51.25,32.58a3.4,3.4,0,1,0,3.4,3.4A3.407,3.407,0,0,0,51.25,32.58Zm0,4.581a1.179,1.179,0,1,1,1.179-1.179A1.18,1.18,0,0,1,51.25,37.161Z" fill="#020202"/>
          <path id="Path_1262444" data-name="Path 1262444" d="M51.25,41a3.4,3.4,0,1,0,3.4,3.4A3.407,3.407,0,0,0,51.25,41Zm0,4.582A1.179,1.179,0,1,1,52.429,44.4,1.18,1.18,0,0,1,51.25,45.581Z" fill="#020202"/>
          <path id="Path_1262445" data-name="Path 1262445" d="M59.7,32.58a3.4,3.4,0,1,0,3.4,3.4A3.407,3.407,0,0,0,59.7,32.58Zm0,4.581a1.179,1.179,0,1,1,1.179-1.179A1.18,1.18,0,0,1,59.7,37.161Z" fill="#020202"/>
          <path id="Path_1262446" data-name="Path 1262446" d="M59.7,41a3.4,3.4,0,1,0,3.4,3.4A3.407,3.407,0,0,0,59.7,41Zm0,4.582A1.179,1.179,0,1,1,60.876,44.4,1.18,1.18,0,0,1,59.7,45.581Z" fill="#020202"/>
          <path id="Path_1262447" data-name="Path 1262447" d="M11.925,20.509H18.4a1.112,1.112,0,0,0,0-2.224H11.925A3.315,3.315,0,0,0,8.613,21.6v.631a3.315,3.315,0,0,0,3.311,3.311H63.971a3.315,3.315,0,0,0,3.311-3.311V21.6a3.315,3.315,0,0,0-3.311-3.311H23.589a1.112,1.112,0,1,0,0,2.224H63.97A1.088,1.088,0,0,1,65.058,21.6v.631a1.088,1.088,0,0,1-1.087,1.087H11.925a1.088,1.088,0,0,1-1.087-1.087V21.6A1.088,1.088,0,0,1,11.925,20.509Z" fill="#020202"/>
          <path id="Path_1262448" data-name="Path 1262448" d="M1.832,50.706A3.315,3.315,0,0,0,0,53.667V54.3a3.315,3.315,0,0,0,3.311,3.311H72.583A3.315,3.315,0,0,0,75.895,54.3v-.631a3.314,3.314,0,0,0-1.832-2.961l-1.24-4.035a1.112,1.112,0,1,0-2.126.653l.931,3.033H4.266L9.909,31.985a3.146,3.146,0,0,1,3.023-2.077h50.03a3.107,3.107,0,0,1,3.023,2.077L69.1,42.135a1.112,1.112,0,1,0,2.126-.653L68.112,31.332a5.37,5.37,0,0,0-5.149-3.648H12.932a5.37,5.37,0,0,0-5.149,3.648ZM72.584,52.58a1.089,1.089,0,0,1,1.087,1.087V54.3a1.089,1.089,0,0,1-1.087,1.087H3.311A1.089,1.089,0,0,1,2.224,54.3v-.631A1.089,1.089,0,0,1,3.311,52.58Z" fill="#020202"/>
        </g>
      </g>
    </g>
  </g>
</svg>
