<svg xmlns="http://www.w3.org/2000/svg" xmlns:xlink="http://www.w3.org/1999/xlink" width="113.842" height="101.604" viewBox="0 0 113.842 101.604">
  <defs>
    <clipPath id="clip-path">
      <rect id="Rectangle_410909" data-name="Rectangle 410909" width="85" height="84" transform="translate(1935.519 -9221.631)" fill="#fff" stroke="#707070" stroke-width="1"/>
    </clipPath>
  </defs>
  <g id="Group_1204603" data-name="Group 1204603" transform="translate(-1925.249 9232.358)">
    <g id="Group_1203709" data-name="Group 1203709" transform="translate(1925.249 -9232.358)">
      <ellipse id="Ellipse_12452" data-name="Ellipse 12452" cx="28.658" cy="28.658" rx="28.658" ry="28.658" transform="translate(56.527 44.289)" fill="#c0d85c"/>
      <ellipse id="Ellipse_12453" data-name="Ellipse 12453" cx="20.842" cy="20.842" rx="20.842" ry="20.842" fill="#c0d85c"/>
    </g>
    <g id="Mask_Group_1099406" data-name="Mask Group 1099406" clip-path="url(#clip-path)">
      <g id="eye-test_15756018" transform="translate(1935.936 -9221.713)">
        <g id="Group_1203854" data-name="Group 1203854">
          <g id="Group_1203837" data-name="Group 1203837">
            <path id="Path_1262668" data-name="Path 1262668" d="M7.254,10.761H65.327A1.671,1.671,0,0,1,67,12.426V81.163a1.674,1.674,0,0,1-1.67,1.665H7.254a1.673,1.673,0,0,1-1.665-1.665V12.426a1.67,1.67,0,0,1,1.665-1.665Z" fill="#9e5015" fill-rule="evenodd"/>
          </g>
          <g id="Group_1203838" data-name="Group 1203838">
            <path id="Path_1262669" data-name="Path 1262669" d="M64.251,10.761h1.076A1.671,1.671,0,0,1,67,12.426V81.163a1.674,1.674,0,0,1-1.67,1.665H7.254a1.673,1.673,0,0,1-1.665-1.665v-.543h57a1.671,1.671,0,0,0,1.665-1.67V10.761Z" fill="#964a10" fill-rule="evenodd"/>
          </g>
          <g id="Group_1203839" data-name="Group 1203839">
            <path id="Path_1262670" data-name="Path 1262670" d="M10.311,15.233H62.274V78.357H10.311Z" fill="#e2f0fa" fill-rule="evenodd"/>
          </g>
          <path id="Path_1262671" data-name="Path 1262671" d="M47.681,7.254H42.212a5.919,5.919,0,0,0-11.837,0H24.906a1.233,1.233,0,0,0-1.231,1.23v8.476a1.235,1.235,0,0,0,1.231,1.228H47.681a1.234,1.234,0,0,0,1.23-1.228V8.484a1.232,1.232,0,0,0-1.23-1.23Z" fill="#0fbebe" fill-rule="evenodd"/>
          <g id="Group_1203840" data-name="Group 1203840">
            <path id="Path_1262672" data-name="Path 1262672" d="M47.111,7.254h.571A1.231,1.231,0,0,1,48.91,8.483v8.475a1.234,1.234,0,0,1-1.229,1.229H24.9a1.234,1.234,0,0,1-1.229-1.229v-.571H45.881a1.235,1.235,0,0,0,1.229-1.234v-7.9Z" fill="#0ab0b0" fill-rule="evenodd"/>
          </g>
          <g id="Group_1203841" data-name="Group 1203841">
            <path id="Path_1262673" data-name="Path 1262673" d="M59.737,15.233h2.537V78.357H10.311V75.982H59.737Z" fill="#d0e4f2" fill-rule="evenodd"/>
          </g>
          <g id="Group_1203842" data-name="Group 1203842">
            <path id="Path_1262674" data-name="Path 1262674" d="M78.218,26.881,51.091,65.545l-8.336,4.5,1.4-9.366L71.283,22.015a1.993,1.993,0,0,1,2.765-.482l3.683,2.584A1.991,1.991,0,0,1,78.218,26.881Z" fill="#ffd54f" fill-rule="evenodd"/>
          </g>
          <g id="Group_1203843" data-name="Group 1203843">
            <path id="Path_1262675" data-name="Path 1262675" d="M52.408,32.415a18.62,18.62,0,0,1-32.235,0,18.31,18.31,0,0,1,16.12-9.291A18.3,18.3,0,0,1,52.408,32.415Z" fill="#ffdaaa" fill-rule="evenodd"/>
          </g>
          <g id="Group_1203844" data-name="Group 1203844">
            <path id="Path_1262676" data-name="Path 1262676" d="M52.408,32.415a18.3,18.3,0,0,1-16.115,9.3,18.582,18.582,0,0,1-12.919-5.135A19.685,19.685,0,0,0,51.448,30.87,16.5,16.5,0,0,1,52.408,32.415Z" fill="#ffc477" fill-rule="evenodd"/>
          </g>
          <g id="Group_1203845" data-name="Group 1203845">
            <path id="Path_1262677" data-name="Path 1262677" d="M36.293,41.711a9.294,9.294,0,1,0-9.3-9.3A9.312,9.312,0,0,0,36.293,41.711Z" fill="#0fbebe" fill-rule="evenodd"/>
          </g>
          <g id="Group_1203846" data-name="Group 1203846">
            <path id="Path_1262678" data-name="Path 1262678" d="M36.293,36.051a3.637,3.637,0,1,0-3.637-3.637,3.643,3.643,0,0,0,3.637,3.637Z" fill="#4a4d71" fill-rule="evenodd"/>
          </g>
          <g id="Group_1203847" data-name="Group 1203847">
            <path id="Path_1262679" data-name="Path 1262679" d="M34.725,32.327a1.443,1.443,0,1,0-1.443-1.443A1.447,1.447,0,0,0,34.725,32.327Z" fill="#e2f0fa" fill-rule="evenodd"/>
          </g>
          <g id="Group_1203848" data-name="Group 1203848">
            <path id="Path_1262680" data-name="Path 1262680" d="M36.293,23.123a9.294,9.294,0,0,1,0,18.588c-.283,0-.561-.014-.84-.042a9.292,9.292,0,0,0,0-18.509c.278-.028.557-.037.84-.037Z" fill="#0ab0b0" fill-rule="evenodd"/>
          </g>
          <g id="Group_1203849" data-name="Group 1203849">
            <path id="Path_1262681" data-name="Path 1262681" d="M78.218,26.881,51.091,65.545l-8.336,4.5.436-2.9,5.752-3.108L76.07,25.378a1.993,1.993,0,0,0-.482-2.765l2.143,1.5a1.991,1.991,0,0,1,.487,2.765Z" fill="#ffc328" fill-rule="evenodd"/>
          </g>
          <g id="Group_1203850" data-name="Group 1203850">
            <path id="Path_1262682" data-name="Path 1262682" d="M78.218,26.881l-2.7,3.85-6.935-4.866,2.7-3.85a1.993,1.993,0,0,1,2.765-.482l3.683,2.584A1.991,1.991,0,0,1,78.218,26.881Z" fill="#df646e" fill-rule="evenodd"/>
          </g>
          <g id="Group_1203851" data-name="Group 1203851">
            <path id="Path_1262683" data-name="Path 1262683" d="M78.218,26.881l-2.7,3.85-2.143-1.5,2.7-3.85a1.993,1.993,0,0,0-.482-2.765l2.143,1.5A1.991,1.991,0,0,1,78.218,26.881Z" fill="#d82f3c" fill-rule="evenodd"/>
          </g>
          <g id="Group_1203852" data-name="Group 1203852">
            <path id="Path_1262684" data-name="Path 1262684" d="M51.091,65.545l-6.935-4.866-1.4,9.366Z" fill="#4a4d71" fill-rule="evenodd"/>
          </g>
          <g id="Group_1203853" data-name="Group 1203853">
            <path id="Path_1262685" data-name="Path 1262685" d="M51.091,65.545l-2.148-1.508-5.752,3.108-.436,2.9Z" fill="#414470" fill-rule="evenodd"/>
          </g>
        </g>
        <path id="Path_1262686" data-name="Path 1262686" d="M36.278,21.926A19.466,19.466,0,0,0,19.11,31.837a1.148,1.148,0,0,0,0,1.106,19.468,19.468,0,0,0,17.168,9.916,19.463,19.463,0,0,0,17.163-9.916,1.148,1.148,0,0,0,0-1.106A19.461,19.461,0,0,0,36.278,21.926ZM21.442,32.39A16.626,16.626,0,0,1,27.7,26.4a10.43,10.43,0,0,0,0,11.973A16.635,16.635,0,0,1,21.442,32.39Zm14.836,8.171a8.169,8.169,0,1,1,8.167-8.171A8.18,8.18,0,0,1,36.278,40.561Zm8.575-2.183a10.434,10.434,0,0,0,0-11.974,16.626,16.626,0,0,1,6.256,5.986A16.636,16.636,0,0,1,44.853,38.379Zm-8.575-10.4a4.409,4.409,0,1,0,4.409,4.409,4.416,4.416,0,0,0-4.409-4.409Zm0,6.52a2.111,2.111,0,1,1,2.111-2.111A2.116,2.116,0,0,1,36.278,34.5ZM67.056,47.826a1.149,1.149,0,0,0-1.149,1.149V81.264a.528.528,0,0,1-.521.521H7.165a.528.528,0,0,1-.521-.521V12.351a.528.528,0,0,1,.521-.521H22.479v2.185H10.229a1.149,1.149,0,0,0-1.149,1.149V78.45A1.149,1.149,0,0,0,10.229,79.6h52.1a1.149,1.149,0,0,0,1.149-1.149V56.42a1.149,1.149,0,1,0-2.3,0V77.3h-49.8V16.313h11.1v.581a2.384,2.384,0,0,0,2.381,2.381H47.7a2.384,2.384,0,0,0,2.381-2.381v-.581h11.1v11.38a1.149,1.149,0,1,0,2.3,0V15.164a1.149,1.149,0,0,0-1.149-1.149H50.076V11.83h15.31a.521.521,0,0,1,.521.521v8.79a1.149,1.149,0,0,0,2.3,0v-8.79a2.821,2.821,0,0,0-2.818-2.818H50.076V8.4a2.384,2.384,0,0,0-2.381-2.381H43.267a7.086,7.086,0,0,0-13.984,0H24.86A2.384,2.384,0,0,0,22.479,8.4V9.532H7.165a2.822,2.822,0,0,0-2.819,2.818V81.264a2.822,2.822,0,0,0,2.819,2.818H65.386A2.822,2.822,0,0,0,68.2,81.264V48.974a1.149,1.149,0,0,0-1.149-1.149ZM24.777,8.4a.086.086,0,0,1,.084-.084h5.479a1.149,1.149,0,0,0,1.149-1.149,4.788,4.788,0,0,1,9.576,0,1.149,1.149,0,0,0,1.149,1.149H47.7a.086.086,0,0,1,.084.084v8.5a.089.089,0,0,1-.084.084H24.86a.089.089,0,0,1-.084-.084Zm10.061.2a2.033,2.033,0,1,1,2.876-2.876l.005.005a2.042,2.042,0,0,1-.005,2.87,2.006,2.006,0,0,1-1.429.6h-.007a2.023,2.023,0,0,1-1.44-.6ZM16.466,51.83a1.149,1.149,0,0,1,1.149-1.149H36.278a1.149,1.149,0,1,1,0,2.3H17.615A1.149,1.149,0,0,1,16.466,51.83Zm0,9.785a1.149,1.149,0,0,1,1.149-1.149H36.278a1.149,1.149,0,1,1,0,2.3H17.615A1.149,1.149,0,0,1,16.466,61.615Zm1.149,10.929a1.149,1.149,0,1,1,0-2.3H36.278a1.149,1.149,0,0,1,0,2.3ZM79.769,25.159a3.113,3.113,0,0,0-1.288-2.028l-3.694-2.591a3.146,3.146,0,0,0-4.371.765l-2.68,3.82c-.01.013-.021.026-.031.04s-.018.029-.027.043L52.912,46.254h-35.3a1.149,1.149,0,0,0,0,2.3H51.3l-5.25,7.483H17.615a1.149,1.149,0,0,0,0,2.3H44.438L43.22,60.067a1.149,1.149,0,0,0-.2.49l-.787,5.262H17.615a1.149,1.149,0,0,0,0,2.3H41.894l-.274,1.83A1.149,1.149,0,0,0,43.3,71.127l8.357-4.511a1.151,1.151,0,0,0,.395-.351L79.25,27.5a3.112,3.112,0,0,0,.519-2.344ZM44.232,68.014l.79-5.28,3.911,2.743Zm6.6-4.01L45.76,60.446,68.929,27.425,74,30.984ZM77.37,26.181h0L75.32,29.1l-5.072-3.559,2.049-2.92a.845.845,0,0,1,1.172-.2l3.694,2.591a.847.847,0,0,1,.207,1.17Z"/>
      </g>
    </g>
  </g>
</svg>
