<svg xmlns="http://www.w3.org/2000/svg" xmlns:xlink="http://www.w3.org/1999/xlink" width="105.479" height="87.991" viewBox="0 0 105.479 87.991">
  <defs>
    <clipPath id="clip-path">
      <rect id="Rectangle_410835" data-name="Rectangle 410835" width="75.895" height="72.761" transform="translate(256.53 6734.464)" fill="#fff" stroke="#707070" stroke-width="1"/>
    </clipPath>
  </defs>
  <g id="Group_1204569" data-name="Group 1204569" transform="translate(-242.26 -6726.736)">
    <g id="Group_1203660" data-name="Group 1203660" transform="translate(1.424 16)">
      <g id="Group_1203659" data-name="Group 1203659" transform="translate(240.836 6710.736)">
        <ellipse id="Ellipse_12452" data-name="Ellipse 12452" cx="28.658" cy="28.658" rx="28.658" ry="28.658" transform="translate(48.164 30.676)" fill="#c0d85c"/>
        <ellipse id="Ellipse_12453" data-name="Ellipse 12453" cx="20.842" cy="20.842" rx="20.842" ry="20.842" fill="#c0d85c"/>
      </g>
    </g>
    <g id="Mask_Group_1099412" data-name="Mask Group 1099412" clip-path="url(#clip-path)">
      <g id="kunai_1069595" transform="translate(258.097 6734.464)">
        <g id="Group_1204543" data-name="Group 1204543">
          <g id="Group_1204542" data-name="Group 1204542">
            <g id="Group_1204538" data-name="Group 1204538">
              <circle id="Ellipse_12763" data-name="Ellipse 12763" cx="35.313" cy="35.313" r="35.313" transform="translate(1.068 1.068)" fill="#f4f3f6"/>
              <path id="Path_1263480" data-name="Path 1263480" d="M6.764,36.381a35.315,35.315,0,0,1,32.465-35.2q-1.409-.113-2.848-.115a35.313,35.313,0,0,0,0,70.625q1.438,0,2.848-.115A35.315,35.315,0,0,1,6.764,36.381Z" fill="#e8e8ed"/>
              <circle id="Ellipse_12764" data-name="Ellipse 12764" cx="26.2" cy="26.2" r="26.2" transform="translate(10.181 10.181)" fill="#cfe759"/>
              <circle id="Ellipse_12765" data-name="Ellipse 12765" cx="17.087" cy="17.087" r="17.087" transform="translate(19.294 19.294)" fill="#f4f3f6"/>
              <circle id="Ellipse_12766" data-name="Ellipse 12766" cx="7.974" cy="7.974" r="7.974" transform="translate(28.407 28.407)" fill="#c86171"/>
            </g>
            <g id="Group_1204541" data-name="Group 1204541">
              <g id="Group_1204540" data-name="Group 1204540">
                <path id="Path_1263481" data-name="Path 1263481" d="M60.678,4.028A5.7,5.7,0,0,0,59.4,10.136l-5.3,5.3L43.63,21.077l-7.249,15.3,15.3-7.249L57.323,18.66l5.3-5.3a5.7,5.7,0,1,0-1.947-9.33Zm5.638,5.638a2.278,2.278,0,1,1,0-3.222A2.278,2.278,0,0,1,66.317,9.666Z" fill="#ffeb95"/>
                <g id="Group_1204539" data-name="Group 1204539">
                  <path id="Path_1263482" data-name="Path 1263482" d="M68.733,4.028a5.747,5.747,0,0,0-.586-.51,5.7,5.7,0,0,1-7.373,7.408l-5.3,5.3L49.833,26.7,38.4,32.116l-2.02,4.265,15.3-7.249L57.323,18.66l5.3-5.3a5.7,5.7,0,0,0,6.108-9.33Z" fill="#ffe572"/>
                </g>
              </g>
            </g>
          </g>
        </g>
        <g id="Group_1204545" data-name="Group 1204545">
          <g id="Group_1204544" data-name="Group 1204544">
            <path id="Path_1263483" data-name="Path 1263483" d="M51.061,14.651a1.068,1.068,0,0,0-.346-1.47,27.277,27.277,0,0,0-33.958,4.268,1.068,1.068,0,0,0,1.537,1.483A25.141,25.141,0,0,1,49.591,15,1.068,1.068,0,0,0,51.061,14.651Z"/>
            <path id="Path_1263484" data-name="Path 1263484" d="M14.751,21.553a1.068,1.068,0,0,0-1.472.336,27.268,27.268,0,1,0,46.285.131,1.068,1.068,0,1,0-1.815,1.126,25.132,25.132,0,1,1-42.662-.121A1.068,1.068,0,0,0,14.751,21.553Z"/>
            <path id="Path_1263485" data-name="Path 1263485" d="M41.813,20.14a1.068,1.068,0,0,0-.758-1.306,18.136,18.136,0,1,0,12.905,13,1.068,1.068,0,0,0-2.068.534A16,16,0,1,1,40.507,20.9,1.068,1.068,0,0,0,41.813,20.14Z"/>
            <path id="Path_1263486" data-name="Path 1263486" d="M36.381,29.475a1.068,1.068,0,1,0,0-2.136,9.042,9.042,0,1,0,9.042,9.042,1.068,1.068,0,0,0-2.136,0,6.906,6.906,0,1,1-6.906-6.906Z"/>
            <path id="Path_1263487" data-name="Path 1263487" d="M64.706,11.4a3.325,3.325,0,0,0,2.366-.98h0a3.346,3.346,0,1,0-2.366.98ZM63.85,7.2a1.2,1.2,0,0,1,.856-.355,1.21,1.21,0,1,1-1.21,1.21A1.2,1.2,0,0,1,63.85,7.2Z"/>
            <path id="Path_1263488" data-name="Path 1263488" d="M56.992,10.936l.05.05-.906.906-.05-.05a1.068,1.068,0,0,0-1.51,1.51l.05.05-.906.906-.05-.05a1.068,1.068,0,0,0-1.75,1.141l-8.8,4.736a1.066,1.066,0,0,0-.459.483l-7.249,15.3a1.076,1.076,0,0,0,1.422,1.422l15.3-7.249a1.067,1.067,0,0,0,.483-.459l4.736-8.8a1.068,1.068,0,0,0,1.141-1.75l-.05-.05.906-.906.05.05a1.068,1.068,0,1,0,1.51-1.51l-.05-.05.906-.906.05.05a1.068,1.068,0,0,0,1.783-1.043,6.764,6.764,0,1,0-5.573-5.573,1.067,1.067,0,0,0-1.043,1.783ZM44.445,21.851l8.968-4.829.408.408L39.985,31.266Zm6.466,6.466L41.5,32.776,55.331,18.94l.408.408Zm6.031-10.785L55.23,15.819l.906-.906,1.712,1.712Zm2.416-2.416L57.647,13.4l.906-.906,1.712,1.712ZM61.433,4.783a4.628,4.628,0,1,1,1.582,7.58,1.068,1.068,0,0,0-1.145.239l-.1.1-1.712-1.712.1-.1A1.068,1.068,0,0,0,60.4,9.746,4.63,4.63,0,0,1,61.433,4.783Z"/>
            <path id="Path_1263489" data-name="Path 1263489" d="M67.547,17.6a1.068,1.068,0,0,0-1.828,1.1A34.23,34.23,0,1,1,54.055,7.043a1.068,1.068,0,1,0,1.1-1.828A36.367,36.367,0,1,0,67.547,17.6Z"/>
          </g>
        </g>
      </g>
    </g>
  </g>
</svg>
