<svg xmlns="http://www.w3.org/2000/svg" xmlns:xlink="http://www.w3.org/1999/xlink" width="105.479" height="87.991" viewBox="0 0 105.479 87.991">
  <defs>
    <clipPath id="clip-path">
      <rect id="Rectangle_410847" data-name="Rectangle 410847" width="75.895" height="72.761" transform="translate(761.531 2125.188)" fill="#fff" stroke="#707070" stroke-width="1"/>
    </clipPath>
  </defs>
  <g id="Group_1203795" data-name="Group 1203795" transform="translate(-747.26 -2117.46)">
    <g id="Group_1203667" data-name="Group 1203667" transform="translate(506.424 -4593.276)">
      <g id="Group_1203659" data-name="Group 1203659" transform="translate(240.836 6710.736)">
        <ellipse id="Ellipse_12452" data-name="Ellipse 12452" cx="28.658" cy="28.658" rx="28.658" ry="28.658" transform="translate(48.164 30.676)" fill="#c0d85c"/>
        <ellipse id="Ellipse_12453" data-name="Ellipse 12453" cx="20.842" cy="20.842" rx="20.842" ry="20.842" fill="#c0d85c"/>
      </g>
    </g>
    <g id="Mask_Group_1099393" data-name="Mask Group 1099393" clip-path="url(#clip-path)">
      <g id="fish-pills_2180437" transform="translate(763.097 2125.188)">
        <path id="Path_1262468" data-name="Path 1262468" d="M45.494,53.469H4.483a3.417,3.417,0,0,1-3.418-3.418V4.483A3.418,3.418,0,0,1,4.483,1.066H45.494a3.417,3.417,0,0,1,3.418,3.418V50.051A3.418,3.418,0,0,1,45.494,53.469Z" fill="#eceaec"/>
        <path id="Path_1262469" data-name="Path 1262469" d="M48.7,50.051H5.623a1.14,1.14,0,0,1-1.139-1.139V1.066A3.418,3.418,0,0,0,1.066,4.483V50.051a3.417,3.417,0,0,0,3.418,3.418H45.494a3.417,3.417,0,0,0,3.418-3.418H48.7Z" fill="#dad8db"/>
        <circle id="Ellipse_12477" data-name="Ellipse 12477" cx="2.278" cy="2.278" r="2.278" transform="translate(6.762 11.319)" fill="#ffd064"/>
        <circle id="Ellipse_12478" data-name="Ellipse 12478" cx="2.278" cy="2.278" r="2.278" transform="translate(6.762 20.432)" fill="#ffc269"/>
        <circle id="Ellipse_12479" data-name="Ellipse 12479" cx="2.278" cy="2.278" r="2.278" transform="translate(6.762 29.546)" fill="#ffd064"/>
        <circle id="Ellipse_12480" data-name="Ellipse 12480" cx="2.278" cy="2.278" r="2.278" transform="translate(6.762 38.659)" fill="#ffc269"/>
        <circle id="Ellipse_12481" data-name="Ellipse 12481" cx="2.278" cy="2.278" r="2.278" transform="translate(14.736 6.762)" fill="#ffd064"/>
        <circle id="Ellipse_12482" data-name="Ellipse 12482" cx="2.278" cy="2.278" r="2.278" transform="translate(14.736 15.875)" fill="#ffc269"/>
        <circle id="Ellipse_12483" data-name="Ellipse 12483" cx="2.278" cy="2.278" r="2.278" transform="translate(14.736 24.989)" fill="#ffd064"/>
        <circle id="Ellipse_12484" data-name="Ellipse 12484" cx="2.278" cy="2.278" r="2.278" transform="translate(14.736 34.102)" fill="#ffc269"/>
        <circle id="Ellipse_12485" data-name="Ellipse 12485" cx="2.278" cy="2.278" r="2.278" transform="translate(14.736 43.216)" fill="#ffd064"/>
        <circle id="Ellipse_12486" data-name="Ellipse 12486" cx="2.278" cy="2.278" r="2.278" transform="translate(22.711 11.319)" fill="#ffc269"/>
        <circle id="Ellipse_12487" data-name="Ellipse 12487" cx="2.278" cy="2.278" r="2.278" transform="translate(30.685 6.762)" fill="#ffc269"/>
        <circle id="Ellipse_12488" data-name="Ellipse 12488" cx="2.278" cy="2.278" r="2.278" transform="translate(38.659 11.319)" fill="#ffd064"/>
        <path id="Path_1262470" data-name="Path 1262470" d="M69.417,17.015H24.989V71.7H69.417A2.278,2.278,0,0,0,71.7,69.417V19.293A2.278,2.278,0,0,0,69.417,17.015Z" fill="#ffc269"/>
        <g id="Group_1203793" data-name="Group 1203793">
          <path id="Path_1262471" data-name="Path 1262471" d="M39.982,34.671a5.7,5.7,0,0,0-2.914,4.092l-.837,5.115a1.06,1.06,0,0,0,1.6,1.076,10.961,10.961,0,0,1,4.242-1.737l1.139-10.253Z" fill="#ffa95f"/>
          <path id="Path_1262472" data-name="Path 1262472" d="M52.329,38.659l-2.278,9.825c1.781-.021,3.8-.033,5.182-.04a1.06,1.06,0,0,0,.952-1.511Z" fill="#ffa95f"/>
          <path id="Path_1262473" data-name="Path 1262473" d="M50.051,50.051h-5.7a35.865,35.865,0,0,0-3.162,10.644.569.569,0,0,0,.975.486,26.832,26.832,0,0,1,3.652-3.229,2.331,2.331,0,0,1,2.765,0,26.818,26.818,0,0,1,3.654,3.23.569.569,0,0,0,.975-.485,35.345,35.345,0,0,0-3.163-10.646Z" fill="#ffa95f"/>
        </g>
        <path id="Path_1262474" data-name="Path 1262474" d="M40.938,39.8a17.57,17.57,0,0,0,5.524,13.04,1.114,1.114,0,0,0,1.483,0A17.57,17.57,0,0,0,53.469,39.8a17.57,17.57,0,0,0-5.524-13.04,1.114,1.114,0,0,0-1.483,0A17.57,17.57,0,0,0,40.938,39.8Z" fill="#fff0af"/>
        <path id="Path_1262475" data-name="Path 1262475" d="M49.138,51.619a17,17,0,0,1,0-23.643l0,0a15.646,15.646,0,0,0-1.2-1.215,1.113,1.113,0,0,0-1.482,0A17.57,17.57,0,0,0,40.937,39.8a17.57,17.57,0,0,0,5.524,13.04,1.113,1.113,0,0,0,1.482,0,15.62,15.62,0,0,0,1.2-1.215Z" fill="#ffe07d"/>
        <path id="Path_1262476" data-name="Path 1262476" d="M47.2,38.089a11.891,11.891,0,0,0,5.957-1.6,17.152,17.152,0,0,0-5.216-9.732,1.114,1.114,0,0,0-1.483,0,17.153,17.153,0,0,0-5.216,9.732A11.891,11.891,0,0,0,47.2,38.089Z" fill="#fff"/>
        <path id="Path_1262477" data-name="Path 1262477" d="M49.138,27.977l0,0a15.646,15.646,0,0,0-1.2-1.215,1.113,1.113,0,0,0-1.482,0,17.063,17.063,0,0,0-5.095,9.05c-.041.231-.082.459-.121.682a11.975,11.975,0,0,0,3.241,1.264,16.288,16.288,0,0,1,4.651-9.778Z" fill="#fff0af"/>
        <path id="Path_1262478" data-name="Path 1262478" d="M30.685,68.278a4.557,4.557,0,0,1-4.557-4.557V17.015H24.989a2.278,2.278,0,0,0-2.278,2.278V69.417A2.278,2.278,0,0,0,24.989,71.7H69.417A2.278,2.278,0,0,0,71.7,69.417V68.278Z" fill="#ffa95f"/>
        <path id="Path_1262479" data-name="Path 1262479" d="M69.417,15.949h-26.1a3.344,3.344,0,1,0-4.75,0H35.477a3.343,3.343,0,0,0-5.027,0H27.364a3.343,3.343,0,1,0-4.125.5,3.345,3.345,0,0,0-1.594,2.848v27.34a1.066,1.066,0,0,0,2.132,0V19.293a1.214,1.214,0,0,1,1.212-1.213H69.417a1.214,1.214,0,0,1,1.213,1.213V69.417a1.214,1.214,0,0,1-1.213,1.213H24.989a1.214,1.214,0,0,1-1.212-1.213V51.19a1.066,1.066,0,0,0-2.132,0V52.4H4.483a2.354,2.354,0,0,1-2.352-2.352V4.483A2.354,2.354,0,0,1,4.483,2.132H45.494a2.354,2.354,0,0,1,2.352,2.352v7.975a1.066,1.066,0,1,0,2.132,0V4.483A4.488,4.488,0,0,0,45.494,0H4.483A4.488,4.488,0,0,0,0,4.483V50.051a4.488,4.488,0,0,0,4.483,4.483H21.645V69.417a3.348,3.348,0,0,0,3.344,3.344H69.417a3.348,3.348,0,0,0,3.344-3.344V19.293a3.348,3.348,0,0,0-3.344-3.344Zm-28.48-3.564A1.212,1.212,0,1,1,39.725,13.6,1.214,1.214,0,0,1,40.937,12.384Zm-15.949,0A1.212,1.212,0,1,1,23.776,13.6,1.214,1.214,0,0,1,24.989,12.384Z"/>
        <path id="Path_1262480" data-name="Path 1262480" d="M9.04,10.253A3.344,3.344,0,1,0,12.384,13.6,3.348,3.348,0,0,0,9.04,10.253Zm0,4.557A1.212,1.212,0,1,1,10.253,13.6,1.214,1.214,0,0,1,9.04,14.809Z"/>
        <path id="Path_1262481" data-name="Path 1262481" d="M9.04,19.366a3.344,3.344,0,1,0,3.344,3.344A3.348,3.348,0,0,0,9.04,19.366Zm0,4.557a1.212,1.212,0,1,1,1.212-1.212A1.214,1.214,0,0,1,9.04,23.923Z"/>
        <path id="Path_1262482" data-name="Path 1262482" d="M17.015,14.809a3.344,3.344,0,1,0,3.344,3.344A3.348,3.348,0,0,0,17.015,14.809Zm0,4.557a1.213,1.213,0,1,1,1.213-1.213A1.214,1.214,0,0,1,17.015,19.366Z"/>
        <path id="Path_1262483" data-name="Path 1262483" d="M17.015,5.7A3.344,3.344,0,1,0,20.359,9.04,3.348,3.348,0,0,0,17.015,5.7Zm0,4.557A1.212,1.212,0,1,1,18.227,9.04,1.214,1.214,0,0,1,17.015,10.253Z"/>
        <path id="Path_1262484" data-name="Path 1262484" d="M29.619,9.04A3.344,3.344,0,1,0,32.963,5.7,3.348,3.348,0,0,0,29.619,9.04Zm4.557,0a1.212,1.212,0,1,1-1.212-1.212A1.214,1.214,0,0,1,34.176,9.04Z"/>
        <path id="Path_1262485" data-name="Path 1262485" d="M17.015,23.923a3.344,3.344,0,1,0,3.344,3.344A3.348,3.348,0,0,0,17.015,23.923Zm0,4.557a1.212,1.212,0,1,1,1.213-1.212A1.214,1.214,0,0,1,17.015,28.48Z"/>
        <path id="Path_1262486" data-name="Path 1262486" d="M9.04,28.48a3.344,3.344,0,1,0,3.344,3.344A3.348,3.348,0,0,0,9.04,28.48Zm0,4.557a1.212,1.212,0,1,1,1.212-1.212A1.214,1.214,0,0,1,9.04,33.037Z"/>
        <path id="Path_1262487" data-name="Path 1262487" d="M9.04,37.593a3.344,3.344,0,1,0,3.344,3.344A3.348,3.348,0,0,0,9.04,37.593Zm0,4.557a1.213,1.213,0,1,1,1.212-1.213A1.214,1.214,0,0,1,9.04,42.15Z"/>
        <path id="Path_1262488" data-name="Path 1262488" d="M17.015,33.037a3.344,3.344,0,1,0,3.344,3.344A3.348,3.348,0,0,0,17.015,33.037Zm0,4.557a1.213,1.213,0,1,1,1.213-1.213A1.214,1.214,0,0,1,17.015,37.593Z"/>
        <path id="Path_1262489" data-name="Path 1262489" d="M17.015,42.15a3.344,3.344,0,1,0,3.344,3.344A3.348,3.348,0,0,0,17.015,42.15Zm0,4.557a1.213,1.213,0,1,1,1.213-1.213A1.214,1.214,0,0,1,17.015,46.707Z"/>
        <path id="Path_1262490" data-name="Path 1262490" d="M48.661,25.969a2.187,2.187,0,0,0-2.915,0,17.676,17.676,0,0,0-4.621,6.873l-1.649.891a6.805,6.805,0,0,0-3.459,4.857l-1.257,7.681a1.066,1.066,0,0,0,1.828.9,9.287,9.287,0,0,1,3.929-2.331,18.507,18.507,0,0,0,2.713,5.919,35.441,35.441,0,0,0-3.351,11.7,1.066,1.066,0,0,0,1.884.8,25.681,25.681,0,0,1,4.689-4.446,1.265,1.265,0,0,1,1.5,0,25.681,25.681,0,0,1,4.689,4.446,1.066,1.066,0,0,0,1.884-.8,35.438,35.438,0,0,0-3.35-11.7q.412-.59.777-1.215c2.856-.032,4.917-.043,4.938-.044a1.066,1.066,0,0,0,.966-1.5l-3.34-7.407c.01-.264.017-.528.017-.793a18.606,18.606,0,0,0-5.874-13.829ZM42,39.8q0-.884.085-1.75a12.456,12.456,0,0,0,10.23,0q.084.865.085,1.75a16.474,16.474,0,0,1-5.175,12.251.056.056,0,0,1-.05,0A16.474,16.474,0,0,1,42,39.8Zm5.175-12.25a.043.043,0,0,1,.025-.006.042.042,0,0,1,.025.006,15.9,15.9,0,0,1,4.738,8.3,10.332,10.332,0,0,1-9.525,0,15.9,15.9,0,0,1,4.738-8.3ZM37.3,43.936l.818-5a4.663,4.663,0,0,1,2.168-3.21,20.156,20.156,0,0,0-.2,7.03A10,10,0,0,0,37.3,43.936ZM51.856,59.292a27.964,27.964,0,0,0-2.64-2.2,3.389,3.389,0,0,0-4.026,0,27.965,27.965,0,0,0-2.64,2.2,32.116,32.116,0,0,1,2.16-6.69q.495.535,1.035,1.026a2.187,2.187,0,0,0,2.915,0q.54-.49,1.035-1.026A32.09,32.09,0,0,1,51.856,59.292Zm3.386-11.909-2.218.02a19.07,19.07,0,0,0,.94-2.854Z"/>
        <path id="Path_1262491" data-name="Path 1262491" d="M46.633,35.168a1.066,1.066,0,1,0,0-2.132h-.011a1.066,1.066,0,0,0,.011,2.132Z"/>
        <path id="Path_1262492" data-name="Path 1262492" d="M37.52,23.923H29.546a1.066,1.066,0,0,0,0,2.132H37.52a1.066,1.066,0,1,0,0-2.132Z"/>
        <path id="Path_1262493" data-name="Path 1262493" d="M29.546,30.611H34.1a1.066,1.066,0,1,0,0-2.132H29.546a1.066,1.066,0,1,0,0,2.132Z"/>
        <path id="Path_1262494" data-name="Path 1262494" d="M63.721,23.923H55.747a1.066,1.066,0,1,0,0,2.132h7.974a1.066,1.066,0,1,0,0-2.132Z"/>
        <path id="Path_1262495" data-name="Path 1262495" d="M63.721,28.48H59.165a1.066,1.066,0,0,0,0,2.132h4.557a1.066,1.066,0,1,0,0-2.132Z"/>
      </g>
    </g>
  </g>
</svg>
