<svg xmlns="http://www.w3.org/2000/svg" xmlns:xlink="http://www.w3.org/1999/xlink" width="113.842" height="101.604" viewBox="0 0 113.842 101.604">
  <defs>
    <clipPath id="clip-path">
      <rect id="Rectangle_410905" data-name="Rectangle 410905" width="85" height="84" transform="translate(1285.417 -9220.867)" fill="#fff" stroke="#707070" stroke-width="1"/>
    </clipPath>
  </defs>
  <g id="Group_1204602" data-name="Group 1204602" transform="translate(-1275.147 9231.595)">
    <g id="Group_1203707" data-name="Group 1203707" transform="translate(1275.147 -9231.595)">
      <ellipse id="Ellipse_12452" data-name="Ellipse 12452" cx="28.658" cy="28.658" rx="28.658" ry="28.658" transform="translate(56.527 44.289)" fill="#c0d85c"/>
      <ellipse id="Ellipse_12453" data-name="Ellipse 12453" cx="20.842" cy="20.842" rx="20.842" ry="20.842" fill="#c0d85c"/>
    </g>
    <g id="Mask_Group_1099404" data-name="Mask Group 1099404" clip-path="url(#clip-path)">
      <g id="markup_1179315" transform="translate(1285.417 -9217.755)">
        <g id="Group_1203833" data-name="Group 1203833">
          <path id="Path_1262642" data-name="Path 1262642" d="M1.66,1.66h21.8v21.8H1.66Zm0,0" fill="#ff8e8e" fill-rule="evenodd"/>
          <path id="Path_1262643" data-name="Path 1262643" d="M31.6,1.66H53.4v21.8H31.6Zm0,0" fill="#ff8e8e" fill-rule="evenodd"/>
          <path id="Path_1262644" data-name="Path 1262644" d="M61.539,1.66h21.8v21.8h-21.8Zm0,0" fill="#ff8e8e" fill-rule="evenodd"/>
        </g>
        <path id="Path_1262645" data-name="Path 1262645" d="M1.66,31.5H83.34V50.165H1.66Zm0,0" fill="#fec96b" fill-rule="evenodd"/>
        <path id="Path_1262646" data-name="Path 1262646" d="M11.273,76.115A9.613,9.613,0,1,0,1.66,66.5,9.632,9.632,0,0,0,11.273,76.115Zm0,0" fill="#a0e557" fill-rule="evenodd"/>
        <path id="Path_1262647" data-name="Path 1262647" d="M85,1.661c0-.055,0-.11-.008-.165,0-.023-.006-.045-.01-.067s-.008-.062-.014-.093-.012-.052-.019-.078-.012-.053-.021-.08-.017-.049-.026-.075-.018-.053-.029-.078-.02-.045-.03-.067S84.818.9,84.8.877s-.023-.041-.036-.06S84.737.764,84.72.738,84.689.7,84.674.675,84.641.63,84.623.608s-.058-.066-.089-.1C84.527.5,84.521.494,84.514.486L84.493.468c-.032-.031-.065-.062-.1-.091S84.351.346,84.33.33,84.285.3,84.262.28s-.049-.03-.073-.044S84.145.209,84.123.2s-.049-.024-.074-.036S84,.137,83.975.126,83.928.109,83.9.1,83.85.08,83.821.072,83.775.06,83.752.054s-.058-.016-.088-.021S83.612.024,83.586.02,83.53.011,83.5.008C83.458,0,83.414,0,83.37,0l-.03,0h-21.8L61.51,0c-.045,0-.089,0-.134.006-.028,0-.055.008-.083.012s-.052.007-.078.012-.058.014-.088.021-.046.011-.069.018S61,.091,60.975.1s-.047.016-.071.026-.049.023-.074.034-.049.023-.073.036-.045.026-.067.04-.049.028-.073.044-.045.033-.068.05-.042.03-.062.047-.068.06-.1.091l-.021.019-.02.023c-.031.032-.061.064-.089.1s-.034.045-.051.067-.032.041-.046.063-.032.053-.048.079-.025.04-.036.06-.026.053-.039.08-.021.044-.031.067-.019.052-.029.078-.019.049-.027.075-.014.053-.02.08-.014.052-.019.078-.01.062-.014.093-.008.045-.01.067c-.005.054-.008.11-.008.165v21.8c0,.055,0,.11.008.165,0,.022.006.043.01.064s.008.065.015.1.012.05.018.075.014.056.022.084.016.047.025.07.019.056.03.083.019.042.029.062.026.058.041.086l.032.054c.017.029.034.058.053.086s.025.035.038.053.038.053.058.078.041.046.062.069.03.035.047.051.035.031.052.047.045.043.069.062.051.039.077.058l.053.039c.028.019.056.035.086.052s.035.022.053.032.058.029.088.042l.06.028c.029.012.058.021.086.031l.067.024c.03.009.06.016.09.023s.045.012.067.017.073.012.109.017c.018,0,.034.006.052.007a1.56,1.56,0,0,0,.165.008h21.8a1.569,1.569,0,0,0,.165-.008c.018,0,.034-.005.052-.007.036-.005.073-.01.109-.017s.045-.011.067-.017.06-.014.089-.023.045-.016.067-.024.058-.019.087-.031l.06-.028c.029-.014.059-.027.088-.042s.036-.021.053-.032.058-.033.086-.052l.053-.039c.026-.019.052-.038.077-.058s.046-.041.069-.062.035-.03.052-.047.031-.034.047-.051.042-.045.062-.069.04-.052.058-.078.027-.034.038-.053.036-.057.053-.086.022-.036.032-.054.028-.057.041-.086.02-.041.029-.062.02-.055.03-.083.018-.046.025-.07.015-.056.022-.084.013-.049.018-.075.01-.064.015-.1.007-.042.01-.064c.005-.054.008-.11.008-.165V1.661ZM70.092,12.56,63.2,19.452V5.669ZM65.548,3.32H79.331l-6.892,6.892ZM72.44,14.908,79.331,21.8H65.548Zm2.348-2.348L81.68,5.668V19.452Zm0,0" fill-rule="evenodd"/>
        <path id="Path_1262648" data-name="Path 1262648" d="M.008,23.625c0,.021.006.043.009.064s.008.065.015.1.012.049.018.074.013.056.021.084.016.047.025.071.019.056.03.083.019.042.029.062.027.057.042.086.021.036.032.054.033.058.052.086l.038.052c.019.027.038.053.058.078s.042.045.062.068.03.035.047.052.034.031.051.047.045.042.069.062.052.039.078.058.034.027.053.039.057.035.086.052l.054.032c.029.015.058.029.087.042l.06.028c.029.012.058.021.086.031s.044.017.067.023.06.016.09.023l.067.017c.036.007.073.012.109.017l.052.007c.055.005.11.008.165.008h21.8c.055,0,.11,0,.165-.008l.049-.007c.038,0,.075-.01.112-.018s.043-.01.064-.016.063-.014.093-.024.042-.015.063-.022.061-.021.091-.033l.055-.025c.031-.014.062-.029.092-.045s.031-.019.047-.028.062-.036.092-.056.029-.021.043-.032c.03-.021.059-.042.088-.065s.027-.025.04-.036.054-.046.079-.071.051-.056.076-.084c.01-.012.022-.023.032-.036.025-.03.047-.061.069-.092l.029-.038c.021-.031.04-.064.058-.1.008-.014.018-.028.025-.042.017-.032.032-.064.046-.1.008-.017.017-.034.024-.051s.024-.063.034-.094.015-.039.021-.059.018-.065.025-.1.01-.04.014-.06c.008-.039.013-.078.018-.118,0-.014,0-.028.006-.043.005-.056.008-.113.008-.17V1.664c0-.056,0-.113-.008-.17,0-.016,0-.03-.007-.046,0-.038-.01-.077-.018-.115,0-.021-.01-.042-.015-.063s-.015-.064-.024-.094-.015-.042-.023-.064-.021-.06-.033-.09-.017-.038-.025-.056-.029-.062-.044-.091S24.9.842,24.894.826s-.035-.06-.055-.089S24.816.7,24.8.688s-.04-.055-.062-.082S24.7.563,24.684.541,24.652.5,24.634.486,24.6.458,24.586.443,24.539.4,24.514.377,24.466.34,24.441.323L24.383.28c-.026-.017-.053-.032-.08-.048s-.04-.025-.06-.036-.052-.025-.078-.038S24.12.136,24.1.126,24.046.108,24.021.1,23.969.08,23.942.071L23.869.053c-.028-.007-.056-.015-.085-.021S23.73.023,23.7.019s-.053-.008-.08-.011C23.578,0,23.533,0,23.487,0H1.63C1.586,0,1.541,0,1.5.008c-.028,0-.055.008-.083.012s-.052.006-.078.012-.059.014-.088.022S1.2.064,1.179.071,1.123.091,1.1.1s-.047.016-.071.026S.976.149.951.161L.878.2C.855.208.833.222.811.235S.762.264.738.28.693.313.67.33.628.36.608.377.54.436.508.467C.5.474.493.479.486.486L.466.509C.435.541.4.573.377.608S.343.652.326.675.294.716.28.737.248.79.232.816.208.856.2.877.171.931.158.958.136,1,.127,1.024.108,1.076.1,1.1s-.018.049-.026.075-.014.053-.021.08-.014.052-.019.078-.01.062-.014.093S.01,1.473.008,1.5C0,1.551,0,1.606,0,1.661v21.8c0,.054,0,.11.008.165Zm14.9-11.065L21.8,5.669V19.452Zm4.544,9.24H5.669l6.892-6.892ZM12.56,10.213,5.669,3.32H19.452ZM10.213,12.56,3.32,19.452V5.669Zm0,0" fill-rule="evenodd"/>
        <path id="Path_1262649" data-name="Path 1262649" d="M29.948,23.624c0,.029.008.056.012.085s.006.051.012.076.014.058.021.088.011.046.018.069.019.055.029.082l.026.071c.01.025.023.049.034.073s.023.051.036.075.025.043.038.065.029.051.045.075.032.044.049.066.031.043.048.064.06.069.091.1l.018.02.025.022c.031.03.063.06.1.088s.045.033.067.05.042.032.064.047.053.032.078.047l.06.036c.027.014.054.027.082.039s.043.021.065.03.054.02.082.03l.071.025c.029.008.058.015.086.022s.047.012.071.017.071.012.106.017l.054.008c.055.005.11.008.166.008H53.4c.055,0,.11,0,.165-.008l.053-.008c.036,0,.072-.01.108-.017s.046-.011.069-.017.059-.014.088-.023.045-.016.068-.024.057-.019.085-.031.042-.019.062-.029.058-.026.086-.041l.054-.033c.029-.016.057-.032.084-.051s.036-.026.054-.039.052-.037.077-.058.046-.041.069-.062.035-.03.052-.046.03-.035.047-.052.042-.045.062-.069.04-.052.058-.078.027-.034.039-.053.035-.057.052-.086.021-.035.032-.054.028-.057.041-.086.02-.041.029-.062.02-.055.03-.083.018-.047.025-.071.015-.056.022-.084.013-.049.018-.074.01-.065.014-.1.007-.042.01-.064q.008-.083.008-.165V1.661c0-.055,0-.11-.008-.165,0-.023-.007-.045-.01-.067s-.008-.062-.014-.093-.013-.052-.019-.078-.012-.053-.02-.08-.018-.049-.027-.075-.018-.053-.029-.078S54.912.98,54.9.958,54.877.9,54.863.877s-.023-.041-.036-.06S54.8.764,54.779.738,54.749.7,54.733.675,54.7.63,54.683.608s-.058-.066-.089-.1l-.02-.023L54.552.468c-.032-.031-.065-.062-.1-.091S54.41.346,54.39.33,54.345.3,54.321.28s-.049-.03-.073-.044S54.2.209,54.182.2s-.049-.024-.073-.036-.049-.024-.074-.034S53.987.109,53.964.1s-.055-.02-.083-.029S53.834.06,53.812.054s-.058-.016-.088-.021S53.671.024,53.645.02s-.054-.009-.082-.012C53.518,0,53.474,0,53.429,0L53.4,0H31.6l-.032,0c-.043,0-.087,0-.13.006s-.057.008-.086.012l-.075.011c-.03.006-.061.015-.091.023l-.066.017c-.029.009-.058.02-.087.03s-.045.016-.066.025-.053.024-.079.036L30.819.2c-.025.014-.049.029-.074.043s-.044.026-.065.04-.053.038-.078.058-.036.025-.053.039a1.676,1.676,0,0,0-.233.232c-.014.018-.027.036-.04.054s-.039.051-.057.077-.027.045-.041.068-.029.047-.042.071-.023.047-.034.071-.025.051-.036.077-.016.045-.025.067-.021.057-.03.086-.012.044-.017.066-.017.06-.023.091-.008.049-.011.073-.01.058-.013.088,0,.078-.006.118c0,.015,0,.029,0,.045v21.8c0,.014,0,.027,0,.042,0,.04,0,.08.006.121Zm14.9-11.063L51.74,5.668V19.452Zm4.544,9.24H35.608L42.5,14.908ZM42.5,10.213,35.608,3.32H49.392ZM40.152,12.56,33.26,19.453V5.668Zm0,0" fill-rule="evenodd"/>
        <path id="Path_1262650" data-name="Path 1262650" d="M83.34,29.843H1.66A1.66,1.66,0,0,0,0,31.5V50.165a1.66,1.66,0,0,0,1.66,1.66h34.2a1.66,1.66,0,1,0,0-3.32H3.32V33.164H7.54V37.85a1.66,1.66,0,1,0,3.32,0V33.164H14.2V37.85a1.66,1.66,0,1,0,3.32,0V33.164h3.34V37.85a1.66,1.66,0,0,0,3.32,0V33.164h3.34V37.85a1.66,1.66,0,1,0,3.32,0V33.164h3.34V37.85a1.66,1.66,0,0,0,3.32,0V33.164h3.34V37.85a1.66,1.66,0,0,0,3.32,0V33.164H47.5V37.85a1.66,1.66,0,1,0,3.32,0V33.164h3.339V37.85a1.66,1.66,0,0,0,3.32,0V33.164h3.34V37.85a1.66,1.66,0,0,0,3.32,0V33.164h3.34V37.85a1.66,1.66,0,0,0,3.32,0V33.164h3.34V37.85a1.66,1.66,0,0,0,3.32,0V33.164h4.22V48.505H49.141a1.66,1.66,0,1,0,0,3.32h34.2A1.66,1.66,0,0,0,85,50.165V31.5a1.66,1.66,0,0,0-1.66-1.66Zm0,0" fill-rule="evenodd"/>
        <path id="Path_1262651" data-name="Path 1262651" d="M11.273,55.229A11.273,11.273,0,1,0,22.546,66.5,11.286,11.286,0,0,0,11.273,55.229Zm0,19.226A7.953,7.953,0,1,1,19.226,66.5,7.961,7.961,0,0,1,11.273,74.455Zm0,0" fill-rule="evenodd"/>
        <path id="Path_1262652" data-name="Path 1262652" d="M13.83,63.317,9.794,67.352,8.363,65.922a1.66,1.66,0,0,0-2.348,2.348L8.62,70.874a1.66,1.66,0,0,0,2.348,0l5.21-5.21a1.66,1.66,0,1,0-2.348-2.348Zm0,0" fill-rule="evenodd"/>
        <path id="Path_1262653" data-name="Path 1262653" d="M83.34,61.072H29.211a1.66,1.66,0,1,0,0,3.32H83.34a1.66,1.66,0,1,0,0-3.32Zm0,0" fill-rule="evenodd"/>
        <path id="Path_1262654" data-name="Path 1262654" d="M66.109,68.612h-36.9a1.66,1.66,0,1,0,0,3.32h36.9a1.66,1.66,0,1,0,0-3.32Zm0,0" fill-rule="evenodd"/>
        <path id="Path_1262655" data-name="Path 1262655" d="M44.16,50.165a1.66,1.66,0,1,0-1.66,1.66A1.663,1.663,0,0,0,44.16,50.165Zm0,0" fill-rule="evenodd"/>
        <path id="Path_1262656" data-name="Path 1262656" d="M72.75,68.612a1.66,1.66,0,1,0,1.66,1.66A1.663,1.663,0,0,0,72.75,68.612Zm0,0" fill-rule="evenodd"/>
      </g>
    </g>
  </g>
</svg>
