<svg xmlns="http://www.w3.org/2000/svg" xmlns:xlink="http://www.w3.org/1999/xlink" width="105.479" height="87.991" viewBox="0 0 105.479 87.991">
  <defs>
    <clipPath id="clip-path">
      <rect id="Rectangle_410849" data-name="Rectangle 410849" width="75.895" height="72.761" transform="translate(1266.531 2125.188)" fill="#fff" stroke="#707070" stroke-width="1"/>
    </clipPath>
  </defs>
  <g id="Group_1203799" data-name="Group 1203799" transform="translate(-1252.26 -2117.46)">
    <g id="Group_1203669" data-name="Group 1203669" transform="translate(1011.424 -4593.276)">
      <g id="Group_1203659" data-name="Group 1203659" transform="translate(240.836 6710.736)">
        <ellipse id="Ellipse_12452" data-name="Ellipse 12452" cx="28.658" cy="28.658" rx="28.658" ry="28.658" transform="translate(48.164 30.676)" fill="#c0d85c"/>
        <ellipse id="Ellipse_12453" data-name="Ellipse 12453" cx="20.842" cy="20.842" rx="20.842" ry="20.842" fill="#c0d85c"/>
      </g>
    </g>
    <g id="Mask_Group_1099395" data-name="Mask Group 1099395" clip-path="url(#clip-path)">
      <g id="Fill_out_line" data-name="Fill out line" transform="translate(1265.673 2122.762)">
        <path id="Path_1262524" data-name="Path 1262524" d="M36.38,3.638H67.909v7.276H36.38Z" fill="#d4e4f0"/>
        <path id="Path_1262525" data-name="Path 1262525" d="M36.38,10.914H67.909v4.851H36.38Z" fill="#c1d7e6"/>
        <path id="Path_1262526" data-name="Path 1262526" d="M67.909,15.765v4.851a6.063,6.063,0,0,1,6.063,6.063V71.547a2.425,2.425,0,0,1-2.425,2.425H32.742a2.425,2.425,0,0,1-2.425-2.425V26.679a6.063,6.063,0,0,1,6.063-6.063V15.765Z" fill="#d4e4f0"/>
        <path id="Path_1262527" data-name="Path 1262527" d="M30.317,49.719H73.972v19.4H30.317Z" fill="#ba8b5d"/>
        <path id="Path_1262528" data-name="Path 1262528" d="M53.357,30.317a4.833,4.833,0,0,0,1.087,3.06,4.852,4.852,0,1,1-2.3-9.124h.046a2.3,2.3,0,0,1,1.879,3.532,4.83,4.83,0,0,0-.712,2.531Z" fill="#4384c3"/>
        <path id="Path_1262529" data-name="Path 1262529" d="M64.271,29.1V41.231l-3-3a2.613,2.613,0,0,0-3.7,0,10.245,10.245,0,0,1-14.491,0l-3.062-3.062,3.062-3.062a10.314,10.314,0,0,1,3.147-2.146l.177-.076a10.244,10.244,0,0,1,11.167,2.222,2.615,2.615,0,0,0,3.7,0Z" fill="#529ddf"/>
        <path id="Path_1262530" data-name="Path 1262530" d="M64.271,41.231l-3-3a2.613,2.613,0,0,0-3.7,0A10.248,10.248,0,0,1,45.087,39.79l3.05-2.413a10.248,10.248,0,0,1,6.358-2.21h0a10.248,10.248,0,0,1,8,3.846Z" fill="#fae7cb"/>
        <path id="Path_1262531" data-name="Path 1262531" d="M49.719,36.38l1.923-1.923a1.715,1.715,0,1,1,2.425,2.425l-.71.71Z" fill="#4384c3"/>
        <g id="Group_1203798" data-name="Group 1203798">
          <path id="Path_1262532" data-name="Path 1262532" d="M36.377,62.607a3.386,3.386,0,0,1-1.907,2.916A22.889,22.889,0,0,1,29.111,67.4a23.227,23.227,0,0,1-11.833-.558,22.854,22.854,0,0,1-3.251-1.314,3.426,3.426,0,0,1-1.517-4.675,3.391,3.391,0,0,1,1.517-1.467,23.087,23.087,0,0,1,20.442,0,3.393,3.393,0,0,1,1.907,3.226Z" fill="#f0e168"/>
          <path id="Path_1262533" data-name="Path 1262533" d="M25.99,70.374A22.844,22.844,0,0,1,19.234,72.5,23.136,23.136,0,0,1,5.548,70.374a3.424,3.424,0,0,1,0-6.142,23,23,0,0,1,20.442,0,3.424,3.424,0,0,1,0,6.142Z" fill="#f0e168"/>
          <path id="Path_1262534" data-name="Path 1262534" d="M40.533,65.444a3.425,3.425,0,0,1,0,6.143,23.093,23.093,0,0,1-20.443,0,3.425,3.425,0,0,1,0-6.143,23.093,23.093,0,0,1,20.443,0Z" fill="#f0e168"/>
        </g>
        <path id="Path_1262535" data-name="Path 1262535" d="M14.488,64.31l.146,2.421a19.013,19.013,0,0,1,2.279,0l.147-2.421a21.454,21.454,0,0,0-2.572,0Z"/>
        <path id="Path_1262536" data-name="Path 1262536" d="M8.57,65.56l.849,2.272a17.92,17.92,0,0,1,2.941-.821l-.449-2.383a20.341,20.341,0,0,0-3.341.932Z"/>
        <path id="Path_1262537" data-name="Path 1262537" d="M43.656,53.357H60.633v2.425H43.656Z"/>
        <path id="Path_1262538" data-name="Path 1262538" d="M38.805,58.208H65.484v2.425H38.805Z"/>
        <path id="Path_1262539" data-name="Path 1262539" d="M43.656,63.058H60.633v2.425H43.656Z"/>
        <path id="Path_1262540" data-name="Path 1262540" d="M64.735,27.984a1.213,1.213,0,0,0-1.322.263l-3,3a1.4,1.4,0,0,1-1.984,0,11.447,11.447,0,0,0-3.543-2.414,3.6,3.6,0,0,1,.218-.415,3.578,3.578,0,0,0,.085-3.6,3.418,3.418,0,0,0-3-1.78h-.045A6.083,6.083,0,0,0,47.7,24.978,6,6,0,0,0,46.1,28.7a11.432,11.432,0,0,0-3.873,2.551L39.16,34.31a1.213,1.213,0,0,0,0,1.715l3.062,3.062a11.459,11.459,0,0,0,16.206,0,1.4,1.4,0,0,1,1.984,0l3,3a1.213,1.213,0,0,0,2.07-.857V29.1a1.213,1.213,0,0,0-.749-1.12ZM49.479,26.629a3.6,3.6,0,0,1,2.666-1.163h.034a1.008,1.008,0,0,1,.888.53,1.134,1.134,0,0,1-.031,1.154,6.015,6.015,0,0,0-.475.958,11.6,11.6,0,0,0-3.887-.1,3.615,3.615,0,0,1,.805-1.381ZM63.058,38.3l-.931-.931a3.828,3.828,0,0,0-5.414,0,9.034,9.034,0,0,1-12.776,0l-2.2-2.2,2.2-2.2a9.153,9.153,0,0,1,1-.864l1.5,1.5a2.22,2.22,0,0,1,0,3.136l1.715,1.715a4.615,4.615,0,0,0,1.267-2.371l1.158,1.158L52.5,35.314a.5.5,0,1,1,.71.71l-.71.71,1.715,1.715.71-.71a2.928,2.928,0,0,0-4.14-4.14L49.5,34.885a4.623,4.623,0,0,0-1.348-3l-1-1a9.046,9.046,0,0,1,9.558,2.074,3.828,3.828,0,0,0,5.414,0l.931-.931Z"/>
        <circle id="Ellipse_12490" data-name="Ellipse 12490" cx="1.213" cy="1.213" r="1.213" transform="translate(43.656 33.955)"/>
        <path id="Path_1262541" data-name="Path 1262541" d="M41.072,64.357a24.2,24.2,0,0,0-3.506-1.409,4.662,4.662,0,0,0-2.558-4.655,24.306,24.306,0,0,0-21.52,0,4.61,4.61,0,0,0-2.377,2.785,23.981,23.981,0,0,0-6.1,2.066,4.638,4.638,0,0,0,0,8.316,24.013,24.013,0,0,0,10.76,2.511,24.38,24.38,0,0,0,5.34-.593,24.313,24.313,0,0,0,19.962-.706,4.638,4.638,0,0,0,0-8.316Zm-26.506-3.89a21.881,21.881,0,0,1,19.365,0,2.156,2.156,0,0,1,1.231,1.86,24.608,24.608,0,0,0-10.2.109,24.1,24.1,0,0,0-9.19-1.8c-.522,0-1.041.018-1.557.05a2.352,2.352,0,0,1,.354-.216ZM18,71.432a22.091,22.091,0,0,1-2.228.115,21.609,21.609,0,0,1-9.683-2.259,2.212,2.212,0,0,1,0-3.971,21.609,21.609,0,0,1,9.683-2.259,21.843,21.843,0,0,1,5.246.634c-.493.205-.981.425-1.463.664A4.641,4.641,0,0,0,18,71.432Zm22-.931a21.881,21.881,0,0,1-19.365,0,2.212,2.212,0,0,1,0-3.971,21.881,21.881,0,0,1,19.365,0,2.212,2.212,0,0,1,0,3.971Z"/>
        <path id="Path_1262542" data-name="Path 1262542" d="M29.031,65.522l.146,2.421a19.027,19.027,0,0,1,2.279,0l.147-2.421a21.453,21.453,0,0,0-2.572,0Z"/>
        <path id="Path_1262543" data-name="Path 1262543" d="M23.113,66.773l.849,2.272a17.905,17.905,0,0,1,2.941-.821l-.449-2.383a20.336,20.336,0,0,0-3.341.932Z"/>
        <path id="Path_1262544" data-name="Path 1262544" d="M73.054,21.534A7.225,7.225,0,0,0,69.122,19.5V3.638a1.213,1.213,0,0,0-1.213-1.213H36.38a1.213,1.213,0,0,0-1.213,1.213V19.5A7.288,7.288,0,0,0,29.1,26.678V53.357h2.425V50.932H72.76V67.909H46.081v2.425H72.76v1.213a1.214,1.214,0,0,1-1.213,1.213H43.656v2.425H71.547a3.642,3.642,0,0,0,3.638-3.638V26.678a7.228,7.228,0,0,0-2.132-5.144ZM66.7,14.552h-29.1V12.127H66.7Zm0-9.7V9.7h-29.1V4.851ZM31.529,48.506V26.678a4.856,4.856,0,0,1,4.851-4.851h7.276V19.4H37.593V16.977H66.7V19.4H52.145v2.425H67.909a4.853,4.853,0,0,1,4.851,4.851V48.506Z"/>
      </g>
    </g>
  </g>
</svg>
