<svg xmlns="http://www.w3.org/2000/svg" xmlns:xlink="http://www.w3.org/1999/xlink" width="105.479" height="87.991" viewBox="0 0 105.479 87.991">
  <defs>
    <clipPath id="clip-path">
      <rect id="Rectangle_410839" data-name="Rectangle 410839" width="75.895" height="72.761" transform="translate(1266.531 6734.464)" fill="#fff" stroke="#707070" stroke-width="1"/>
    </clipPath>
  </defs>
  <g id="Group_1204565" data-name="Group 1204565" transform="translate(-1252.26 -6726.736)">
    <g id="Group_1203664" data-name="Group 1203664" transform="translate(1011.424 16)">
      <g id="Group_1203659" data-name="Group 1203659" transform="translate(240.836 6710.736)">
        <ellipse id="Ellipse_12452" data-name="Ellipse 12452" cx="28.658" cy="28.658" rx="28.658" ry="28.658" transform="translate(48.164 30.676)" fill="#c0d85c"/>
        <ellipse id="Ellipse_12453" data-name="Ellipse 12453" cx="20.842" cy="20.842" rx="20.842" ry="20.842" fill="#c0d85c"/>
      </g>
    </g>
    <g id="Mask_Group_1099416" data-name="Mask Group 1099416" clip-path="url(#clip-path)">
      <g id="Filled_outline" data-name="Filled outline" transform="translate(1265.672 6732.039)">
        <path id="Path_1263538" data-name="Path 1263538" d="M55.784,59.422h-19.4l3.638-9.7H52.146Z" fill="#d6d6d4"/>
        <path id="Path_1263539" data-name="Path 1263539" d="M53.51,53.358H38.654l1.364-3.638H52.146Z" fill="#c7c7c5"/>
        <path id="Path_1263540" data-name="Path 1263540" d="M32.743,58.209H59.422v2.425H32.743Z" fill="#e0e0de"/>
        <path id="Path_1263541" data-name="Path 1263541" d="M21.828,8.489a3.638,3.638,0,0,0-3.638,3.638V42.444H73.974V12.127a3.638,3.638,0,0,0-3.638-3.638Z" fill="#348fd9"/>
        <path id="Path_1263542" data-name="Path 1263542" d="M18.19,42.444v3.638a3.638,3.638,0,0,0,3.638,3.638H70.336a3.638,3.638,0,0,0,3.638-3.638V42.444Z" fill="#e0e0de"/>
        <path id="Path_1263543" data-name="Path 1263543" d="M69.123,42.444v3.638a3.638,3.638,0,0,1-3.638,3.638h4.851a3.638,3.638,0,0,0,3.638-3.638V42.444Z" fill="#d6d6d4"/>
        <path id="Path_1263544" data-name="Path 1263544" d="M67.91,7.276V42.444H24.254V7.276a3.639,3.639,0,0,1,3.638-3.638H64.272A3.639,3.639,0,0,1,67.91,7.276Z" fill="#60d1e0"/>
        <path id="Path_1263545" data-name="Path 1263545" d="M67.91,7.276V42.444H34.988L47.295,24.367l1.622-2.381L61.407,3.638h2.865A3.639,3.639,0,0,1,67.91,7.276Z" fill="#5ac6d4"/>
        <path id="Path_1263546" data-name="Path 1263546" d="M49.72,24.254v18.19H47.295V24.254a3.679,3.679,0,0,0-3.638-3.638h2.425a3.579,3.579,0,0,1,1.108.191,3.666,3.666,0,0,1,1.727,1.179,3.586,3.586,0,0,1,.8,2.268Z" fill="#57bfcc"/>
        <path id="Path_1263547" data-name="Path 1263547" d="M24.254,40.019H67.91v2.425H24.254Z" fill="#5ac6d4"/>
        <g id="Group_1204564" data-name="Group 1204564">
          <path id="Path_1263548" data-name="Path 1263548" d="M41.231,16.978h2.425v19.4H41.231Z" fill="#348fd9"/>
          <path id="Path_1263549" data-name="Path 1263549" d="M36.381,15.765h2.425V36.381H36.381Z" fill="#348fd9"/>
          <path id="Path_1263550" data-name="Path 1263550" d="M46.082,18.19h2.425v18.19H46.082Z" fill="#348fd9"/>
        </g>
        <rect id="Rectangle_411560" data-name="Rectangle 411560" width="43.657" height="53.358" rx="3.638" transform="translate(3.638 20.616)" fill="#f35244"/>
        <path id="Path_1263551" data-name="Path 1263551" d="M47.295,58.209v2.425H49.72V58.209Z" fill="#d6d6d4"/>
        <path id="Path_1263552" data-name="Path 1263552" d="M47.295,42.444H49.72V49.72H47.295Z" fill="#d6d6d4"/>
        <path id="Path_1263553" data-name="Path 1263553" d="M47.295,49.72v8.489H49.72V49.72Z" fill="#c7c7c5"/>
        <path id="Path_1263554" data-name="Path 1263554" d="M8.489,25.466H42.444V69.123H8.489Z" fill="#57bfcc"/>
        <path id="Path_1263555" data-name="Path 1263555" d="M33.955,64.272H8.489V25.466H42.444V55.784Z" fill="#60d1e0"/>
        <path id="Path_1263556" data-name="Path 1263556" d="M33.955,64.272l8.489-8.489H33.955Z" fill="#9fe4ed"/>
        <path id="Path_1263557" data-name="Path 1263557" d="M29.1,20.616V19.4a3.638,3.638,0,0,0-7.276,0v1.213H16.978a3.638,3.638,0,0,0-3.638,3.638v3.638H37.593V24.254a3.638,3.638,0,0,0-3.638-3.638Z" fill="#ffb531"/>
        <path id="Path_1263558" data-name="Path 1263558" d="M46.082,73.974H71.549a2.425,2.425,0,0,0,0-4.851H46.082a8.28,8.28,0,0,0-5.855,2.425,8.28,8.28,0,0,0,5.855,2.425Z" fill="#348fd9"/>
        <path id="Path_1263559" data-name="Path 1263559" d="M71.549,69.123H61.525l-5.148,4.851H71.549a2.425,2.425,0,1,0,0-4.851Z" fill="#3086cd"/>
        <path id="Path_1263560" data-name="Path 1263560" d="M70.336,7.276H69.123a4.856,4.856,0,0,0-4.851-4.851H27.892a4.856,4.856,0,0,0-4.851,4.851H21.828a4.856,4.856,0,0,0-4.851,4.851v4.851H19.4V12.127A2.428,2.428,0,0,1,21.828,9.7h1.213v2.425h2.425V7.276a2.428,2.428,0,0,1,2.425-2.425H64.272A2.428,2.428,0,0,1,66.7,7.276v31.53h2.425V9.7h1.213a2.428,2.428,0,0,1,2.425,2.425v29.1H50.933v2.425H72.761v2.425a2.428,2.428,0,0,1-2.425,2.425h-19.4v2.425h.372l2.729,7.276h-3.1v2.425h8.489V58.209h-2.8L53.9,50.933h16.44a4.856,4.856,0,0,0,4.851-4.851V12.127A4.856,4.856,0,0,0,70.336,7.276Z"/>
        <path id="Path_1263561" data-name="Path 1263561" d="M27.892,7.276h2.425V9.7H27.892Z"/>
        <path id="Path_1263562" data-name="Path 1263562" d="M32.743,7.276h2.425V9.7H32.743Z"/>
        <path id="Path_1263563" data-name="Path 1263563" d="M37.593,7.276h2.425V9.7H37.593Z"/>
        <path id="Path_1263564" data-name="Path 1263564" d="M31.53,14.552h2.425v2.425H31.53Z"/>
        <path id="Path_1263565" data-name="Path 1263565" d="M36.381,15.765h2.425V18.19H36.381Z"/>
        <path id="Path_1263566" data-name="Path 1263566" d="M50.933,21.828V38.806H63.06V14.552H60.634V36.381H58.209V19.4H55.784V36.381H53.358V21.828Z"/>
        <path id="Path_1263567" data-name="Path 1263567" d="M4.851,70.336V24.254a2.428,2.428,0,0,1,2.425-2.425H12.8a4.8,4.8,0,0,0-.675,2.425H8.489a1.213,1.213,0,0,0-1.213,1.213V69.123a1.213,1.213,0,0,0,1.213,1.213H36.381V67.91H9.7V65.485H33.955a1.218,1.218,0,0,0,.857-.355l6.419-6.419v6.774h2.425V25.466A1.255,1.255,0,0,0,42.4,24.254h-3.59a4.8,4.8,0,0,0-.675-2.425h5.525a2.428,2.428,0,0,1,2.425,2.425V65.485h2.425V24.254A4.856,4.856,0,0,0,43.657,19.4H30.317a4.851,4.851,0,0,0-9.7,0H7.276a4.856,4.856,0,0,0-4.851,4.851V70.336a4.856,4.856,0,0,0,4.851,4.851H37.593V72.761H7.276A2.428,2.428,0,0,1,4.851,70.336Zm30.317-8.991V57h4.349Zm6.063-34.666V54.571H33.955a1.213,1.213,0,0,0-1.213,1.213V63.06H9.7V26.679h2.425v1.213A1.213,1.213,0,0,0,13.34,29.1H37.593a1.213,1.213,0,0,0,1.213-1.213V26.679Zm-19.4-4.851a1.213,1.213,0,0,0,1.213-1.213V19.4a2.425,2.425,0,1,1,4.851,0v1.213A1.213,1.213,0,0,0,29.1,21.828h4.851a2.428,2.428,0,0,1,2.425,2.425v2.425H14.552V24.254a2.428,2.428,0,0,1,2.425-2.425Z"/>
        <path id="Path_1263568" data-name="Path 1263568" d="M21.828,32.743H38.806v2.425H21.828Z"/>
        <path id="Path_1263569" data-name="Path 1263569" d="M21.828,37.593h9.7v2.425h-9.7Z"/>
        <path id="Path_1263570" data-name="Path 1263570" d="M21.828,42.444H38.806v2.425H21.828Z"/>
        <path id="Path_1263571" data-name="Path 1263571" d="M21.828,47.295h6.063V49.72H21.828Z"/>
        <path id="Path_1263572" data-name="Path 1263572" d="M18.19,52.146H13.34a1.213,1.213,0,0,0-1.213,1.213v4.851a1.213,1.213,0,0,0,1.213,1.213H18.19A1.213,1.213,0,0,0,19.4,58.209V53.358A1.213,1.213,0,0,0,18.19,52.146ZM16.978,57H14.552V54.571h2.425Z"/>
        <path id="Path_1263573" data-name="Path 1263573" d="M21.828,52.146h8.489v2.425H21.828Z"/>
        <path id="Path_1263574" data-name="Path 1263574" d="M21.828,57h8.489v2.425H21.828Z"/>
        <path id="Path_1263575" data-name="Path 1263575" d="M17.688,32.743H13.34a1.213,1.213,0,0,0-1.213,1.213v4.851a1.213,1.213,0,0,0,1.213,1.213H18.19A1.213,1.213,0,0,0,19.4,38.806V34.457l2.07-2.07-1.715-1.715Zm-.711,4.851H14.552V35.168h.711l-.355.355,1.715,1.715.355-.355Z"/>
        <path id="Path_1263576" data-name="Path 1263576" d="M19.758,40.374l-2.07,2.07H13.34a1.213,1.213,0,0,0-1.213,1.213v4.851A1.213,1.213,0,0,0,13.34,49.72H18.19A1.213,1.213,0,0,0,19.4,48.507V44.159l2.07-2.07Zm-2.781,6.921H14.552V44.869h.711l-.355.355,1.715,1.715.355-.355Z"/>
        <path id="Path_1263577" data-name="Path 1263577" d="M71.341,67.91H70.128V66.7A3.642,3.642,0,0,0,66.49,63.06H58v2.425H66.49A1.214,1.214,0,0,1,67.7,66.7V67.91H45.874a9.433,9.433,0,0,0-6.713,2.781,1.213,1.213,0,0,0,0,1.715,9.433,9.433,0,0,0,6.713,2.781H71.341a3.638,3.638,0,1,0,0-7.276ZM41.912,71.549a7.02,7.02,0,0,1,3.963-1.213H67.7v2.425H45.874a7.02,7.02,0,0,1-3.963-1.213Zm29.429,1.213H70.128V70.336h1.213a1.213,1.213,0,0,1,0,2.425Z"/>
      </g>
    </g>
  </g>
</svg>
