<svg xmlns="http://www.w3.org/2000/svg" xmlns:xlink="http://www.w3.org/1999/xlink" width="113.842" height="101.604" viewBox="0 0 113.842 101.604">
  <defs>
    <clipPath id="clip-path">
      <rect id="Rectangle_410901" data-name="Rectangle 410901" width="85" height="84" transform="translate(1119.667 2387.133)" fill="#fff" stroke="#707070" stroke-width="1"/>
    </clipPath>
    <clipPath id="clip-path-2">
      <rect id="rect1612-29" width="73.172" height="38.752" transform="translate(-195.552 3275.45)" fill="green"/>
    </clipPath>
  </defs>
  <g id="Group_1203831" data-name="Group 1203831" transform="translate(-1109.397 -2376.405)">
    <g id="Group_1203704" data-name="Group 1203704" transform="translate(1109.397 2376.405)">
      <ellipse id="Ellipse_12452" data-name="Ellipse 12452" cx="28.658" cy="28.658" rx="28.658" ry="28.658" transform="translate(56.527 44.289)" fill="#c0d85c"/>
      <ellipse id="Ellipse_12453" data-name="Ellipse 12453" cx="20.842" cy="20.842" rx="20.842" ry="20.842" fill="#c0d85c"/>
    </g>
    <g id="Mask_Group_1099402" data-name="Mask Group 1099402" clip-path="url(#clip-path)">
      <g id="layer1" transform="translate(1126.582 2398.652)">
        <path id="path1786" d="M7.713,10.051A6.98,6.98,0,0,0,.767,17V65.534A6.98,6.98,0,0,0,7.713,72.48H65.377a6.98,6.98,0,0,0,6.947-6.947V17a6.98,6.98,0,0,0-6.947-6.947Z" fill="#b0e8de"/>
        <g id="Group_1203829" data-name="Group 1203829" transform="translate(194.398 -3286.969)" clip-path="url(#clip-path-2)">
          <path id="path1788" d="M-184.6,3299.157c-3.535,0-6.443,2.485-6.443,5.5v37c0,3.019,2.909,5.5,6.443,5.5h53.486c3.535,0,6.443-2.484,6.443-5.5v-37c0-3.018-2.909-5.5-6.443-5.5Z" fill="#ff2a2a"/>
        </g>
        <path id="path1792" d="M36.557,38.262A10.622,10.622,0,1,1,25.911,48.884,10.58,10.58,0,0,1,36.557,38.262Z" fill="green"/>
        <path id="rect1607" d="M7.509,9.757A6.773,6.773,0,0,0,.764,16.5V65.42a6.792,6.792,0,0,0,6.744,6.767H65.577a6.792,6.792,0,0,0,6.744-6.767V16.5a6.773,6.773,0,0,0-6.744-6.744Zm0,4.564H65.577A2.124,2.124,0,0,1,67.758,16.5V65.42A2.124,2.124,0,0,1,65.577,67.6H7.509A2.124,2.124,0,0,1,5.328,65.42V16.5A2.124,2.124,0,0,1,7.509,14.32Z"/>
        <path id="path1609" d="M18.277.607A2.284,2.284,0,0,0,15.984,2.9V18.12a2.282,2.282,0,1,0,4.564,0V2.9A2.284,2.284,0,0,0,18.277.607Z"/>
        <path id="path1611" d="M3.035,24.976a2.282,2.282,0,0,0,0,4.564H70.051a2.282,2.282,0,0,0,0-4.564Z"/>
        <path id="path1613" d="M54.809.607A2.284,2.284,0,0,0,52.538,2.9V18.12a2.282,2.282,0,1,0,4.564,0V2.9A2.284,2.284,0,0,0,54.809.607Z"/>
        <path id="circle1615" d="M36.554,34.1A14.466,14.466,0,1,0,51.009,48.581,14.521,14.521,0,0,0,36.554,34.1Zm0,4.564a9.9,9.9,0,1,1-9.914,9.914A9.872,9.872,0,0,1,36.554,38.667Z"/>
        <path id="path1617" d="M32.013,46.288a2.282,2.282,0,0,0,0,4.564h9.06a2.282,2.282,0,1,0,0-4.564Z"/>
      </g>
    </g>
  </g>
</svg>
