<svg id="Group_1203890" data-name="Group 1203890" xmlns="http://www.w3.org/2000/svg" xmlns:xlink="http://www.w3.org/1999/xlink" width="113.842" height="101.604" viewBox="0 0 113.842 101.604">
  <defs>
    <clipPath id="clip-path">
      <rect id="Rectangle_410946" data-name="Rectangle 410946" width="85" height="84" fill="#fff" stroke="#707070" stroke-width="1"/>
    </clipPath>
  </defs>
  <g id="Group_1203724" data-name="Group 1203724">
    <ellipse id="Ellipse_12452" data-name="Ellipse 12452" cx="28.658" cy="28.658" rx="28.658" ry="28.658" transform="translate(56.527 44.289)" fill="#c0d85c"/>
    <ellipse id="Ellipse_12453" data-name="Ellipse 12453" cx="20.842" cy="20.842" rx="20.842" ry="20.842" fill="#c0d85c"/>
  </g>
  <g id="Mask_Group_1099408" data-name="Mask Group 1099408" transform="translate(10.27 10.728)" clip-path="url(#clip-path)">
    <g id="ab-testing_4693299" transform="translate(0 9.575)">
      <g id="Group_1203858" data-name="Group 1203858" transform="translate(1.212 14.118)">
        <path id="Path_1262698" data-name="Path 1262698" d="M36.442,73.713H3.536a2.324,2.324,0,0,1-2.324-2.324V26.517a2.324,2.324,0,0,1,2.324-2.324H36.441a2.324,2.324,0,0,1,2.324,2.324V71.388a2.324,2.324,0,0,1-2.324,2.324Z" transform="translate(-1.212 -24.193)" fill="#f6f1f1"/>
      </g>
      <g id="Group_1203859" data-name="Group 1203859" transform="translate(46.067 14.118)">
        <path id="Path_1262699" data-name="Path 1262699" d="M81.3,73.713H48.391a2.324,2.324,0,0,1-2.324-2.324V26.517a2.324,2.324,0,0,1,2.324-2.324H81.3a2.324,2.324,0,0,1,2.324,2.324V71.388A2.324,2.324,0,0,1,81.3,73.713Z" transform="translate(-46.067 -24.193)" fill="#f6f1f1"/>
      </g>
      <g id="Group_1203860" data-name="Group 1203860" transform="translate(1.212 14.118)">
        <path id="Path_1262700" data-name="Path 1262700" d="M36.441,24.193H33.214V65.9a2.263,2.263,0,0,1-2.263,2.263H1.212v3.227a2.324,2.324,0,0,0,2.324,2.324h32.9a2.324,2.324,0,0,0,2.324-2.324V26.517a2.324,2.324,0,0,0-2.324-2.324Z" transform="translate(-1.212 -24.193)" fill="#e7ecf6"/>
      </g>
      <g id="Group_1203861" data-name="Group 1203861" transform="translate(46.067 14.118)">
        <path id="Path_1262701" data-name="Path 1262701" d="M81.3,24.193H78.07V65.9a2.263,2.263,0,0,1-2.263,2.263H46.067v3.227a2.324,2.324,0,0,0,2.324,2.324H81.3a2.324,2.324,0,0,0,2.324-2.324V26.517A2.324,2.324,0,0,0,81.3,24.193Z" transform="translate(-46.067 -24.193)" fill="#e7ecf6"/>
      </g>
      <g id="Group_1203862" data-name="Group 1203862" transform="translate(46.067 44.225)">
        <path id="Path_1262702" data-name="Path 1262702" d="M46.067,54.3V71.388a2.324,2.324,0,0,0,2.324,2.324H81.3a2.324,2.324,0,0,0,2.324-2.324V54.3Z" transform="translate(-46.067 -54.301)" fill="#df73c1"/>
      </g>
      <g id="Group_1203863" data-name="Group 1203863" transform="translate(1.212 44.225)">
        <path id="Path_1262703" data-name="Path 1262703" d="M1.212,54.3V71.388a2.324,2.324,0,0,0,2.324,2.324h32.9a2.324,2.324,0,0,0,2.324-2.324V54.3Z" transform="translate(-1.212 -54.301)" fill="#80cb8e"/>
      </g>
      <g id="Group_1203864" data-name="Group 1203864" transform="translate(46.067 44.225)">
        <path id="Path_1262704" data-name="Path 1262704" d="M48.392,73.713H81.3a2.324,2.324,0,0,0,2.324-2.324V54.3H78.07V65.9a2.263,2.263,0,0,1-2.263,2.263H46.067v3.227a2.324,2.324,0,0,0,2.324,2.324Z" transform="translate(-46.067 -54.301)" fill="#dd4fb1"/>
      </g>
      <g id="Group_1203865" data-name="Group 1203865" transform="translate(1.212 44.225)">
        <path id="Path_1262705" data-name="Path 1262705" d="M3.536,73.713h32.9a2.324,2.324,0,0,0,2.324-2.324V54.3H33.214V65.9a2.263,2.263,0,0,1-2.263,2.263H1.212v3.227a2.324,2.324,0,0,0,2.324,2.324Z" transform="translate(-1.212 -54.301)" fill="#66b49d"/>
      </g>
      <g id="Group_1203868" data-name="Group 1203868" transform="translate(9.88 54.549)">
        <g id="Group_1203866" data-name="Group 1203866">
          <circle id="Ellipse_12521" data-name="Ellipse 12521" cx="2.836" cy="2.836" r="2.836" fill="#e7ecf6"/>
        </g>
        <g id="Group_1203867" data-name="Group 1203867" transform="translate(0.074 0.074)">
          <path id="Path_1262706" data-name="Path 1262706" d="M13.352,64.7a2.828,2.828,0,0,1-3.4,3.4,2.835,2.835,0,1,0,3.4-3.4Z" transform="translate(-9.955 -64.698)" fill="#d5dff4"/>
        </g>
      </g>
      <g id="Group_1203871" data-name="Group 1203871" transform="translate(20.026 47.667)">
        <g id="Group_1203869" data-name="Group 1203869">
          <circle id="Ellipse_12522" data-name="Ellipse 12522" cx="2.836" cy="2.836" r="2.836" fill="#e7ecf6"/>
        </g>
        <g id="Group_1203870" data-name="Group 1203870" transform="translate(0.074 0.074)">
          <path id="Path_1262707" data-name="Path 1262707" d="M23.5,57.816a2.828,2.828,0,0,1-3.4,3.4,2.835,2.835,0,1,0,3.4-3.4Z" transform="translate(-20.1 -57.816)" fill="#d5dff4"/>
        </g>
      </g>
      <g id="Group_1203874" data-name="Group 1203874" transform="translate(70.536 54.549)">
        <g id="Group_1203872" data-name="Group 1203872">
          <circle id="Ellipse_12523" data-name="Ellipse 12523" cx="2.836" cy="2.836" r="2.836" fill="#e7ecf6"/>
        </g>
        <g id="Group_1203873" data-name="Group 1203873" transform="translate(0.074 0.074)">
          <path id="Path_1262708" data-name="Path 1262708" d="M74.007,64.7a2.828,2.828,0,0,1-3.4,3.4,2.835,2.835,0,1,0,3.4-3.4Z" transform="translate(-70.61 -64.698)" fill="#d5dff4"/>
        </g>
      </g>
      <g id="Group_1203877" data-name="Group 1203877" transform="translate(50.682 47.667)">
        <g id="Group_1203875" data-name="Group 1203875">
          <circle id="Ellipse_12524" data-name="Ellipse 12524" cx="2.836" cy="2.836" r="2.836" fill="#e7ecf6"/>
        </g>
        <g id="Group_1203876" data-name="Group 1203876" transform="translate(0.074 0.074)">
          <path id="Path_1262709" data-name="Path 1262709" d="M54.154,57.816a2.828,2.828,0,0,1-3.4,3.4,2.835,2.835,0,1,0,3.4-3.4Z" transform="translate(-50.756 -57.816)" fill="#d5dff4"/>
        </g>
      </g>
      <g id="Group_1203878" data-name="Group 1203878">
        <path id="Path_1262710" data-name="Path 1262710" d="M36.5,22.981H16.333l3.094-3.094a.08.08,0,0,1,.056-.024l11.469-.091a2.49,2.49,0,0,0,1.751-.734l4.85-4.85v2.829a1.212,1.212,0,1,0,2.424,0v-5.73a1.212,1.212,0,0,0-1.212-1.212H33.035a1.212,1.212,0,0,0,0,2.424h2.779l-4.825,4.825a.081.081,0,0,1-.056.024l-11.469.09a2.491,2.491,0,0,0-1.752.734L12.9,22.981H3.475A3.479,3.479,0,0,0,0,26.456V41.713a1.212,1.212,0,0,0,2.424,0V26.456a1.052,1.052,0,0,1,1.051-1.051H36.5a1.052,1.052,0,0,1,1.051,1.051V53.088H2.424V47.466a1.212,1.212,0,0,0-2.424,0V71.45a3.479,3.479,0,0,0,3.475,3.475H36.5a3.479,3.479,0,0,0,3.475-3.475V26.456A3.478,3.478,0,0,0,36.5,22.981ZM3.475,72.5A1.052,1.052,0,0,1,2.424,71.45V55.513H37.554V71.45A1.052,1.052,0,0,1,36.5,72.5Z" transform="translate(0 -10.075)"/>
        <path id="Path_1262711" data-name="Path 1262711" d="M81.358,22.981H72.195a1.212,1.212,0,0,0,0,2.424h9.164a1.052,1.052,0,0,1,1.051,1.051V53.088H47.279V26.456a1.052,1.052,0,0,1,1.051-1.051H60.777a1.212,1.212,0,0,0,0-2.424H55.418l4.713-4.713,4.786,4.786a2.02,2.02,0,0,0,2.857,0l4.584-4.584a.243.243,0,0,1,.171-.071h8.248l-1.895,1.9A1.212,1.212,0,0,0,80.6,22.009l4.052-4.052a1.219,1.219,0,0,0,0-1.714L80.6,12.19A1.212,1.212,0,1,0,78.882,13.9l2.071,2.071H72.529a2.649,2.649,0,0,0-1.886.781l-4.3,4.3-4.786-4.786a2.02,2.02,0,0,0-2.857,0l-6.713,6.713H48.33a3.479,3.479,0,0,0-3.475,3.475V71.45a3.479,3.479,0,0,0,3.475,3.475H81.358a3.479,3.479,0,0,0,3.475-3.475V26.456a3.479,3.479,0,0,0-3.475-3.475ZM82.409,71.45A1.052,1.052,0,0,1,81.358,72.5H48.33a1.052,1.052,0,0,1-1.051-1.051V55.513H82.409Z" transform="translate(0 -10.075)"/>
        <path id="Path_1262712" data-name="Path 1262712" d="M12.716,50.37a1.213,1.213,0,0,0,1.133-.781l1.426-3.743h9.442l1.411,3.74A1.212,1.212,0,0,0,28.4,48.73L21.541,30.565l-.013-.033a1.624,1.624,0,0,0-1.507-1.01h0a1.624,1.624,0,0,0-1.507,1.013l-.011.028L11.583,48.726a1.218,1.218,0,0,0,1.133,1.644Zm7.3-16.976L23.8,43.422H16.2Z" transform="translate(0 -10.075)"/>
        <path id="Path_1262713" data-name="Path 1262713" d="M65.543,29.25H60.191a1.212,1.212,0,0,0-1.212,1.212V48.885A1.219,1.219,0,0,0,60.2,50.1c.049,0,4.941-.022,6.281-.022A6.17,6.17,0,0,0,69.449,38.5a5.447,5.447,0,0,0-3.907-9.248Zm0,2.424a3.027,3.027,0,1,1,0,6.054l-4.139,0V31.674Zm.935,15.977c-.924,0-3.52.01-5.074.017v-7.5c.643,0,5.074-.008,5.074-.008a3.747,3.747,0,0,1,0,7.494Z" transform="translate(0 -10.075)"/>
        <path id="Path_1262714" data-name="Path 1262714" d="M32.539,59.366H26.724a4.048,4.048,0,0,0-7.725,0H7.474a1.212,1.212,0,1,0,0,2.424H19a4.048,4.048,0,0,0,7.725,0h5.815a1.212,1.212,0,0,0,0-2.424ZM22.862,62.2a1.624,1.624,0,1,1,1.624-1.624A1.626,1.626,0,0,1,22.862,62.2Z" transform="translate(0 -10.075)"/>
        <path id="Path_1262715" data-name="Path 1262715" d="M32.539,66.063H16.516a4.048,4.048,0,0,0-7.6,0H7.474a1.212,1.212,0,1,0,0,2.424H8.8a4.048,4.048,0,0,0,7.831,0H32.539a1.212,1.212,0,1,0,0-2.424ZM12.716,69.084A1.624,1.624,0,1,1,14.34,67.46,1.626,1.626,0,0,1,12.716,69.084Z" transform="translate(0 -10.075)"/>
        <path id="Path_1262716" data-name="Path 1262716" d="M77.377,66.063h-.206a4.048,4.048,0,0,0-7.6,0H52.311a1.212,1.212,0,1,0,0,2.424H69.456a4.048,4.048,0,0,0,7.831,0h.09a1.212,1.212,0,1,0,0-2.424Zm-4.005,3.021A1.624,1.624,0,1,1,75,67.46,1.626,1.626,0,0,1,73.372,69.084Z" transform="translate(0 -10.075)"/>
        <path id="Path_1262717" data-name="Path 1262717" d="M53.518,64.626A4.055,4.055,0,0,0,57.38,61.79h20a1.212,1.212,0,0,0,0-2.424h-20a4.048,4.048,0,1,0-3.863,5.26Zm0-5.672a1.624,1.624,0,1,1-1.624,1.624A1.626,1.626,0,0,1,53.518,58.954Z" transform="translate(0 -10.075)"/>
      </g>
    </g>
  </g>
</svg>
