<svg id="Group_1203889" data-name="Group 1203889" xmlns="http://www.w3.org/2000/svg" xmlns:xlink="http://www.w3.org/1999/xlink" width="113.842" height="101.604" viewBox="0 0 113.842 101.604">
  <defs>
    <clipPath id="clip-path">
      <rect id="Rectangle_410943" data-name="Rectangle 410943" width="85" height="84" fill="#fff" stroke="#707070" stroke-width="1"/>
    </clipPath>
  </defs>
  <g id="Group_1203722" data-name="Group 1203722">
    <ellipse id="Ellipse_12452" data-name="Ellipse 12452" cx="28.658" cy="28.658" rx="28.658" ry="28.658" transform="translate(56.527 44.289)" fill="#c0d85c"/>
    <ellipse id="Ellipse_12453" data-name="Ellipse 12453" cx="20.842" cy="20.842" rx="20.842" ry="20.842" fill="#c0d85c"/>
  </g>
  <g id="Mask_Group_1099409" data-name="Mask Group 1099409" transform="translate(10.27 10.728)" clip-path="url(#clip-path)">
    <g id="Layer_19" data-name="Layer 19" transform="translate(0.5 0)">
      <path id="Path_1262718" data-name="Path 1262718" d="M62.322,84H2.71V2.71H46.064L62.322,18.968Z" transform="translate(-1.355 -1.355)" fill="#e2e7f6"/>
      <path id="Path_1262719" data-name="Path 1262719" d="M6.774,2.71V79.935H62.323V18.968L46.065,2.71Z" transform="translate(-1.355 -1.355)" fill="#f2f2f2"/>
      <path id="Path_1262720" data-name="Path 1262720" d="M8.129,35.226H21.677V48.774H8.129Z" transform="translate(-1.355 -1.355)" fill="#559b2d"/>
      <path id="Path_1262721" data-name="Path 1262721" d="M8.129,56.9H21.677V70.452H8.129Z" transform="translate(-1.355 -1.355)" fill="#559b2d"/>
      <path id="Path_1262722" data-name="Path 1262722" d="M46.064,2.71V18.968H62.322" transform="translate(-1.355 -1.355)" fill="#c8cded"/>
      <rect id="Rectangle_411009" data-name="Rectangle 411009" width="54.194" height="51.484" rx="4.065" transform="translate(28.451 31.161)" fill="#474747"/>
      <path id="Path_1262723" data-name="Path 1262723" d="M79.935,32.516h-42v42A4.065,4.065,0,0,0,42,78.581H84v-42a4.065,4.065,0,0,0-4.065-4.065Z" transform="translate(-1.355 -1.355)" fill="#686868"/>
      <path id="Path_1262724" data-name="Path 1262724" d="M84,43.355H29.806V36.581a4.065,4.065,0,0,1,4.065-4.065H79.935A4.065,4.065,0,0,1,84,36.581Z" transform="translate(-1.355 -1.355)" fill="#49a9cd"/>
      <path id="Path_1262725" data-name="Path 1262725" d="M79.935,32.516H42a4.065,4.065,0,0,0-4.065,4.065v6.774H84V36.581a4.065,4.065,0,0,0-4.065-4.065Z" transform="translate(-1.355 -1.355)" fill="#4fb5dc"/>
      <path id="Path_1262726" data-name="Path 1262726" d="M37.935,27.1h8.129V37.935H37.935Z" transform="translate(-1.355 -1.355)" fill="#f4a93c"/>
      <path id="Path_1262727" data-name="Path 1262727" d="M42,33.871a1.355,1.355,0,0,0,1.355,1.355h2.71V27.1H42Z" transform="translate(-1.355 -1.355)" fill="#f6b940"/>
      <path id="Path_1262728" data-name="Path 1262728" d="M67.742,27.1h8.129V37.935H67.742Z" transform="translate(-1.355 -1.355)" fill="#f4a93c"/>
      <circle id="Ellipse_12525" data-name="Ellipse 12525" cx="14.903" cy="14.903" r="14.903" transform="translate(40.645 47.419)" fill="#4fb5dc"/>
      <circle id="Ellipse_12526" data-name="Ellipse 12526" cx="9.484" cy="9.484" r="9.484" transform="translate(46.064 52.839)" fill="#fff"/>
      <path id="Path_1262729" data-name="Path 1262729" d="M62.323,65.032H56.9a1.355,1.355,0,0,1-1.355-1.355V58.258h2.71v4.065h4.065Z" transform="translate(-1.355 -1.355)" fill="#474747"/>
      <path id="Path_1262730" data-name="Path 1262730" d="M50.129,36.581H63.677v2.71H50.129Z" transform="translate(-1.355 -1.355)" fill="#fff"/>
      <path id="Path_1262731" data-name="Path 1262731" d="M8.129,13.548H21.677V27.1H8.129Z" transform="translate(-1.355 -1.355)" fill="#559b2d"/>
      <path id="Path_1262732" data-name="Path 1262732" d="M10.839,13.548v8.129a2.71,2.71,0,0,0,2.71,2.71h8.129V13.548Z" transform="translate(-1.355 -1.355)" fill="#6bc13b"/>
      <path id="Path_1262733" data-name="Path 1262733" d="M10.839,35.226v8.129a2.71,2.71,0,0,0,2.71,2.71h8.129V35.226Z" transform="translate(-1.355 -1.355)" fill="#6bc13b"/>
      <path id="Path_1262734" data-name="Path 1262734" d="M10.839,56.9v8.129a2.71,2.71,0,0,0,2.71,2.71h8.129V56.9Z" transform="translate(-1.355 -1.355)" fill="#6bc13b"/>
      <g id="Group_1203879" data-name="Group 1203879" transform="translate(9.881 8.526)">
        <path id="Path_1262735" data-name="Path 1262735" d="M14.9,23.032a1.35,1.35,0,0,1-.958-.4l-2.71-2.71,1.916-1.916L14.9,19.762l9.881-9.881L26.7,11.8,15.861,22.635a1.35,1.35,0,0,1-.958.4Z" transform="translate(-11.236 -9.881)" fill="#474747"/>
        <path id="Path_1262736" data-name="Path 1262736" d="M14.9,44.71a1.35,1.35,0,0,1-.958-.4l-2.71-2.71,1.916-1.916L14.9,41.439l9.881-9.881L26.7,33.474,15.861,44.313a1.35,1.35,0,0,1-.958.4Z" transform="translate(-11.236 -9.881)" fill="#474747"/>
        <path id="Path_1262737" data-name="Path 1262737" d="M14.9,66.387a1.35,1.35,0,0,1-.958-.4l-2.71-2.71,1.916-1.916L14.9,63.117l9.881-9.881L26.7,55.151,15.861,65.99a1.35,1.35,0,0,1-.958.4Z" transform="translate(-11.236 -9.881)" fill="#474747"/>
      </g>
      <path id="Path_1262738" data-name="Path 1262738" d="M71.806,33.871a1.355,1.355,0,0,0,1.355,1.355h2.71V27.1H71.806Z" transform="translate(-1.355 -1.355)" fill="#f6b940"/>
      <path id="Path_1262739" data-name="Path 1262739" d="M79.935,31.161h-2.71V27.1a1.355,1.355,0,0,0-1.355-1.355H67.742A1.355,1.355,0,0,0,66.387,27.1v4.065h-2.71V18.968a1.355,1.355,0,0,0-.4-.958L47.022,1.752a1.354,1.354,0,0,0-.958-.4H2.71A1.355,1.355,0,0,0,1.355,2.71V84A1.355,1.355,0,0,0,2.71,85.355H79.935a5.425,5.425,0,0,0,5.419-5.419V36.581A5.425,5.425,0,0,0,79.935,31.161ZM69.1,28.452h5.419v8.129H69.1ZM67.742,39.29h8.129a1.355,1.355,0,0,0,1.355-1.355V33.871h2.71a2.713,2.713,0,0,1,2.71,2.71V42H31.161V36.581a2.713,2.713,0,0,1,2.71-2.71h2.71v4.065a1.355,1.355,0,0,0,1.355,1.355h8.129a1.355,1.355,0,0,0,1.355-1.355V33.871H66.387v4.065A1.355,1.355,0,0,0,67.742,39.29ZM39.29,36.581V28.452H44.71v8.129Zm8.129-30.6L59.052,17.613H47.419ZM4.065,4.065H44.71v14.9a1.355,1.355,0,0,0,1.355,1.355h14.9V31.161H47.419V27.1a1.355,1.355,0,0,0-1.355-1.355H37.935A1.355,1.355,0,0,0,36.581,27.1v4.065h-2.71a5.425,5.425,0,0,0-5.419,5.419V79.935a5.357,5.357,0,0,0,.754,2.71H4.065ZM79.935,82.645H33.871a2.713,2.713,0,0,1-2.71-2.71V44.71H82.645V79.935A2.713,2.713,0,0,1,79.935,82.645Z" transform="translate(-1.355 -1.355)"/>
      <path id="Path_1262740" data-name="Path 1262740" d="M56.9,47.419A16.258,16.258,0,1,0,73.161,63.677,16.258,16.258,0,0,0,56.9,47.419Zm0,29.806A13.548,13.548,0,1,1,70.452,63.677,13.548,13.548,0,0,1,56.9,77.226Z" transform="translate(-1.355 -1.355)"/>
      <path id="Path_1262741" data-name="Path 1262741" d="M56.9,52.839A10.839,10.839,0,1,0,67.742,63.677,10.839,10.839,0,0,0,56.9,52.839Zm0,18.968a8.129,8.129,0,1,1,8.129-8.129A8.129,8.129,0,0,1,56.9,71.806Z" transform="translate(-1.355 -1.355)"/>
      <path id="Path_1262742" data-name="Path 1262742" d="M58.258,58.258h-2.71v5.419A1.355,1.355,0,0,0,56.9,65.032h5.419v-2.71H58.258Z" transform="translate(-1.355 -1.355)"/>
      <path id="Path_1262743" data-name="Path 1262743" d="M50.129,36.581H63.677v2.71H50.129Z" transform="translate(-1.355 -1.355)"/>
      <path id="Path_1262744" data-name="Path 1262744" d="M22.3,12.364a1.321,1.321,0,0,0-.623-.171H8.129a1.355,1.355,0,0,0-1.355,1.355V27.1a1.355,1.355,0,0,0,1.355,1.355H21.677A1.355,1.355,0,0,0,23.032,27.1V15.464L26.7,11.8,24.784,9.881ZM20.323,25.742H9.484V14.9H19.762L14.9,19.762,13.151,18.01l-1.916,1.916,2.71,2.71a1.355,1.355,0,0,0,1.916,0l4.462-4.461Z" transform="translate(-1.355 -1.355)"/>
      <path id="Path_1262745" data-name="Path 1262745" d="M22.3,34.042a1.321,1.321,0,0,0-.623-.171H8.129a1.355,1.355,0,0,0-1.355,1.355V48.774a1.355,1.355,0,0,0,1.355,1.355H21.677a1.355,1.355,0,0,0,1.355-1.355V37.142L26.7,33.474l-1.916-1.916ZM20.323,47.419H9.484V36.581H19.762L14.9,41.439l-1.752-1.752L11.236,41.6l2.71,2.71a1.355,1.355,0,0,0,1.916,0l4.462-4.461Z" transform="translate(-1.355 -1.355)"/>
      <path id="Path_1262746" data-name="Path 1262746" d="M24.784,53.236,22.3,55.719a1.321,1.321,0,0,0-.623-.171H8.129A1.355,1.355,0,0,0,6.774,56.9V70.452a1.355,1.355,0,0,0,1.355,1.355H21.677a1.355,1.355,0,0,0,1.355-1.355V58.819L26.7,55.151ZM20.323,69.1H9.484V58.258H19.762L14.9,63.117l-1.752-1.752L11.236,63.28l2.71,2.71a1.355,1.355,0,0,0,1.916,0l4.462-4.461Z" transform="translate(-1.355 -1.355)"/>
    </g>
  </g>
</svg>
