<svg id="Group_1203888" data-name="Group 1203888" xmlns="http://www.w3.org/2000/svg" xmlns:xlink="http://www.w3.org/1999/xlink" width="113.842" height="101.604" viewBox="0 0 113.842 101.604">
  <defs>
    <clipPath id="clip-path">
      <rect id="Rectangle_410945" data-name="Rectangle 410945" width="85" height="84" fill="#fff" stroke="#707070" stroke-width="1"/>
    </clipPath>
  </defs>
  <g id="Group_1203723" data-name="Group 1203723">
    <ellipse id="Ellipse_12452" data-name="Ellipse 12452" cx="28.658" cy="28.658" rx="28.658" ry="28.658" transform="translate(56.527 44.289)" fill="#c0d85c"/>
    <ellipse id="Ellipse_12453" data-name="Ellipse 12453" cx="20.842" cy="20.842" rx="20.842" ry="20.842" fill="#c0d85c"/>
  </g>
  <g id="Mask_Group_1099410" data-name="Mask Group 1099410" transform="translate(10.27 10.728)" clip-path="url(#clip-path)">
    <g id="Layer_2" data-name="Layer 2" transform="translate(3.396 0)">
      <g id="Layer_1" data-name="Layer 1">
        <g id="docuemnt">
          <rect id="Rectangle_411010" data-name="Rectangle 411010" width="55.034" height="69.517" rx="5.793" transform="translate(1.448 13.035)" fill="#38c2f2"/>
          <path id="Path_1262747" data-name="Path 1262747" d="M10.136,27.517V13.034H7.241a5.792,5.792,0,0,0-5.793,5.793V76.758a5.792,5.792,0,0,0,5.793,5.793H50.689a5.792,5.792,0,0,0,5.793-5.793v-.092A49.238,49.238,0,0,1,10.136,27.517Z" transform="translate(0 0.001)" fill="#1da9ce"/>
          <path id="Path_1262748" data-name="Path 1262748" d="M23.172,7.241a5.793,5.793,0,0,1,11.586,0H39.1A2.9,2.9,0,0,1,42,10.136v5.795a2.9,2.9,0,0,1-2.9,2.9H18.827a2.9,2.9,0,0,1-2.9-2.9V10.136a2.9,2.9,0,0,1,2.9-2.9Z" transform="translate(0 0.001)" fill="#666"/>
          <path id="Path_1262749" data-name="Path 1262749" d="M56.482,45.808V58.466L44.288,70.661a8.9,8.9,0,0,1-3.505,2.158L33.309,75.31,35.8,67.835a8.9,8.9,0,0,1,2.158-3.5Z" transform="translate(0 0.001)" fill="#1da9ce"/>
          <path id="Path_1262750" data-name="Path 1262750" d="M40.789,69.92,33.31,72.413,35.8,64.934a8.932,8.932,0,0,1,2.159-3.494L69.128,30.274A4.47,4.47,0,0,1,75.449,36.6L44.282,67.761a8.951,8.951,0,0,1-3.493,2.159Z" transform="translate(0 0.001)" fill="#ffd580"/>
          <path id="Path_1262751" data-name="Path 1262751" d="M75.449,30.8,44.282,61.968a8.951,8.951,0,0,1-3.494,2.159L35.482,65.9,33.31,72.413l7.479-2.493a8.946,8.946,0,0,0,3.494-2.16L75.449,36.6a4.454,4.454,0,0,0,.216-6.057c-.075.087-.134.182-.216.264Z" transform="translate(0 0.001)" fill="#f7af3c"/>
          <rect id="Rectangle_411011" data-name="Rectangle 411011" width="8.69" height="8.69" rx="1.448" transform="translate(8.69 31.862)" fill="#ffd580"/>
          <path id="Path_1262752" data-name="Path 1262752" d="M1.448,69.517A1.448,1.448,0,0,0,2.9,68.068V18.827a4.351,4.351,0,0,1,4.345-4.345h7.241v1.448a4.351,4.351,0,0,0,4.345,4.345H39.1a4.351,4.351,0,0,0,4.345-4.345V14.483h7.241a4.351,4.351,0,0,1,4.345,4.345v15.9a1.448,1.448,0,1,0,2.9,0v-15.9a7.25,7.25,0,0,0-7.241-7.241H43.448v-1.45A4.351,4.351,0,0,0,39.1,5.792H36.061a7.242,7.242,0,0,0-14.191,0H18.827a4.351,4.351,0,0,0-4.345,4.345v1.448H7.241A7.25,7.25,0,0,0,0,18.827V68.068a1.448,1.448,0,0,0,1.448,1.448Zm15.931-59.38a1.449,1.449,0,0,1,1.448-1.448h4.345A1.448,1.448,0,0,0,24.62,7.24a4.345,4.345,0,0,1,8.69,0,1.448,1.448,0,0,0,1.45,1.45h4.345a1.45,1.45,0,0,1,1.446,1.447v5.795A1.45,1.45,0,0,1,39.1,17.379H18.827a1.449,1.449,0,0,1-1.448-1.448Z" transform="translate(0 0.001)"/>
          <path id="Path_1262753" data-name="Path 1262753" d="M56.482,62.319a1.448,1.448,0,0,0-1.448,1.448V76.758A4.351,4.351,0,0,1,50.689,81.1H7.241A4.351,4.351,0,0,1,2.9,76.758v-2.9a1.448,1.448,0,0,0-2.9,0v2.9A7.25,7.25,0,0,0,7.241,84H50.689a7.25,7.25,0,0,0,7.241-7.241V63.767a1.448,1.448,0,0,0-1.448-1.448Z" transform="translate(0 0.001)"/>
          <path id="Path_1262754" data-name="Path 1262754" d="M76.476,29.251a5.917,5.917,0,0,0-8.37,0L36.938,60.416a10.448,10.448,0,0,0-2.508,4.06l-2.494,7.479a1.449,1.449,0,0,0,1.374,1.906,1.418,1.418,0,0,0,.461-.075l7.48-2.493a10.44,10.44,0,0,0,4.06-2.508L76.478,37.62a5.925,5.925,0,0,0,0-8.369Zm-2.048,6.32L43.259,66.736a7.519,7.519,0,0,1-2.928,1.809L35.6,70.122l1.578-4.731a7.53,7.53,0,0,1,1.809-2.929L70.153,31.3a3.022,3.022,0,0,1,4.274,4.273Z" transform="translate(0 0.001)"/>
          <path id="Path_1262755" data-name="Path 1262755" d="M43.448,28.965H23.172a1.448,1.448,0,0,0,0,2.9H43.448a1.448,1.448,0,1,0,0-2.9Z" transform="translate(0 0.001)"/>
          <path id="Path_1262756" data-name="Path 1262756" d="M43.448,34.76H23.172a1.448,1.448,0,0,0,0,2.9H43.448a1.448,1.448,0,1,0,0-2.9Z" transform="translate(0 0.001)"/>
          <path id="Path_1262757" data-name="Path 1262757" d="M43.448,40.551H23.172a1.448,1.448,0,0,0,0,2.9H43.448a1.448,1.448,0,1,0,0-2.9Z" transform="translate(0 0.001)"/>
          <path id="Path_1262758" data-name="Path 1262758" d="M8.69,30.414a1.448,1.448,0,0,0-1.448,1.448v8.69A1.448,1.448,0,0,0,8.69,42h8.69a1.448,1.448,0,0,0,1.448-1.448v-8.69a1.448,1.448,0,0,0-1.448-1.448Zm7.241,8.69H10.136V33.31h5.795Z" transform="translate(0 0.001)"/>
        </g>
      </g>
    </g>
  </g>
</svg>
