<svg xmlns="http://www.w3.org/2000/svg" xmlns:xlink="http://www.w3.org/1999/xlink" width="105.479" height="87.991" viewBox="0 0 105.479 87.991">
  <defs>
    <clipPath id="clip-path">
      <rect id="Rectangle_410848" data-name="Rectangle 410848" width="75.895" height="72.761" transform="translate(1014.271 2125.188)" fill="#fff" stroke="#707070" stroke-width="1"/>
    </clipPath>
  </defs>
  <g id="Group_1203794" data-name="Group 1203794" transform="translate(-1000 -2117.46)">
    <g id="Group_1203668" data-name="Group 1203668" transform="translate(759.164 -4593.276)">
      <g id="Group_1203659" data-name="Group 1203659" transform="translate(240.836 6710.736)">
        <ellipse id="Ellipse_12452" data-name="Ellipse 12452" cx="28.658" cy="28.658" rx="28.658" ry="28.658" transform="translate(48.164 30.676)" fill="#c0d85c"/>
        <ellipse id="Ellipse_12453" data-name="Ellipse 12453" cx="20.842" cy="20.842" rx="20.842" ry="20.842" fill="#c0d85c"/>
      </g>
    </g>
    <g id="Mask_Group_1099394" data-name="Mask Group 1099394" clip-path="url(#clip-path)">
      <g id="aquarium_3910145" transform="translate(1015.815 2125.176)">
        <path id="Path_1262496" data-name="Path 1262496" d="M43.207,40.933h5.56A23.878,23.878,0,0,1,28.425,52.3V40.933Z" fill="#844747"/>
        <path id="Path_1262497" data-name="Path 1262497" d="M50.7,57.136l1.615-1.615,3.207-3.207L57.136,50.7,70.3,63.868A4.551,4.551,0,0,1,63.868,70.3Z" fill="#656d78"/>
        <path id="Path_1262498" data-name="Path 1262498" d="M43.208,15.918v3.411H13.644V15.918Z" fill="#656d78"/>
        <path id="Path_1262499" data-name="Path 1262499" d="M28.425,40.933V52.3A23.879,23.879,0,0,1,8.082,40.932Z" fill="#965353"/>
        <path id="Path_1262500" data-name="Path 1262500" d="M25.014,28.425c0,1.888,2.547,3.411,5.685,3.411s5.685-1.524,5.685-3.411-2.547-3.411-5.685-3.411-5.685,1.524-5.685,3.411l-4.548-3.411v6.822Zm17.056-9.1V37.522H14.781V19.329Z" fill="#87bcf4"/>
        <path id="Path_1262501" data-name="Path 1262501" d="M28.425,52.3A23.878,23.878,0,1,0,11.54,45.311,23.878,23.878,0,0,0,28.425,52.3ZM9.129,9.129A27.284,27.284,0,0,1,49.257,46.039c-.478.58-.989,1.137-1.535,1.683s-1.1,1.057-1.683,1.535A27.284,27.284,0,0,1,9.129,9.129Z" fill="#e6e9ed"/>
        <path id="Path_1262502" data-name="Path 1262502" d="M47.722,47.722c.546-.546,1.057-1.1,1.535-1.683l6.265,6.277-3.207,3.207L46.05,49.268l-.011-.011c.58-.478,1.137-.989,1.683-1.535Z" fill="#ccd1d9"/>
        <path id="Path_1262503" data-name="Path 1262503" d="M43.208,37.522v3.411H13.644V37.522H43.208Z" fill="#656d78"/>
        <ellipse id="Ellipse_12489" data-name="Ellipse 12489" cx="5.685" cy="3.411" rx="5.685" ry="3.411" transform="translate(25.014 25.014)" fill="#ed5565"/>
        <path id="Path_1262504" data-name="Path 1262504" d="M25.014,28.426l-4.548,3.411V25.014Z" fill="#ed5565"/>
        <path id="Path_1262505" data-name="Path 1262505" d="M43.207,19.329V15.918H13.643v3.411H14.78V37.522H13.643v3.411H8.083a23.88,23.88,0,1,1,40.685,0h-5.56V37.522H42.07V19.329Z" fill="#4a89dc"/>
        <path id="Path_1262506" data-name="Path 1262506" d="M28.427,53.429a25,25,0,1,1,17.689-7.315,25,25,0,0,1-17.689,7.315Zm0-47.734a22.73,22.73,0,1,0,16.081,6.65A22.73,22.73,0,0,0,28.427,5.7Z"/>
        <path id="Path_1262507" data-name="Path 1262507" d="M28.427,56.838a28.412,28.412,0,1,1,20.1-8.312,28.412,28.412,0,0,1-20.1,8.312Zm0-54.552A26.14,26.14,0,1,0,46.92,9.934,26.14,26.14,0,0,0,28.427,2.286Z"/>
        <path id="Path_1262508" data-name="Path 1262508" d="M52.312,56.665a1.133,1.133,0,0,1-.8-.333l-6.263-6.264a1.137,1.137,0,1,1,1.608-1.608l6.263,6.264a1.137,1.137,0,0,1-.8,1.941Z"/>
        <path id="Path_1262509" data-name="Path 1262509" d="M55.528,53.449a1.133,1.133,0,0,1-.8-.333l-6.269-6.271a1.137,1.137,0,0,1,1.608-1.608l6.269,6.271a1.137,1.137,0,0,1-.8,1.941Z"/>
        <path id="Path_1262510" data-name="Path 1262510" d="M50.7,58.273a1.137,1.137,0,0,1-.8-1.941L56.332,49.9a1.137,1.137,0,1,1,1.608,1.608L51.508,57.94a1.133,1.133,0,0,1-.8.333Z"/>
        <path id="Path_1262511" data-name="Path 1262511" d="M63.872,71.44a1.133,1.133,0,0,1-.8-.333L49.9,57.94a1.137,1.137,0,1,1,1.608-1.608L64.676,69.5a1.137,1.137,0,0,1-.8,1.941Z"/>
        <path id="Path_1262512" data-name="Path 1262512" d="M70.3,65.01a1.133,1.133,0,0,1-.8-.333L56.332,51.506A1.137,1.137,0,0,1,57.94,49.9L71.107,63.069a1.137,1.137,0,0,1-.8,1.941Z"/>
        <path id="Path_1262513" data-name="Path 1262513" d="M67.089,72.773a5.649,5.649,0,0,1-4.021-1.666A1.137,1.137,0,0,1,64.676,69.5a3.49,3.49,0,0,0,4.823,0,3.407,3.407,0,0,0,0-4.821,1.137,1.137,0,1,1,1.606-1.61,5.685,5.685,0,0,1-4.018,9.705Z"/>
        <path id="Path_1262514" data-name="Path 1262514" d="M48.772,42.072H8.078a1.137,1.137,0,0,1,0-2.274H48.772a1.137,1.137,0,0,1,0,2.274Z"/>
        <path id="Path_1262515" data-name="Path 1262515" d="M28.426,53.44A1.136,1.136,0,0,1,27.289,52.3V40.935a1.137,1.137,0,0,1,2.274,0V52.3a1.136,1.136,0,0,1-1.137,1.137Z"/>
        <path id="Path_1262516" data-name="Path 1262516" d="M43.209,20.466H13.645a1.136,1.136,0,0,1-1.137-1.137V15.918a1.136,1.136,0,0,1,1.137-1.137H43.209a1.136,1.136,0,0,1,1.137,1.137v3.411a1.136,1.136,0,0,1-1.137,1.137ZM14.782,18.192h27.29V17.055H14.782Z"/>
        <path id="Path_1262517" data-name="Path 1262517" d="M43.209,42.071H13.645a1.136,1.136,0,0,1-1.137-1.137V37.522a1.136,1.136,0,0,1,1.137-1.137H43.209a1.136,1.136,0,0,1,1.137,1.137v3.411a1.136,1.136,0,0,1-1.137,1.137ZM14.782,39.8h27.29V38.659H14.782Z"/>
        <path id="Path_1262518" data-name="Path 1262518" d="M14.782,38.659a1.136,1.136,0,0,1-1.137-1.137V19.329a1.137,1.137,0,0,1,2.274,0V37.522a1.136,1.136,0,0,1-1.137,1.137Z"/>
        <path id="Path_1262519" data-name="Path 1262519" d="M42.072,38.659a1.136,1.136,0,0,1-1.137-1.137V19.329a1.137,1.137,0,0,1,2.274,0V37.522a1.136,1.136,0,0,1-1.137,1.137Z"/>
        <path id="Path_1262520" data-name="Path 1262520" d="M30.7,32.974c-3.825,0-6.822-2-6.822-4.548s3-4.548,6.822-4.548,6.822,2,6.822,4.548S34.526,32.974,30.7,32.974Zm0-6.822c-2.6,0-4.548,1.2-4.548,2.274S28.1,30.7,30.7,30.7s4.548-1.2,4.548-2.274S33.3,26.152,30.7,26.152Z"/>
        <path id="Path_1262521" data-name="Path 1262521" d="M25.014,29.563a1.13,1.13,0,0,1-.681-.228l-4.548-3.411a1.137,1.137,0,1,1,1.364-1.819L25.7,27.516a1.137,1.137,0,0,1-.683,2.047Z"/>
        <path id="Path_1262522" data-name="Path 1262522" d="M20.468,32.974a1.137,1.137,0,0,1-.683-2.047l4.548-3.411A1.137,1.137,0,0,1,25.7,29.335l-4.548,3.411a1.13,1.13,0,0,1-.681.228Z"/>
        <path id="Path_1262523" data-name="Path 1262523" d="M20.467,32.974a1.136,1.136,0,0,1-1.137-1.137V25.014a1.137,1.137,0,1,1,2.274,0v6.822a1.136,1.136,0,0,1-1.137,1.137Z"/>
      </g>
    </g>
  </g>
</svg>
